<svg width="210" height="186" viewBox="0 0 210 186" fill="none" xmlns="http://www.w3.org/2000/svg">
<g clip-path="url(#clip0_249_587)">
<path d="M57.9665 4.88374C64.2389 10.1715 55.8265 19.5015 61.3153 25.5953C56.2839 29.6633 50.7235 29.6633 47.0165 29.6633C43.3096 29.6633 37.7492 30.0331 33.0362 25.5953C37.5066 18.6619 30.7134 10.0789 37.1293 4.88374C43.4476 -0.232525 51.7508 -0.356266 57.9665 4.88374Z" fill="#D7E4E8"/>
<path d="M152.148 4.88374C145.876 10.1715 154.288 19.5015 148.799 25.5953C153.831 29.6633 159.391 29.6633 163.098 29.6633C166.805 29.6633 172.366 30.0331 177.079 25.5953C172.608 18.6619 179.401 10.0789 172.985 4.88374C166.667 -0.232526 158.364 -0.356266 152.148 4.88374Z" fill="#D7E4E8"/>
<path d="M104.687 35.5809C92.4538 35.5809 70.6558 35.9652 61.3153 25.5953C56.2839 29.6633 50.7235 29.6633 47.0165 29.6633C43.3096 29.6633 37.7492 30.0331 33.0362 25.5953C24.9179 38.1864 22.1744 29.9821 21.35 45.5674C20.9476 53.1756 21.0054 55.5851 19.4268 62.5798C29.4356 45.1969 60.9448 55.5527 104.687 55.5527C148.429 55.5527 180.679 45.1969 190.688 62.5798C189.109 55.5851 189.167 53.1756 188.765 45.5674C187.94 29.9821 185.197 38.1864 177.079 25.5953C172.366 30.0331 166.805 29.6633 163.098 29.6633C159.391 29.6633 153.831 29.6633 148.799 25.5953C139.459 35.9652 116.92 35.5809 104.687 35.5809Z" fill="#D7E4E8"/>
<path d="M2.74565 162.809C4.96972 174.644 9.25697 185 21.2804 185C34.168 185 34.6254 176.124 49.4532 159.111C60.6813 146.228 89.1175 144.317 105.057 144.317C120.997 144.317 149.433 146.228 160.662 159.111C175.489 176.124 175.947 185 188.834 185C200.858 185 205.145 174.644 207.369 162.809C214.377 125.518 197.752 93.8819 190.688 62.5798C180.679 45.1969 148.429 55.5527 104.687 55.5527C60.9448 55.5527 29.4356 45.1969 19.4268 62.5798C12.3627 93.8819 -4.26208 125.518 2.74565 162.809Z" fill="#D7E4E8"/>
<path d="M61.3153 25.5953C55.8265 19.5015 64.2389 10.1715 57.9665 4.88374C51.7508 -0.356266 43.4476 -0.232525 37.1293 4.88374C30.7134 10.0789 37.5066 18.6619 33.0362 25.5953M61.3153 25.5953C70.6558 35.9652 92.4538 35.5809 104.687 35.5809C116.92 35.5809 139.459 35.9652 148.799 25.5953M61.3153 25.5953C56.2839 29.6633 50.7235 29.6633 47.0165 29.6633C43.3096 29.6633 37.7492 30.0331 33.0362 25.5953M33.0362 25.5953C24.9179 38.1864 22.1744 29.9821 21.35 45.5674C20.9476 53.1756 21.0054 55.5851 19.4268 62.5798M19.4268 62.5798C12.3627 93.8819 -4.26208 125.518 2.74565 162.809C4.96972 174.644 9.25697 185 21.2804 185C34.168 185 34.6254 176.124 49.4532 159.111C60.6813 146.228 89.1175 144.317 105.057 144.317C120.997 144.317 149.433 146.228 160.662 159.111C175.489 176.124 175.947 185 188.834 185C200.858 185 205.145 174.644 207.369 162.809C214.377 125.518 197.752 93.8819 190.688 62.5798M19.4268 62.5798C29.4356 45.1969 60.9448 55.5527 104.687 55.5527C148.429 55.5527 180.679 45.1969 190.688 62.5798M148.799 25.5953C154.288 19.5015 145.876 10.1715 152.148 4.88374C158.364 -0.356266 166.667 -0.232526 172.985 4.88374C179.401 10.0789 172.608 18.6619 177.079 25.5953M148.799 25.5953C153.831 29.6633 159.391 29.6633 163.098 29.6633C166.805 29.6633 172.366 30.0331 177.079 25.5953M177.079 25.5953C185.197 38.1864 187.94 29.9821 188.765 45.5674C189.167 53.1756 189.109 55.5851 190.688 62.5798" stroke="black" stroke-width="2"/>
<rect x="145" y="35.0039" width="33" height="12" rx="6" fill="#63F81D" stroke="black" stroke-width="2"/>
<circle cx="134" cy="118" r="11" fill="url(#paint0_angular_249_587)" stroke="black" stroke-width="2"/>
<circle cx="134" cy="118" r="7" stroke="black" stroke-width="2"/>
<circle cx="51.6122" cy="79.9277" r="11" fill="#44E0F5" stroke="black" stroke-width="2"/>
<path d="M58.5 80C58.5 83.866 55.366 87 51.5 87C47.634 87 44.5 83.866 44.5 80C44.5 76.134 47.634 73 51.5 73C55.366 73 58.5 76.134 58.5 80Z" fill="#44E0F5" stroke="black" stroke-width="2"/>
<circle cx="176.175" cy="80.5908" r="6.5" stroke="black" stroke-width="2"/>
<circle cx="146.675" cy="80.5908" r="6.5" stroke="black" stroke-width="2"/>
<circle cx="117.388" cy="80.0664" r="4.5" fill="#E2F31A" stroke="black" stroke-width="2"/>
<circle cx="90.8373" cy="80.0664" r="4.5" stroke="black" stroke-width="2"/>
<circle cx="161.425" cy="95.3398" r="6.5" fill="#E14DEE" stroke="black" stroke-width="2"/>
<circle cx="161.425" cy="65.8418" r="6.5" stroke="black" stroke-width="2"/>
<mask id="path-14-inside-1_249_587" fill="white">
<path fill-rule="evenodd" clip-rule="evenodd" d="M84.2622 105C84.2622 102.239 82.0236 100 79.2622 100H77.2622C74.5008 100 72.2622 102.239 72.2622 105V111.999H65.2621C62.5007 111.999 60.2621 114.237 60.2621 116.999V118.999C60.2621 121.76 62.5007 123.999 65.2621 123.999H72.2622V131C72.2622 133.761 74.5008 136 77.2622 136H79.2622C82.0236 136 84.2622 133.761 84.2622 131V123.999H91.2621C94.0235 123.999 96.2621 121.76 96.2621 118.999V116.999C96.2621 114.237 94.0235 111.999 91.2621 111.999H84.2622V105Z"/>
</mask>
<path fill-rule="evenodd" clip-rule="evenodd" d="M84.2622 105C84.2622 102.239 82.0236 100 79.2622 100H77.2622C74.5008 100 72.2622 102.239 72.2622 105V111.999H65.2621C62.5007 111.999 60.2621 114.237 60.2621 116.999V118.999C60.2621 121.76 62.5007 123.999 65.2621 123.999H72.2622V131C72.2622 133.761 74.5008 136 77.2622 136H79.2622C82.0236 136 84.2622 133.761 84.2622 131V123.999H91.2621C94.0235 123.999 96.2621 121.76 96.2621 118.999V116.999C96.2621 114.237 94.0235 111.999 91.2621 111.999H84.2622V105Z" fill="#44E0F5"/>
<path d="M72.2622 111.999V113.999H74.2622V111.999H72.2622ZM72.2622 123.999H74.2622V121.999H72.2622V123.999ZM72.2622 131H74.2622H72.2622ZM84.2622 123.999V121.999H82.2622V123.999H84.2622ZM84.2622 111.999H82.2622V113.999H84.2622V111.999ZM79.2622 102C80.919 102 82.2622 103.343 82.2622 105H86.2622C86.2622 101.134 83.1282 98 79.2622 98V102ZM77.2622 102H79.2622V98H77.2622V102ZM74.2622 105C74.2622 103.343 75.6053 102 77.2622 102V98C73.3962 98 70.2622 101.134 70.2622 105H74.2622ZM74.2622 111.999V105H70.2622V111.999H74.2622ZM65.2621 113.999H72.2622V109.999H65.2621V113.999ZM62.2621 116.999C62.2621 115.342 63.6052 113.999 65.2621 113.999V109.999C61.3961 109.999 58.2621 113.133 58.2621 116.999H62.2621ZM62.2621 118.999V116.999H58.2621V118.999H62.2621ZM65.2621 121.999C63.6052 121.999 62.2621 120.656 62.2621 118.999H58.2621C58.2621 122.865 61.3961 125.999 65.2621 125.999V121.999ZM72.2622 121.999H65.2621V125.999H72.2622V121.999ZM74.2622 131V123.999H70.2622V131H74.2622ZM77.2622 134C75.6053 134 74.2622 132.657 74.2622 131H70.2622C70.2622 134.866 73.3962 138 77.2622 138V134ZM79.2622 134H77.2622V138H79.2622V134ZM82.2622 131C82.2622 132.657 80.919 134 79.2622 134V138C83.1282 138 86.2622 134.866 86.2622 131H82.2622ZM82.2622 123.999V131H86.2622V123.999H82.2622ZM91.2621 121.999H84.2622V125.999H91.2621V121.999ZM94.2621 118.999C94.2621 120.656 92.9189 121.999 91.2621 121.999V125.999C95.1281 125.999 98.2621 122.865 98.2621 118.999H94.2621ZM94.2621 116.999V118.999H98.2621V116.999H94.2621ZM91.2621 113.999C92.9189 113.999 94.2621 115.342 94.2621 116.999H98.2621C98.2621 113.133 95.1281 109.999 91.2621 109.999V113.999ZM84.2622 113.999H91.2621V109.999H84.2622V113.999ZM82.2622 105V111.999H86.2622V105H82.2622Z" fill="black" mask="url(#path-14-inside-1_249_587)"/>
<rect x="30.2869" y="35.0039" width="33" height="12" rx="6" fill="#63F81D" stroke="black" stroke-width="2"/>
<rect x="53.3619" y="5.50391" width="20" height="13" rx="6.5" transform="rotate(90 53.3619 5.50391)" stroke="black" stroke-width="2"/>
<path d="M162.5 5.50391C166.09 5.50391 169 8.41406 169 12.0039L169 19.0039C169 22.5938 166.09 25.5039 162.5 25.5039C158.91 25.5039 156 22.5938 156 19.0039L156 12.0039C156 8.41405 158.91 5.50391 162.5 5.50391Z" fill="#E14DEE" stroke="black" stroke-width="2"/>
</g>
<defs>
<radialGradient id="paint0_angular_249_587" cx="0" cy="0" r="1" gradientUnits="userSpaceOnUse" gradientTransform="translate(134 118) rotate(90) scale(12)">
<stop stop-color="#3284FF"/>
<stop offset="0.126488" stop-color="#3284FF"/>
<stop offset="0.129429" stop-color="#EA371E"/>
<stop offset="0.251606" stop-color="#EA371E"/>
<stop offset="0.374691" stop-color="#EA371E"/>
<stop offset="0.377995" stop-color="#3284FF"/>
<stop offset="0.498709" stop-color="#3284FF"/>
<stop offset="0.623152" stop-color="#3284FF"/>
<stop offset="0.626737" stop-color="#EA371E"/>
<stop offset="0.748034" stop-color="#EA371E"/>
<stop offset="0.871441" stop-color="#EA371E"/>
<stop offset="0.874788" stop-color="#3284FF"/>
<stop offset="1" stop-color="#3284FF"/>
</radialGradient>
<clipPath id="clip0_249_587">
<rect width="210" height="186" fill="white"/>
</clipPath>
</defs>
</svg>
