<svg width="20" height="20" viewBox="0 0 20 20" fill="none" xmlns="http://www.w3.org/2000/svg">
<path d="M1 4C1 2.34315 2.34315 1 4 1H16C17.6569 1 19 2.34315 19 4V16C19 17.6569 17.6569 19 16 19H4C2.34315 19 1 17.6569 1 16V4Z" fill="#EA371E" stroke="black" stroke-width="2"/>
<path d="M9.625 13H7.82955V7.18182H9.70455C10.2689 7.18182 10.7519 7.2983 11.1534 7.53125C11.5549 7.76231 11.8627 8.0947 12.0767 8.52841C12.2907 8.96023 12.3977 9.47727 12.3977 10.0795C12.3977 10.6856 12.2898 11.2074 12.0739 11.6449C11.858 12.0805 11.5436 12.4157 11.1307 12.6506C10.7178 12.8835 10.2159 13 9.625 13ZM8.53409 12.375H9.57955C10.0606 12.375 10.4593 12.2822 10.7756 12.0966C11.0919 11.911 11.3277 11.6468 11.483 11.304C11.6383 10.9612 11.7159 10.553 11.7159 10.0795C11.7159 9.60985 11.6392 9.20549 11.4858 8.86648C11.3324 8.52557 11.1032 8.2642 10.7983 8.08239C10.4934 7.89867 10.1136 7.80682 9.65909 7.80682H8.53409V12.375Z" fill="black"/>
</svg>
