<svg width="20" height="20" viewBox="0 0 20 20" fill="none" xmlns="http://www.w3.org/2000/svg">
<mask id="path-1-inside-1_258_642" fill="white">
<path fill-rule="evenodd" clip-rule="evenodd" d="M13.3334 3.33333C13.3334 1.49238 11.841 0 10.0001 0C8.1591 0 6.66672 1.49238 6.66672 3.33333V6.66597H3.33333C1.49238 6.66597 0 8.15835 0 9.9993C0 11.8403 1.49238 13.3326 3.33333 13.3326H6.66672L6.66672 16.6667C6.66672 18.5076 8.1591 20 10.0001 20C11.841 20 13.3334 18.5076 13.3334 16.6667V13.3326H16.6667C18.5076 13.3326 20 11.8403 20 9.9993C20 8.15835 18.5076 6.66597 16.6667 6.66597H13.3334V3.33333Z"/>
</mask>
<path fill-rule="evenodd" clip-rule="evenodd" d="M13.3334 3.33333C13.3334 1.49238 11.841 0 10.0001 0C8.1591 0 6.66672 1.49238 6.66672 3.33333V6.66597H3.33333C1.49238 6.66597 0 8.15835 0 9.9993C0 11.8403 1.49238 13.3326 3.33333 13.3326H6.66672L6.66672 16.6667C6.66672 18.5076 8.1591 20 10.0001 20C11.841 20 13.3334 18.5076 13.3334 16.6667V13.3326H16.6667C18.5076 13.3326 20 11.8403 20 9.9993C20 8.15835 18.5076 6.66597 16.6667 6.66597H13.3334V3.33333Z" fill="#44E0F5"/>
<path d="M6.66672 6.66597V8.66597H8.66672V6.66597H6.66672ZM6.66672 13.3326H8.66672V11.3326H6.66672V13.3326ZM6.66672 16.6667H4.66672H6.66672ZM13.3334 13.3326V11.3326H11.3334V13.3326H13.3334ZM13.3334 6.66597H11.3334V8.66597H13.3334V6.66597ZM10.0001 2C10.7364 2 11.3334 2.59695 11.3334 3.33333H15.3334C15.3334 0.387816 12.9456 -2 10.0001 -2V2ZM8.66672 3.33333C8.66672 2.59695 9.26367 2 10.0001 2V-2C7.05453 -2 4.66672 0.387815 4.66672 3.33333H8.66672ZM8.66672 6.66597V3.33333H4.66672V6.66597H8.66672ZM3.33333 8.66597H6.66672V4.66597H3.33333V8.66597ZM2 9.9993C2 9.26292 2.59695 8.66597 3.33333 8.66597V4.66597C0.387816 4.66597 -2 7.05378 -2 9.9993H2ZM3.33333 11.3326C2.59695 11.3326 2 10.7357 2 9.9993H-2C-2 12.9448 0.387816 15.3326 3.33333 15.3326V11.3326ZM6.66672 11.3326H3.33333V15.3326H6.66672V11.3326ZM8.66672 16.6667L8.66672 13.3326H4.66672L4.66672 16.6667H8.66672ZM10.0001 18C9.26367 18 8.66672 17.403 8.66672 16.6667H4.66672C4.66672 19.6122 7.05453 22 10.0001 22V18ZM11.3334 16.6667C11.3334 17.403 10.7364 18 10.0001 18V22C12.9456 22 15.3334 19.6122 15.3334 16.6667H11.3334ZM11.3334 13.3326V16.6667H15.3334V13.3326H11.3334ZM16.6667 11.3326H13.3334V15.3326H16.6667V11.3326ZM18 9.9993C18 10.7357 17.403 11.3326 16.6667 11.3326V15.3326C19.6122 15.3326 22 12.9448 22 9.9993H18ZM16.6667 8.66597C17.403 8.66597 18 9.26292 18 9.9993H22C22 7.05378 19.6122 4.66597 16.6667 4.66597V8.66597ZM13.3334 8.66597H16.6667V4.66597H13.3334V8.66597ZM11.3334 3.33333V6.66597H15.3334V3.33333H11.3334Z" fill="black" mask="url(#path-1-inside-1_258_642)"/>
</svg>
