<svg width="20" height="20" viewBox="0 0 20 20" fill="none" xmlns="http://www.w3.org/2000/svg">
<rect x="1" y="1" width="18" height="18" rx="3" fill="#E2F31A" stroke="black" stroke-width="2"/>
<path d="M3.9897 13V7.18182H7.50107V7.80682H4.69425V9.77273H7.31925V10.3977H4.69425V12.375H7.54652V13H3.9897ZM11.771 9.61364L11.1687 9.78409C11.1308 9.68371 11.0749 9.58617 11.0011 9.49148C10.9291 9.39489 10.8306 9.31534 10.7056 9.25284C10.5806 9.19034 10.4206 9.15909 10.2255 9.15909C9.95845 9.15909 9.73591 9.22064 9.55788 9.34375C9.38175 9.46496 9.29368 9.61932 9.29368 9.80682C9.29368 9.97348 9.35429 10.1051 9.4755 10.2017C9.59671 10.2983 9.7861 10.3788 10.0437 10.4432L10.6914 10.6023C11.0816 10.697 11.3723 10.8419 11.5636 11.0369C11.7549 11.2301 11.8505 11.4792 11.8505 11.7841C11.8505 12.0341 11.7785 12.2576 11.6346 12.4545C11.4925 12.6515 11.2937 12.8068 11.038 12.9205C10.7823 13.0341 10.485 13.0909 10.146 13.0909C9.70088 13.0909 9.3325 12.9943 9.04084 12.8011C8.74917 12.608 8.56451 12.3258 8.48686 11.9545L9.12322 11.7955C9.18383 12.0303 9.29841 12.2064 9.46697 12.3239C9.63743 12.4413 9.85997 12.5 10.1346 12.5C10.4471 12.5 10.6952 12.4337 10.8789 12.3011C11.0645 12.1667 11.1573 12.0057 11.1573 11.8182C11.1573 11.6667 11.1043 11.5398 10.9982 11.4375C10.8922 11.3333 10.7293 11.2557 10.5096 11.2045L9.78232 11.0341C9.38269 10.9394 9.08913 10.7926 8.90163 10.5938C8.71603 10.393 8.62322 10.142 8.62322 9.84091C8.62322 9.5947 8.69235 9.37689 8.83061 9.1875C8.97076 8.99811 9.1611 8.84943 9.40163 8.74148C9.64406 8.63352 9.91868 8.57955 10.2255 8.57955C10.6573 8.57955 10.9963 8.67424 11.2425 8.86364C11.4906 9.05303 11.6668 9.30303 11.771 9.61364ZM14.6325 13.0909C14.2234 13.0909 13.8711 12.9943 13.5756 12.8011C13.2802 12.608 13.0529 12.3419 12.8938 12.0028C12.7347 11.6638 12.6552 11.2765 12.6552 10.8409C12.6552 10.3977 12.7366 10.0066 12.8995 9.66761C13.0643 9.3267 13.2934 9.06061 13.587 8.86932C13.8825 8.67614 14.2272 8.57955 14.6211 8.57955C14.9279 8.57955 15.2044 8.63636 15.4506 8.75C15.6969 8.86364 15.8986 9.02273 16.0558 9.22727C16.2129 9.43182 16.3105 9.67045 16.3484 9.94318H15.6779C15.6268 9.74432 15.5131 9.56818 15.337 9.41477C15.1628 9.25947 14.9279 9.18182 14.6325 9.18182C14.3711 9.18182 14.1419 9.25 13.945 9.38636C13.7499 9.52083 13.5974 9.71117 13.4876 9.95739C13.3796 10.2017 13.3256 10.4886 13.3256 10.8182C13.3256 11.1553 13.3787 11.4489 13.4847 11.6989C13.5927 11.9489 13.7442 12.143 13.9393 12.2812C14.1362 12.4195 14.3673 12.4886 14.6325 12.4886C14.8067 12.4886 14.9648 12.4583 15.1069 12.3977C15.2489 12.3371 15.3692 12.25 15.4677 12.1364C15.5662 12.0227 15.6362 11.8864 15.6779 11.7273H16.3484C16.3105 11.9848 16.2167 12.2169 16.0671 12.4233C15.9194 12.6278 15.7234 12.7907 15.479 12.9119C15.2366 13.0312 14.9544 13.0909 14.6325 13.0909Z" fill="black"/>
</svg>
