<svg width="454" height="186" viewBox="0 0 454 186" fill="none" xmlns="http://www.w3.org/2000/svg">
<rect x="1" y="1" width="452" height="184" rx="9" fill="#D7E4E8" stroke="black" stroke-width="2"/>
<rect x="60" y="20" width="18" height="18" rx="3" stroke="black" stroke-width="2"/>
<rect x="84" y="20" width="18" height="18" rx="3" stroke="black" stroke-width="2"/>
<rect x="60" y="49" width="18" height="18" rx="3" stroke="black" stroke-width="2"/>
<rect x="36" y="49" width="18" height="18" rx="3" stroke="black" stroke-width="2"/>
<rect x="12" y="49" width="18" height="18" rx="3" stroke="black" stroke-width="2"/>
<rect x="13" y="72" width="29" height="18" rx="3" stroke="black" stroke-width="2"/>
<rect x="13" y="95" width="35" height="18" rx="3" stroke="black" stroke-width="2"/>
<rect x="13" y="118" width="47" height="18" rx="3" stroke="black" stroke-width="2"/>
<rect x="84" y="49" width="18" height="18" rx="3" stroke="black" stroke-width="2"/>
<rect x="108" y="49" width="18" height="18" rx="3" stroke="black" stroke-width="2"/>
<rect x="132" y="49" width="18" height="18" rx="3" stroke="black" stroke-width="2"/>
<rect x="204" y="49" width="18" height="18" rx="3" stroke="black" stroke-width="2"/>
<rect x="180" y="49" width="18" height="18" rx="3" stroke="black" stroke-width="2"/>
<rect x="156" y="49" width="18" height="18" rx="3" stroke="black" stroke-width="2"/>
<rect x="228" y="49" width="18" height="18" rx="3" stroke="black" stroke-width="2"/>
<rect x="252" y="49" width="18" height="18" rx="3" stroke="black" stroke-width="2"/>
<rect x="276" y="49" width="18" height="18" rx="3" stroke="black" stroke-width="2"/>
<rect x="300" y="49" width="18" height="18" rx="3" stroke="black" stroke-width="2"/>
<rect x="120" y="72" width="18" height="18" rx="3" stroke="black" stroke-width="2"/>
<rect x="144" y="72" width="18" height="18" rx="3" stroke="black" stroke-width="2"/>
<rect x="216" y="72" width="18" height="18" rx="3" stroke="black" stroke-width="2"/>
<rect x="192" y="72" width="18" height="18" rx="3" stroke="black" stroke-width="2"/>
<rect x="168" y="72" width="18" height="18" rx="3" stroke="black" stroke-width="2"/>
<rect x="240" y="72" width="18" height="18" rx="3" stroke="black" stroke-width="2"/>
<rect x="264" y="72" width="18" height="18" rx="3" stroke="black" stroke-width="2"/>
<rect x="288" y="72" width="18" height="18" rx="3" stroke="black" stroke-width="2"/>
<rect x="312" y="72" width="18" height="18" rx="3" stroke="black" stroke-width="2"/>
<rect x="336" y="72" width="30" height="18" rx="3" stroke="black" stroke-width="2"/>
<rect x="126" y="95" width="18" height="18" rx="3" stroke="black" stroke-width="2"/>
<rect x="150" y="95" width="18" height="18" rx="3" stroke="black" stroke-width="2"/>
<rect x="222" y="95" width="18" height="18" rx="3" stroke="black" stroke-width="2"/>
<rect x="198" y="95" width="18" height="18" rx="3" stroke="black" stroke-width="2"/>
<rect x="174" y="95" width="18" height="18" rx="3" stroke="black" stroke-width="2"/>
<rect x="246" y="95" width="18" height="18" rx="3" stroke="black" stroke-width="2"/>
<rect x="270" y="95" width="18" height="18" rx="3" stroke="black" stroke-width="2"/>
<rect x="294" y="95" width="18" height="18" rx="3" stroke="black" stroke-width="2"/>
<rect x="318" y="95" width="48" height="18" rx="3" stroke="black" stroke-width="2"/>
<rect x="90" y="118" width="18" height="18" rx="3" stroke="black" stroke-width="2"/>
<rect x="66" y="118" width="18" height="18" rx="3" stroke="black" stroke-width="2"/>
<rect x="114" y="118" width="18" height="18" rx="3" stroke="black" stroke-width="2"/>
<rect x="138" y="118" width="18" height="18" rx="3" stroke="black" stroke-width="2"/>
<rect x="162" y="118" width="18" height="18" rx="3" stroke="black" stroke-width="2"/>
<rect x="234" y="118" width="18" height="18" rx="3" stroke="black" stroke-width="2"/>
<rect x="210" y="118" width="18" height="18" rx="3" stroke="black" stroke-width="2"/>
<rect x="186" y="118" width="18" height="18" rx="3" stroke="black" stroke-width="2"/>
<rect x="258" y="118" width="18" height="18" rx="3" stroke="black" stroke-width="2"/>
<rect x="282" y="118" width="18" height="18" rx="3" stroke="black" stroke-width="2"/>
<rect x="50" y="141" width="23" height="18" rx="3" stroke="black" stroke-width="2"/>
<rect x="79" y="141" width="23" height="18" rx="3" stroke="black" stroke-width="2"/>
<rect x="277" y="141" width="23" height="18" rx="3" stroke="black" stroke-width="2"/>
<rect x="248" y="141" width="23" height="18" rx="3" stroke="black" stroke-width="2"/>
<rect x="306" y="141" width="23" height="18" rx="3" stroke="black" stroke-width="2"/>
<rect x="13" y="141" width="31" height="18" rx="3" stroke="black" stroke-width="2"/>
<rect x="335" y="141" width="31" height="18" rx="3" stroke="black" stroke-width="2"/>
<rect x="306" y="118" width="60" height="18" rx="3" stroke="black" stroke-width="2"/>
<rect x="377" y="49" width="18" height="18" rx="3" stroke="black" stroke-width="2"/>
<rect x="401" y="49" width="18" height="18" rx="3" stroke="black" stroke-width="2"/>
<rect x="425" y="49" width="18" height="18" rx="3" stroke="black" stroke-width="2"/>
<rect x="377" y="20" width="18" height="18" rx="3" stroke="black" stroke-width="2"/>
<rect x="401" y="20" width="18" height="18" rx="3" stroke="black" stroke-width="2"/>
<rect x="425" y="20" width="18" height="18" rx="3" stroke="black" stroke-width="2"/>
<rect x="377" y="72" width="18" height="18" rx="3" stroke="black" stroke-width="2"/>
<rect x="401" y="72" width="18" height="18" rx="3" stroke="black" stroke-width="2"/>
<rect x="425" y="72" width="18" height="18" rx="3" stroke="black" stroke-width="2"/>
<rect x="324" y="49" width="42" height="18" rx="3" stroke="black" stroke-width="2"/>
<rect x="108" y="20" width="18" height="18" rx="3" stroke="black" stroke-width="2"/>
<rect x="132" y="20" width="18" height="18" rx="3" stroke="black" stroke-width="2"/>
<rect x="166" y="20" width="18" height="18" rx="3" stroke="black" stroke-width="2"/>
<rect x="190" y="20" width="18" height="18" rx="3" stroke="black" stroke-width="2"/>
<rect x="214" y="20" width="18" height="18" rx="3" stroke="black" stroke-width="2"/>
<rect x="238" y="20" width="18" height="18" rx="3" stroke="black" stroke-width="2"/>
<rect x="276" y="20" width="18" height="18" rx="3" stroke="black" stroke-width="2"/>
<rect x="300" y="20" width="18" height="18" rx="3" stroke="black" stroke-width="2"/>
<rect x="324" y="20" width="18" height="18" rx="3" stroke="black" stroke-width="2"/>
<rect x="348" y="20" width="18" height="18" rx="3" stroke="black" stroke-width="2"/>
<rect x="12" y="20" width="18" height="18" rx="3" fill="#E2F31A" stroke="black" stroke-width="2"/>
<path d="M14.9897 32V26.1818H18.5011V26.8068H15.6942V28.7727H18.3192V29.3977H15.6942V31.375H18.5465V32H14.9897ZM22.771 28.6136L22.1687 28.7841C22.1308 28.6837 22.0749 28.5862 22.0011 28.4915C21.9291 28.3949 21.8306 28.3153 21.7056 28.2528C21.5806 28.1903 21.4206 28.1591 21.2255 28.1591C20.9585 28.1591 20.7359 28.2206 20.5579 28.3438C20.3817 28.465 20.2937 28.6193 20.2937 28.8068C20.2937 28.9735 20.3543 29.1051 20.4755 29.2017C20.5967 29.2983 20.7861 29.3788 21.0437 29.4432L21.6914 29.6023C22.0816 29.697 22.3723 29.8419 22.5636 30.0369C22.7549 30.2301 22.8505 30.4792 22.8505 30.7841C22.8505 31.0341 22.7785 31.2576 22.6346 31.4545C22.4925 31.6515 22.2937 31.8068 22.038 31.9205C21.7823 32.0341 21.485 32.0909 21.146 32.0909C20.7009 32.0909 20.3325 31.9943 20.0408 31.8011C19.7492 31.608 19.5645 31.3258 19.4869 30.9545L20.1232 30.7955C20.1838 31.0303 20.2984 31.2064 20.467 31.3239C20.6374 31.4413 20.86 31.5 21.1346 31.5C21.4471 31.5 21.6952 31.4337 21.8789 31.3011C22.0645 31.1667 22.1573 31.0057 22.1573 30.8182C22.1573 30.6667 22.1043 30.5398 21.9982 30.4375C21.8922 30.3333 21.7293 30.2557 21.5096 30.2045L20.7823 30.0341C20.3827 29.9394 20.0891 29.7926 19.9016 29.5938C19.716 29.393 19.6232 29.142 19.6232 28.8409C19.6232 28.5947 19.6924 28.3769 19.8306 28.1875C19.9708 27.9981 20.1611 27.8494 20.4016 27.7415C20.6441 27.6335 20.9187 27.5795 21.2255 27.5795C21.6573 27.5795 21.9963 27.6742 22.2425 27.8636C22.4906 28.053 22.6668 28.303 22.771 28.6136ZM25.6325 32.0909C25.2234 32.0909 24.8711 31.9943 24.5756 31.8011C24.2802 31.608 24.0529 31.3419 23.8938 31.0028C23.7347 30.6638 23.6552 30.2765 23.6552 29.8409C23.6552 29.3977 23.7366 29.0066 23.8995 28.6676C24.0643 28.3267 24.2934 28.0606 24.587 27.8693C24.8825 27.6761 25.2272 27.5795 25.6211 27.5795C25.9279 27.5795 26.2044 27.6364 26.4506 27.75C26.6969 27.8636 26.8986 28.0227 27.0558 28.2273C27.2129 28.4318 27.3105 28.6705 27.3484 28.9432H26.6779C26.6268 28.7443 26.5131 28.5682 26.337 28.4148C26.1628 28.2595 25.9279 28.1818 25.6325 28.1818C25.3711 28.1818 25.1419 28.25 24.945 28.3864C24.7499 28.5208 24.5974 28.7112 24.4876 28.9574C24.3796 29.2017 24.3256 29.4886 24.3256 29.8182C24.3256 30.1553 24.3787 30.4489 24.4847 30.6989C24.5927 30.9489 24.7442 31.143 24.9393 31.2812C25.1362 31.4195 25.3673 31.4886 25.6325 31.4886C25.8067 31.4886 25.9648 31.4583 26.1069 31.3977C26.2489 31.3371 26.3692 31.25 26.4677 31.1364C26.5662 31.0227 26.6362 30.8864 26.6779 30.7273H27.3484C27.3105 30.9848 27.2167 31.2169 27.0671 31.4233C26.9194 31.6278 26.7234 31.7907 26.479 31.9119C26.2366 32.0312 25.9544 32.0909 25.6325 32.0909Z" fill="black"/>
<rect x="48" y="72" width="18" height="18" rx="3" fill="#63F81D" stroke="black" stroke-width="2"/>
<path d="M56.7713 82.1818H57.544L58.1918 83.0341L58.3622 83.2614L59.3281 84.5455H58.5554L57.919 83.6932L57.7599 83.4773L56.7713 82.1818ZM59.5668 81.0909C59.5668 81.7045 59.456 82.2348 59.2344 82.6818C59.0128 83.1288 58.7088 83.4735 58.3224 83.7159C57.9361 83.9583 57.4948 84.0795 56.9986 84.0795C56.5024 84.0795 56.0611 83.9583 55.6747 83.7159C55.2884 83.4735 54.9844 83.1288 54.7628 82.6818C54.5412 82.2348 54.4304 81.7045 54.4304 81.0909C54.4304 80.4773 54.5412 79.947 54.7628 79.5C54.9844 79.053 55.2884 78.7083 55.6747 78.4659C56.0611 78.2235 56.5024 78.1023 56.9986 78.1023C57.4948 78.1023 57.9361 78.2235 58.3224 78.4659C58.7088 78.7083 59.0128 79.053 59.2344 79.5C59.456 79.947 59.5668 80.4773 59.5668 81.0909ZM58.8849 81.0909C58.8849 80.5871 58.8007 80.1619 58.6321 79.8153C58.4654 79.4688 58.2391 79.2064 57.9531 79.0284C57.669 78.8504 57.3509 78.7614 56.9986 78.7614C56.6463 78.7614 56.3272 78.8504 56.0412 79.0284C55.7571 79.2064 55.5308 79.4688 55.3622 79.8153C55.1955 80.1619 55.1122 80.5871 55.1122 81.0909C55.1122 81.5947 55.1955 82.0199 55.3622 82.3665C55.5308 82.7131 55.7571 82.9754 56.0412 83.1534C56.3272 83.3314 56.6463 83.4205 56.9986 83.4205C57.3509 83.4205 57.669 83.3314 57.9531 83.1534C58.2391 82.9754 58.4654 82.7131 58.6321 82.3665C58.8007 82.0199 58.8849 81.5947 58.8849 81.0909Z" fill="black"/>
<rect x="72" y="72" width="18" height="18" rx="3" fill="#3284FF" stroke="black" stroke-width="2"/>
<path d="M78.9645 84L77.3736 78.1818H78.0895L79.3054 82.9205H79.3622L80.6009 78.1818H81.3963L82.6349 82.9205H82.6918L83.9077 78.1818H84.6236L83.0327 84H82.3054L81.0213 79.3636H80.9759L79.6918 84H78.9645Z" fill="black"/>
<rect x="96" y="72" width="18" height="18" rx="3" fill="#63F81D" stroke="black" stroke-width="2"/>
<path d="M103.314 84V78.1818H106.825V78.8068H104.018V80.7727H106.643V81.3977H104.018V83.375H106.871V84H103.314Z" fill="black"/>
<path d="M102 98C102 96.3431 103.343 95 105 95H117C118.657 95 120 96.3431 120 98V110C120 111.657 118.657 113 117 113H105C103.343 113 102 111.657 102 110V98Z" fill="#EA371E" stroke="black" stroke-width="2"/>
<path d="M110.625 107H108.83V101.182H110.705C111.269 101.182 111.752 101.298 112.153 101.531C112.555 101.762 112.863 102.095 113.077 102.528C113.291 102.96 113.398 103.477 113.398 104.08C113.398 104.686 113.29 105.207 113.074 105.645C112.858 106.08 112.544 106.416 112.131 106.651C111.718 106.884 111.216 107 110.625 107ZM109.534 106.375H110.58C111.061 106.375 111.459 106.282 111.776 106.097C112.092 105.911 112.328 105.647 112.483 105.304C112.638 104.961 112.716 104.553 112.716 104.08C112.716 103.61 112.639 103.205 112.486 102.866C112.332 102.526 112.103 102.264 111.798 102.082C111.493 101.899 111.114 101.807 110.659 101.807H109.534V106.375Z" fill="black"/>
<rect x="108" y="141" width="134" height="18" rx="3" fill="#E14DEE" stroke="black" stroke-width="2"/>
<path d="M167.082 148.636C167.048 148.348 166.909 148.125 166.667 147.966C166.424 147.807 166.127 147.727 165.775 147.727C165.517 147.727 165.292 147.769 165.099 147.852C164.907 147.936 164.758 148.05 164.65 148.196C164.544 148.342 164.491 148.508 164.491 148.693C164.491 148.848 164.528 148.982 164.602 149.094C164.677 149.204 164.774 149.295 164.891 149.369C165.009 149.441 165.132 149.501 165.261 149.548C165.389 149.594 165.508 149.631 165.616 149.659L166.207 149.818C166.358 149.858 166.527 149.913 166.712 149.983C166.9 150.053 167.079 150.149 167.249 150.27C167.422 150.389 167.564 150.543 167.675 150.73C167.787 150.918 167.843 151.148 167.843 151.42C167.843 151.735 167.761 152.019 167.596 152.273C167.433 152.527 167.194 152.728 166.88 152.878C166.567 153.027 166.188 153.102 165.741 153.102C165.324 153.102 164.963 153.035 164.658 152.901C164.355 152.766 164.117 152.579 163.942 152.338C163.77 152.098 163.673 151.818 163.65 151.5H164.377C164.396 151.72 164.47 151.902 164.599 152.045C164.729 152.187 164.894 152.294 165.093 152.364C165.294 152.432 165.51 152.466 165.741 152.466C166.01 152.466 166.251 152.422 166.465 152.335C166.679 152.246 166.849 152.123 166.974 151.966C167.099 151.807 167.161 151.621 167.161 151.409C167.161 151.216 167.107 151.059 166.999 150.938C166.891 150.816 166.749 150.718 166.573 150.642C166.397 150.566 166.207 150.5 166.002 150.443L165.286 150.239C164.832 150.108 164.472 149.921 164.207 149.679C163.942 149.437 163.809 149.119 163.809 148.727C163.809 148.402 163.897 148.117 164.073 147.875C164.251 147.631 164.49 147.441 164.789 147.307C165.09 147.17 165.426 147.102 165.798 147.102C166.173 147.102 166.506 147.17 166.798 147.304C167.089 147.437 167.32 147.618 167.491 147.849C167.663 148.08 167.754 148.343 167.763 148.636H167.082ZM168.911 154.636V148.636H169.558V149.33H169.638C169.687 149.254 169.755 149.157 169.842 149.04C169.931 148.92 170.058 148.814 170.223 148.722C170.39 148.627 170.615 148.58 170.899 148.58C171.267 148.58 171.59 148.671 171.871 148.855C172.151 149.039 172.37 149.299 172.527 149.636C172.684 149.973 172.763 150.371 172.763 150.83C172.763 151.292 172.684 151.692 172.527 152.031C172.37 152.368 172.152 152.63 171.874 152.815C171.595 152.999 171.274 153.091 170.911 153.091C170.63 153.091 170.406 153.045 170.237 152.952C170.069 152.857 169.939 152.75 169.848 152.631C169.757 152.509 169.687 152.409 169.638 152.33H169.581V154.636H168.911ZM169.57 150.818C169.57 151.148 169.618 151.438 169.714 151.69C169.811 151.94 169.952 152.136 170.138 152.278C170.323 152.419 170.551 152.489 170.82 152.489C171.1 152.489 171.334 152.415 171.521 152.267C171.711 152.117 171.853 151.917 171.947 151.665C172.044 151.411 172.092 151.129 172.092 150.818C172.092 150.511 172.045 150.235 171.95 149.989C171.857 149.741 171.716 149.545 171.527 149.401C171.339 149.255 171.104 149.182 170.82 149.182C170.547 149.182 170.318 149.251 170.132 149.389C169.946 149.526 169.806 149.717 169.712 149.963C169.617 150.207 169.57 150.492 169.57 150.818ZM175.07 153.102C174.793 153.102 174.542 153.05 174.317 152.946C174.091 152.84 173.912 152.688 173.78 152.489C173.647 152.288 173.581 152.045 173.581 151.761C173.581 151.511 173.63 151.309 173.729 151.153C173.827 150.996 173.959 150.873 174.124 150.784C174.288 150.695 174.47 150.629 174.669 150.585C174.87 150.54 175.071 150.504 175.274 150.477C175.539 150.443 175.754 150.418 175.919 150.401C176.086 150.382 176.207 150.35 176.283 150.307C176.36 150.263 176.399 150.187 176.399 150.08V150.057C176.399 149.777 176.322 149.559 176.169 149.403C176.018 149.248 175.787 149.17 175.479 149.17C175.159 149.17 174.908 149.241 174.726 149.381C174.544 149.521 174.416 149.67 174.342 149.83L173.706 149.602C173.82 149.337 173.971 149.131 174.161 148.983C174.352 148.833 174.56 148.729 174.786 148.67C175.013 148.61 175.236 148.58 175.456 148.58C175.596 148.58 175.757 148.597 175.939 148.631C176.123 148.663 176.3 148.73 176.47 148.832C176.643 148.935 176.786 149.089 176.899 149.295C177.013 149.502 177.07 149.778 177.07 150.125V153H176.399V152.409H176.365C176.32 152.504 176.244 152.605 176.138 152.713C176.032 152.821 175.891 152.913 175.714 152.989C175.538 153.064 175.323 153.102 175.07 153.102ZM175.172 152.5C175.437 152.5 175.661 152.448 175.842 152.344C176.026 152.24 176.164 152.105 176.257 151.94C176.352 151.776 176.399 151.602 176.399 151.42V150.807C176.371 150.841 176.308 150.872 176.212 150.901C176.117 150.927 176.007 150.951 175.882 150.972C175.759 150.991 175.639 151.008 175.521 151.023C175.406 151.036 175.312 151.047 175.24 151.057C175.066 151.08 174.903 151.116 174.751 151.168C174.602 151.217 174.481 151.292 174.388 151.392C174.297 151.491 174.251 151.625 174.251 151.795C174.251 152.028 174.338 152.205 174.51 152.324C174.684 152.441 174.905 152.5 175.172 152.5ZM180.066 153.091C179.657 153.091 179.305 152.994 179.009 152.801C178.714 152.608 178.487 152.342 178.327 152.003C178.168 151.664 178.089 151.277 178.089 150.841C178.089 150.398 178.17 150.007 178.333 149.668C178.498 149.327 178.727 149.061 179.021 148.869C179.316 148.676 179.661 148.58 180.055 148.58C180.362 148.58 180.638 148.636 180.884 148.75C181.13 148.864 181.332 149.023 181.489 149.227C181.647 149.432 181.744 149.67 181.782 149.943H181.112C181.06 149.744 180.947 149.568 180.771 149.415C180.596 149.259 180.362 149.182 180.066 149.182C179.805 149.182 179.576 149.25 179.379 149.386C179.183 149.521 179.031 149.711 178.921 149.957C178.813 150.202 178.759 150.489 178.759 150.818C178.759 151.155 178.812 151.449 178.918 151.699C179.026 151.949 179.178 152.143 179.373 152.281C179.57 152.42 179.801 152.489 180.066 152.489C180.24 152.489 180.398 152.458 180.54 152.398C180.683 152.337 180.803 152.25 180.901 152.136C181 152.023 181.07 151.886 181.112 151.727H181.782C181.744 151.985 181.65 152.217 181.501 152.423C181.353 152.628 181.157 152.791 180.913 152.912C180.67 153.031 180.388 153.091 180.066 153.091ZM184.592 153.091C184.171 153.091 183.808 152.998 183.504 152.812C183.201 152.625 182.967 152.364 182.802 152.028C182.639 151.691 182.558 151.299 182.558 150.852C182.558 150.405 182.639 150.011 182.802 149.67C182.967 149.328 183.196 149.061 183.489 148.869C183.785 148.676 184.129 148.58 184.523 148.58C184.751 148.58 184.975 148.617 185.197 148.693C185.418 148.769 185.62 148.892 185.802 149.062C185.984 149.231 186.129 149.455 186.237 149.733C186.344 150.011 186.398 150.354 186.398 150.761V151.045H183.035V150.466H185.717C185.717 150.22 185.667 150 185.569 149.807C185.472 149.614 185.334 149.461 185.154 149.349C184.976 149.238 184.766 149.182 184.523 149.182C184.256 149.182 184.025 149.248 183.83 149.381C183.637 149.511 183.488 149.682 183.384 149.892C183.28 150.102 183.228 150.328 183.228 150.568V150.955C183.228 151.284 183.285 151.563 183.398 151.793C183.514 152.02 183.674 152.193 183.879 152.312C184.083 152.43 184.321 152.489 184.592 152.489C184.768 152.489 184.927 152.464 185.069 152.415C185.213 152.364 185.337 152.288 185.441 152.188C185.545 152.085 185.626 151.958 185.683 151.807L186.33 151.989C186.262 152.208 186.147 152.402 185.987 152.568C185.826 152.733 185.627 152.862 185.39 152.955C185.153 153.045 184.887 153.091 184.592 153.091Z" fill="black"/>
<rect x="78" y="95" width="18" height="18" rx="3" fill="#3284FF" stroke="black" stroke-width="2"/>
<path d="M88.3356 102.636C88.3015 102.348 88.1632 102.125 87.9208 101.966C87.6784 101.807 87.381 101.727 87.0288 101.727C86.7712 101.727 86.5458 101.769 86.3526 101.852C86.1613 101.936 86.0117 102.05 85.9038 102.196C85.7977 102.342 85.7447 102.508 85.7447 102.693C85.7447 102.848 85.7816 102.982 85.8555 103.094C85.9312 103.204 86.0278 103.295 86.1452 103.369C86.2627 103.441 86.3858 103.501 86.5146 103.548C86.6433 103.594 86.7617 103.631 86.8697 103.659L87.4606 103.818C87.6121 103.858 87.7807 103.913 87.9663 103.983C88.1538 104.053 88.3327 104.149 88.5032 104.27C88.6755 104.389 88.8176 104.543 88.9293 104.73C89.0411 104.918 89.0969 105.148 89.0969 105.42C89.0969 105.735 89.0146 106.019 88.8498 106.273C88.6869 106.527 88.4483 106.728 88.1339 106.878C87.8214 107.027 87.4416 107.102 86.9947 107.102C86.578 107.102 86.2172 107.035 85.9123 106.901C85.6093 106.766 85.3706 106.579 85.1964 106.338C85.024 106.098 84.9265 105.818 84.9038 105.5H85.631C85.65 105.72 85.7238 105.902 85.8526 106.045C85.9833 106.187 86.1481 106.294 86.3469 106.364C86.5477 106.432 86.7636 106.466 86.9947 106.466C87.2636 106.466 87.5051 106.422 87.7191 106.335C87.9331 106.246 88.1026 106.123 88.2276 105.966C88.3526 105.807 88.4151 105.621 88.4151 105.409C88.4151 105.216 88.3612 105.059 88.2532 104.938C88.1452 104.816 88.0032 104.718 87.8271 104.642C87.6509 104.566 87.4606 104.5 87.256 104.443L86.5401 104.239C86.0856 104.108 85.7257 103.921 85.4606 103.679C85.1954 103.437 85.0629 103.119 85.0629 102.727C85.0629 102.402 85.1509 102.117 85.3271 101.875C85.5051 101.631 85.7437 101.441 86.043 101.307C86.3441 101.17 86.6803 101.102 87.0515 101.102C87.4265 101.102 87.7598 101.17 88.0515 101.304C88.3432 101.437 88.5742 101.618 88.7447 101.849C88.917 102.08 89.0079 102.343 89.0174 102.636H88.3356Z" fill="black"/>
<rect x="54" y="95" width="18" height="18" rx="3" fill="#EA371E" stroke="black" stroke-width="2"/>
<path d="M61.2401 107H60.5014L62.6378 101.182H63.3651L65.5014 107H64.7628L63.0241 102.102H62.9787L61.2401 107ZM61.5128 104.727H64.4901V105.352H61.5128V104.727Z" fill="black"/>
<rect x="425" y="141" width="18" height="18" rx="3" fill="#45E0F5" stroke="black" stroke-width="2"/>
<path d="M440.354 150.354C440.549 150.158 440.549 149.842 440.354 149.646L437.172 146.464C436.976 146.269 436.66 146.269 436.464 146.464C436.269 146.66 436.269 146.976 436.464 147.172L439.293 150L436.464 152.828C436.269 153.024 436.269 153.34 436.464 153.536C436.66 153.731 436.976 153.731 437.172 153.536L440.354 150.354ZM428 150.5L440 150.5L440 149.5L428 149.5L428 150.5Z" fill="black"/>
<rect x="401" y="141" width="18" height="18" rx="3" fill="#45E0F5" stroke="black" stroke-width="2"/>
<path d="M409.646 156.354C409.842 156.549 410.158 156.549 410.354 156.354L413.536 153.172C413.731 152.976 413.731 152.66 413.536 152.464C413.34 152.269 413.024 152.269 412.828 152.464L410 155.293L407.172 152.464C406.976 152.269 406.66 152.269 406.464 152.464C406.269 152.66 406.269 152.976 406.464 153.172L409.646 156.354ZM409.5 144V156H410.5V144H409.5Z" fill="black"/>
<rect x="377" y="141" width="18" height="18" rx="3" fill="#45E0F5" stroke="black" stroke-width="2"/>
<path d="M379.646 149.646C379.451 149.842 379.451 150.158 379.646 150.354L382.828 153.536C383.024 153.731 383.34 153.731 383.536 153.536C383.731 153.34 383.731 153.024 383.536 152.828L380.707 150L383.536 147.172C383.731 146.976 383.731 146.66 383.536 146.464C383.34 146.269 383.024 146.269 382.828 146.464L379.646 149.646ZM392 149.5L380 149.5L380 150.5L392 150.5L392 149.5Z" fill="black"/>
<rect x="401" y="118" width="18" height="18" rx="3" fill="#45E0F5" stroke="black" stroke-width="2"/>
<path d="M410.354 120.646C410.158 120.451 409.842 120.451 409.646 120.646L406.464 123.828C406.269 124.024 406.269 124.34 406.464 124.536C406.66 124.731 406.976 124.731 407.172 124.536L410 121.707L412.828 124.536C413.024 124.731 413.34 124.731 413.536 124.536C413.731 124.34 413.731 124.024 413.536 123.828L410.354 120.646ZM410.5 133L410.5 121L409.5 121L409.5 133L410.5 133Z" fill="black"/>
</svg>
