<svg width="35" height="14" viewBox="0 0 35 14" fill="none" xmlns="http://www.w3.org/2000/svg">
<rect x="1" y="1" width="33" height="12" rx="6" fill="#63F81D" stroke="black" stroke-width="2"/>
<path d="M13.0294 10.9961V3.72337H13.91V10.2148H17.2907V10.9961H13.0294ZM18.6544 10.9961V3.72337H21.197C21.7036 3.72337 22.1215 3.81096 22.4505 3.98615C22.7796 4.15897 23.0246 4.39216 23.1856 4.68572C23.3466 4.97692 23.4271 5.30007 23.4271 5.65518C23.4271 5.96768 23.3715 6.22573 23.2602 6.42933C23.1513 6.63293 23.0069 6.79392 22.8269 6.91229C22.6494 7.03066 22.4564 7.11825 22.2481 7.17507V7.24609C22.4707 7.2603 22.6944 7.33842 22.9193 7.48047C23.1442 7.62251 23.3324 7.82611 23.4839 8.09126C23.6354 8.35642 23.7112 8.68075 23.7112 9.06428C23.7112 9.42886 23.6283 9.75675 23.4626 10.0479C23.2969 10.3391 23.0353 10.57 22.6778 10.7404C22.3203 10.9109 21.8551 10.9961 21.2822 10.9961H18.6544ZM19.535 10.2148H21.2822C21.8575 10.2148 22.2659 10.1036 22.5073 9.88104C22.7512 9.65613 22.8731 9.38388 22.8731 9.06428C22.8731 8.81806 22.8104 8.59079 22.6849 8.38246C22.5594 8.17176 22.3807 8.00367 22.1487 7.8782C21.9167 7.75036 21.6421 7.68643 21.3248 7.68643H19.535V10.2148ZM19.535 6.91939H21.1686C21.4337 6.91939 21.6728 6.86731 21.8859 6.76314C22.1013 6.65897 22.2718 6.51219 22.3973 6.3228C22.5251 6.1334 22.589 5.91087 22.589 5.65518C22.589 5.33558 22.4778 5.06451 22.2552 4.84197C22.0327 4.61707 21.6799 4.50462 21.197 4.50462H19.535V6.91939Z" fill="black"/>
</svg>
