<svg width="28" height="334" viewBox="0 0 28 334" fill="none" xmlns="http://www.w3.org/2000/svg">
<rect width="27.8333" height="28" transform="translate(0 334) rotate(-90)" fill="#6D37A4"/>
<rect width="27.8333" height="28" transform="translate(0 306.167) rotate(-90)" fill="#4B26DC"/>
<rect width="27.8333" height="28" transform="translate(0 278.333) rotate(-90)" fill="#0812F4"/>
<rect width="27.8333" height="28" transform="translate(0 250.5) rotate(-90)" fill="#3C81C0"/>
<rect width="27.8333" height="28" transform="translate(0 222.667) rotate(-90)" fill="#1AAFDE"/>
<rect width="27.8333" height="28" transform="translate(0 194.833) rotate(-90)" fill="#15E0D4"/>
<rect width="27.8333" height="28" transform="translate(0 111.333) rotate(-90)" fill="#5FCE2A"/>
<rect width="27.8333" height="28" transform="translate(0 139.167) rotate(-90)" fill="#97E618"/>
<rect width="27.8333" height="28" transform="translate(0 167) rotate(-90)" fill="#CCFF00"/>
<rect width="27.8333" height="28" transform="translate(0 83.5) rotate(-90)" fill="#F2880B"/>
<rect width="27.8333" height="28" transform="translate(0 55.667) rotate(-90)" fill="#FF5C00"/>
<rect width="27.8333" height="28" transform="translate(0 27.833) rotate(-90)" fill="#F50707"/>
</svg>
