<svg width="336" height="336" viewBox="0 0 336 336" fill="none" xmlns="http://www.w3.org/2000/svg">
<path d="M86 86H250V250H86V86Z" fill="url(#paint0_radial_260_680)"/>
<path d="M78 78H258V258H77.5L78 78Z" fill="url(#paint1_radial_260_680)"/>
<path d="M1 1.00052H335V335.001H1V1.00052Z" fill="url(#paint2_radial_260_680)"/>
<path d="M69.3906 69.391H265.55V265.55H69.3906V69.391Z" fill="url(#paint3_radial_260_680)"/>
<path d="M57.7271 57.7275H277.213V277.213H57.7271V57.7275Z" fill="url(#paint4_radial_260_680)"/>
<path d="M43.4128 43.4131H291.527V291.528H43.4128V43.4131Z" fill="url(#paint5_radial_260_680)"/>
<path d="M24.327 24.3274H310.613V310.614H24.327V24.3274Z" fill="url(#paint6_radial_260_680)"/>
<path d="M69.3906 69.391L86 86M69.3906 69.391H265.55M69.3906 69.391V265.55M69.3906 69.391L1 1.00052M86 86H250M86 86V250M265.55 69.391L250 86M265.55 69.391V265.55M265.55 69.391L335 1.00052M250 86V250M265.55 265.55L250 250M265.55 265.55H69.3906M265.55 265.55L335 335.001M250 250H86M69.3906 265.55L1 335.001M69.3906 265.55L77.5 258M86 250L77.5 258M77.5 258H258V78H78L77.5 258ZM1 1.00052H335M1 1.00052V335.001M335 1.00052V335.001M335 335.001H1M1 67.8001L69.3906 111L86 121H250L265.55 111L335 67.8001M1 134.6L69.3906 149.5L86 153H250L265.55 149.5L335 134.6M1 201.4L69.3906 187.086L86 184H250L265.55 187.086L335 201.4M1 268.2L69.3906 226.318L86 216H250L265.55 226.318L335 268.2M68.3303 1.00052L109.683 69.391L121 86V250L111 265.55L67.8001 335M134.6 1.00052L148.915 69.391L153 86V250L149.5 265.55L134.6 335.001M201.4 1L187.086 69.391L184 86V250L187.086 265.55L201.4 335M268.2 1L227 69.391L216 86V250L226 265.55L268.731 335.001M57.7271 57.7275H277.213V277.213H57.7271V57.7275ZM43.4128 43.4131H291.527V291.528H43.4128V43.4131ZM24.327 24.3274H310.613V310.614H24.327V24.3274Z" stroke="#441A00" stroke-width="2"/>
<path d="M115.127 220.324V256L119 250.5V220.324H115.127Z" fill="#6C33A3"/>
<path d="M150.399 220.324V256H256V80H79V256H115.127V220.324H119H150.399Z" fill="#6C33A3"/>
<path d="M115.127 256V220.324H119M115.127 256L119 250.5V220.324M115.127 256H79V80H256V256H150.399V220.324H119" stroke="#9B69CC" stroke-width="2"/>
<path d="M83.1744 309.553L83.1744 252.736L94.3078 241.162L144.143 241.162V290.614L139.902 309.553H83.1744Z" fill="#9BA911"/>
<path d="M83.1744 252.736L83.1744 309.553H139.901M83.1744 252.736H139.901M83.1744 252.736L94.3078 241.162L144.143 241.162M139.901 309.553L139.901 252.736M139.901 309.553L144.143 290.614V241.162M139.901 252.736L144.143 241.162" stroke="#C9D64F" stroke-width="2"/>
<path d="M68.0649 267.14L82.9094 252.561H140.167L134.029 267.67L68.0649 267.14Z" fill="url(#paint7_linear_260_680)"/>
<path d="M67.7998 335L82.6443 310.083H140.316L134.6 335H67.7998Z" fill="url(#paint8_linear_260_680)"/>
<path d="M82.6443 252.561L68.0649 267.239L67.7998 335L82.6443 310.083L82.6443 252.561Z" fill="url(#paint9_linear_260_680)"/>
<path d="M140.167 252.561L134.07 267.405L134.6 335L140.167 310.083L140.167 252.561Z" fill="url(#paint10_linear_260_680)"/>
<defs>
<radialGradient id="paint0_radial_260_680" cx="0" cy="0" r="1" gradientUnits="userSpaceOnUse" gradientTransform="translate(168 168) rotate(90) scale(167 167)">
<stop stop-color="#5A2804"/>
<stop offset="1" stop-color="#773201" stop-opacity="0.81"/>
</radialGradient>
<radialGradient id="paint1_radial_260_680" cx="0" cy="0" r="1" gradientUnits="userSpaceOnUse" gradientTransform="translate(168 168) rotate(90) scale(167 167)">
<stop stop-color="#5A2804"/>
<stop offset="1" stop-color="#773201" stop-opacity="0.81"/>
</radialGradient>
<radialGradient id="paint2_radial_260_680" cx="0" cy="0" r="1" gradientUnits="userSpaceOnUse" gradientTransform="translate(168 168) rotate(90) scale(167 167)">
<stop stop-color="#5A2804"/>
<stop offset="1" stop-color="#773201" stop-opacity="0.81"/>
</radialGradient>
<radialGradient id="paint3_radial_260_680" cx="0" cy="0" r="1" gradientUnits="userSpaceOnUse" gradientTransform="translate(168 168) rotate(90) scale(167 167)">
<stop stop-color="#5A2804"/>
<stop offset="1" stop-color="#773201" stop-opacity="0.81"/>
</radialGradient>
<radialGradient id="paint4_radial_260_680" cx="0" cy="0" r="1" gradientUnits="userSpaceOnUse" gradientTransform="translate(168 168) rotate(90) scale(167 167)">
<stop stop-color="#5A2804"/>
<stop offset="1" stop-color="#773201" stop-opacity="0.81"/>
</radialGradient>
<radialGradient id="paint5_radial_260_680" cx="0" cy="0" r="1" gradientUnits="userSpaceOnUse" gradientTransform="translate(168 168) rotate(90) scale(167 167)">
<stop stop-color="#5A2804"/>
<stop offset="1" stop-color="#773201" stop-opacity="0.81"/>
</radialGradient>
<radialGradient id="paint6_radial_260_680" cx="0" cy="0" r="1" gradientUnits="userSpaceOnUse" gradientTransform="translate(168 168) rotate(90) scale(167 167)">
<stop stop-color="#5A2804"/>
<stop offset="1" stop-color="#773201" stop-opacity="0.81"/>
</radialGradient>
<linearGradient id="paint7_linear_260_680" x1="105.706" y1="252.826" x2="105.495" y2="267.67" gradientUnits="userSpaceOnUse">
<stop stop-color="#C9D64F" stop-opacity="0.5"/>
<stop offset="1" stop-color="white" stop-opacity="0"/>
</linearGradient>
<linearGradient id="paint8_linear_260_680" x1="105.494" y1="310.083" x2="105.494" y2="335.001" gradientUnits="userSpaceOnUse">
<stop stop-color="#C9D64F" stop-opacity="0.5"/>
<stop offset="1" stop-color="white" stop-opacity="0"/>
</linearGradient>
<linearGradient id="paint9_linear_260_680" x1="67.7998" y1="298.949" x2="82.6443" y2="298.95" gradientUnits="userSpaceOnUse">
<stop stop-color="white" stop-opacity="0"/>
<stop offset="1" stop-color="#C9D64F" stop-opacity="0.5"/>
</linearGradient>
<linearGradient id="paint10_linear_260_680" x1="134.07" y1="299.003" x2="140.432" y2="299.003" gradientUnits="userSpaceOnUse">
<stop stop-color="white" stop-opacity="0"/>
<stop offset="1" stop-color="#C9D64F" stop-opacity="0.5"/>
</linearGradient>
</defs>
</svg>
