<svg width="20" height="20" viewBox="0 0 20 20" fill="none" xmlns="http://www.w3.org/2000/svg">
<rect x="1" y="1" width="18" height="18" rx="3" fill="#63F81D" stroke="black" stroke-width="2"/>
<path d="M9.77131 11.1818H10.544L11.1918 12.0341L11.3622 12.2614L12.3281 13.5455H11.5554L10.919 12.6932L10.7599 12.4773L9.77131 11.1818ZM12.5668 10.0909C12.5668 10.7045 12.456 11.2348 12.2344 11.6818C12.0128 12.1288 11.7088 12.4735 11.3224 12.7159C10.9361 12.9583 10.4948 13.0795 9.99858 13.0795C9.50237 13.0795 9.06108 12.9583 8.67472 12.7159C8.28835 12.4735 7.98438 12.1288 7.76278 11.6818C7.54119 11.2348 7.4304 10.7045 7.4304 10.0909C7.4304 9.47727 7.54119 8.94697 7.76278 8.5C7.98438 8.05303 8.28835 7.70833 8.67472 7.46591C9.06108 7.22348 9.50237 7.10227 9.99858 7.10227C10.4948 7.10227 10.9361 7.22348 11.3224 7.46591C11.7088 7.70833 12.0128 8.05303 12.2344 8.5C12.456 8.94697 12.5668 9.47727 12.5668 10.0909ZM11.8849 10.0909C11.8849 9.58712 11.8007 9.16193 11.6321 8.81534C11.4654 8.46875 11.2391 8.20644 10.9531 8.02841C10.669 7.85038 10.3509 7.76136 9.99858 7.76136C9.64631 7.76136 9.32718 7.85038 9.04119 8.02841C8.7571 8.20644 8.53078 8.46875 8.36222 8.81534C8.19555 9.16193 8.11222 9.58712 8.11222 10.0909C8.11222 10.5947 8.19555 11.0199 8.36222 11.3665C8.53078 11.7131 8.7571 11.9754 9.04119 12.1534C9.32718 12.3314 9.64631 12.4205 9.99858 12.4205C10.3509 12.4205 10.669 12.3314 10.9531 12.1534C11.2391 11.9754 11.4654 11.7131 11.6321 11.3665C11.8007 11.0199 11.8849 10.5947 11.8849 10.0909Z" fill="black"/>
</svg>
