<svg width="35" height="14" viewBox="0 0 35 14" fill="none" xmlns="http://www.w3.org/2000/svg">
<rect x="1" y="1" width="33" height="12" rx="6" fill="#63F81D" stroke="black" stroke-width="2"/>
<path d="M12.6436 10.9961V3.72337H15.101C15.6692 3.72337 16.1356 3.82043 16.5002 4.01456C16.8647 4.20632 17.1346 4.47029 17.3098 4.80646C17.485 5.14264 17.5726 5.52498 17.5726 5.95348C17.5726 6.38198 17.485 6.76196 17.3098 7.09339C17.1346 7.42483 16.8659 7.68525 16.5037 7.87464C16.1415 8.06167 15.6787 8.15518 15.1152 8.15518H13.1266V7.35973H15.0868C15.4751 7.35973 15.7876 7.30291 16.0243 7.18928C16.2634 7.07564 16.4362 6.91465 16.5428 6.70632C16.6517 6.49562 16.7061 6.24467 16.7061 5.95348C16.7061 5.66229 16.6517 5.40779 16.5428 5.18999C16.4339 4.97218 16.2599 4.8041 16.0208 4.68572C15.7816 4.56499 15.4656 4.50462 15.0726 4.50462H13.5243V10.9961H12.6436ZM16.0669 7.72905L17.8567 10.9961H16.834L15.0726 7.72905H16.0669ZM19.0401 10.9961V3.72337H21.5827C22.0893 3.72337 22.5072 3.81096 22.8363 3.98615C23.1653 4.15897 23.4104 4.39216 23.5714 4.68572C23.7323 4.97692 23.8128 5.30007 23.8128 5.65518C23.8128 5.96768 23.7572 6.22573 23.6459 6.42933C23.537 6.63293 23.3926 6.79392 23.2127 6.91229C23.0351 7.03066 22.8422 7.11825 22.6339 7.17507V7.24609C22.8564 7.2603 23.0801 7.33842 23.305 7.48047C23.5299 7.62251 23.7181 7.82611 23.8697 8.09126C24.0212 8.35642 24.0969 8.68075 24.0969 9.06428C24.0969 9.42886 24.0141 9.75675 23.8483 10.0479C23.6826 10.3391 23.421 10.57 23.0635 10.7404C22.7061 10.9109 22.2409 10.9961 21.6679 10.9961H19.0401ZM19.9208 10.2148H21.6679C22.2432 10.2148 22.6516 10.1036 22.8931 9.88104C23.1369 9.65613 23.2589 9.38388 23.2589 9.06428C23.2589 8.81806 23.1961 8.59079 23.0706 8.38246C22.9452 8.17176 22.7664 8.00367 22.5344 7.8782C22.3024 7.75036 22.0278 7.68643 21.7106 7.68643H19.9208V10.2148ZM19.9208 6.91939H21.5543C21.8195 6.91939 22.0586 6.86731 22.2716 6.76314C22.4871 6.65897 22.6575 6.51219 22.783 6.3228C22.9108 6.1334 22.9748 5.91087 22.9748 5.65518C22.9748 5.33558 22.8635 5.06451 22.641 4.84197C22.4184 4.61707 22.0657 4.50462 21.5827 4.50462H19.9208V6.91939Z" fill="black"/>
</svg>
