<svg width="15" height="20" viewBox="0 0 15 20" fill="none" xmlns="http://www.w3.org/2000/svg">
<path d="M7.31494 1C10.6287 1 13.3149 3.68629 13.3149 7L13.3149 13C13.3149 16.3137 10.6286 19 7.31494 19C4.00123 19 1.31494 16.3137 1.31494 13L1.31494 7C1.31494 3.68629 4.00123 1 7.31494 1Z" fill="#E14DEE" stroke="black" stroke-width="2"/>
<path d="M10.3374 14.4165L4.51922 14.4165L4.51922 12.4506C4.51922 11.9961 4.59687 11.623 4.75217 11.3313C4.90558 11.0397 5.11676 10.8237 5.3857 10.6836C5.65464 10.5434 5.96051 10.4734 6.30331 10.4734C6.64611 10.4734 6.95009 10.5434 7.21524 10.6836C7.48039 10.8237 7.68873 11.0387 7.84024 11.3285C7.98986 11.6183 8.06467 11.9885 8.06467 12.4393L8.06467 14.0302L7.42831 14.0302L7.42831 12.462C7.42831 12.1514 7.38286 11.9014 7.29195 11.712C7.20104 11.5207 7.07225 11.3825 6.90558 11.2972C6.73702 11.2101 6.53627 11.1665 6.30331 11.1665C6.07036 11.1665 5.86676 11.2101 5.69252 11.2972C5.51827 11.3844 5.3838 11.5236 5.28911 11.7148C5.19252 11.9061 5.14422 12.159 5.14422 12.4734L5.14422 13.712L10.3374 13.712L10.3374 14.4165ZM7.72377 11.6779L10.3374 10.2461L10.3374 11.0643L7.72377 12.4734L7.72377 11.6779ZM5.14422 9.61754L4.51922 9.61754L4.51922 5.25391L5.14422 5.25391L5.14422 7.08345L10.3374 7.08345L10.3374 7.788L5.14422 7.788L5.14422 9.61754Z" fill="black"/>
</svg>
