<svg width="20" height="20" viewBox="0 0 20 20" fill="none" xmlns="http://www.w3.org/2000/svg">
<rect x="1" y="1" width="18" height="18" rx="3" fill="#3284FF" stroke="black" stroke-width="2"/>
<path d="M11.3356 8.63636C11.3015 8.34848 11.1632 8.125 10.9208 7.96591C10.6784 7.80682 10.381 7.72727 10.0288 7.72727C9.77119 7.72727 9.54581 7.76894 9.35263 7.85227C9.16134 7.93561 9.01172 8.05019 8.90376 8.19602C8.7977 8.34186 8.74467 8.50758 8.74467 8.69318C8.74467 8.84848 8.78161 8.98201 8.85547 9.09375C8.93123 9.2036 9.02782 9.29545 9.14524 9.36932C9.26267 9.44129 9.38577 9.50095 9.51456 9.5483C9.64335 9.59375 9.76172 9.63068 9.86967 9.65909L10.4606 9.81818C10.6121 9.85795 10.7807 9.91288 10.9663 9.98295C11.1538 10.053 11.3327 10.1487 11.5032 10.2699C11.6755 10.3892 11.8176 10.5426 11.9293 10.7301C12.0411 10.9176 12.0969 11.1477 12.0969 11.4205C12.0969 11.7348 12.0146 12.0189 11.8498 12.2727C11.6869 12.5265 11.4483 12.7282 11.1339 12.8778C10.8214 13.0275 10.4416 13.1023 9.99467 13.1023C9.57801 13.1023 9.21721 13.035 8.91229 12.9006C8.60926 12.7661 8.37062 12.5786 8.19638 12.3381C8.02403 12.0975 7.92649 11.8182 7.90376 11.5H8.63104C8.64998 11.7197 8.72384 11.9015 8.85263 12.0455C8.98331 12.1875 9.14808 12.2936 9.34695 12.3636C9.5477 12.4318 9.76361 12.4659 9.99467 12.4659C10.2636 12.4659 10.5051 12.4223 10.7191 12.3352C10.9331 12.2462 11.1026 12.1231 11.2276 11.9659C11.3526 11.8068 11.4151 11.6212 11.4151 11.4091C11.4151 11.2159 11.3612 11.0587 11.2532 10.9375C11.1452 10.8163 11.0032 10.7178 10.8271 10.642C10.6509 10.5663 10.4606 10.5 10.256 10.4432L9.54013 10.2386C9.08558 10.108 8.72573 9.9214 8.46058 9.67898C8.19543 9.43655 8.06286 9.11932 8.06286 8.72727C8.06286 8.40151 8.15092 8.11742 8.32706 7.875C8.50509 7.63068 8.74373 7.44129 9.04297 7.30682C9.34411 7.17045 9.68028 7.10227 10.0515 7.10227C10.4265 7.10227 10.7598 7.16951 11.0515 7.30398C11.3432 7.43655 11.5742 7.61837 11.7447 7.84943C11.917 8.08049 12.0079 8.3428 12.0174 8.63636H11.3356Z" fill="black"/>
</svg>
