<svg width="43" height="20" viewBox="0 0 43 20" fill="none" xmlns="http://www.w3.org/2000/svg">
<rect x="1" y="1" width="41" height="18" rx="3" fill="#E14DEE" stroke="black" stroke-width="2"/>
<path d="M13.0817 8.63636C13.0476 8.34848 12.9093 8.125 12.6669 7.96591C12.4245 7.80682 12.1271 7.72727 11.7749 7.72727C11.5173 7.72727 11.2919 7.76894 11.0987 7.85227C10.9074 7.93561 10.7578 8.05019 10.6499 8.19602C10.5438 8.34186 10.4908 8.50758 10.4908 8.69318C10.4908 8.84848 10.5277 8.98201 10.6016 9.09375C10.6773 9.2036 10.7739 9.29545 10.8913 9.36932C11.0088 9.44129 11.1319 9.50095 11.2607 9.5483C11.3894 9.59375 11.5078 9.63068 11.6158 9.65909L12.2067 9.81818C12.3582 9.85795 12.5268 9.91288 12.7124 9.98295C12.8999 10.053 13.0788 10.1487 13.2493 10.2699C13.4216 10.3892 13.5637 10.5426 13.6754 10.7301C13.7872 10.9176 13.843 11.1477 13.843 11.4205C13.843 11.7348 13.7607 12.0189 13.5959 12.2727C13.433 12.5265 13.1944 12.7282 12.88 12.8778C12.5675 13.0275 12.1877 13.1023 11.7408 13.1023C11.3241 13.1023 10.9633 13.035 10.6584 12.9006C10.3554 12.7661 10.1167 12.5786 9.94247 12.3381C9.77012 12.0975 9.67259 11.8182 9.64986 11.5H10.3771C10.3961 11.7197 10.4699 11.9015 10.5987 12.0455C10.7294 12.1875 10.8942 12.2936 11.093 12.3636C11.2938 12.4318 11.5097 12.4659 11.7408 12.4659C12.0097 12.4659 12.2512 12.4223 12.4652 12.3352C12.6792 12.2462 12.8487 12.1231 12.9737 11.9659C13.0987 11.8068 13.1612 11.6212 13.1612 11.4091C13.1612 11.2159 13.1072 11.0587 12.9993 10.9375C12.8913 10.8163 12.7493 10.7178 12.5732 10.642C12.397 10.5663 12.2067 10.5 12.0021 10.4432L11.2862 10.2386C10.8317 10.108 10.4718 9.9214 10.2067 9.67898C9.94152 9.43655 9.80895 9.11932 9.80895 8.72727C9.80895 8.40151 9.89702 8.11742 10.0732 7.875C10.2512 7.63068 10.4898 7.44129 10.7891 7.30682C11.0902 7.17045 11.4264 7.10227 11.7976 7.10227C12.1726 7.10227 12.5059 7.16951 12.7976 7.30398C13.0893 7.43655 13.3203 7.61837 13.4908 7.84943C13.6631 8.08049 13.754 8.3428 13.7635 8.63636H13.0817ZM14.9105 14.6364V8.63636H15.5582V9.32955H15.6378C15.687 9.25379 15.7552 9.1572 15.8423 9.03977C15.9313 8.92045 16.0582 8.81439 16.223 8.72159C16.3897 8.62689 16.6151 8.57955 16.8991 8.57955C17.2666 8.57955 17.5904 8.6714 17.8707 8.85511C18.151 9.03883 18.3698 9.29924 18.527 9.63636C18.6842 9.97348 18.7628 10.3712 18.7628 10.8295C18.7628 11.2917 18.6842 11.6922 18.527 12.0312C18.3698 12.3684 18.152 12.6297 17.8736 12.8153C17.5952 12.9991 17.2741 13.0909 16.9105 13.0909C16.6302 13.0909 16.4058 13.0445 16.2372 12.9517C16.0687 12.857 15.9389 12.75 15.848 12.6307C15.7571 12.5095 15.687 12.4091 15.6378 12.3295H15.581V14.6364H14.9105ZM15.5696 10.8182C15.5696 11.1477 15.6179 11.4384 15.7145 11.6903C15.8111 11.9403 15.9522 12.1364 16.1378 12.2784C16.3234 12.4186 16.5507 12.4886 16.8196 12.4886C17.0999 12.4886 17.3338 12.4148 17.5213 12.267C17.7107 12.1174 17.8527 11.9167 17.9474 11.6648C18.044 11.411 18.0923 11.1288 18.0923 10.8182C18.0923 10.5114 18.045 10.2348 17.9503 9.98864C17.8575 9.74053 17.7164 9.54451 17.527 9.40057C17.3395 9.25473 17.1037 9.18182 16.8196 9.18182C16.5469 9.18182 16.3177 9.25095 16.1321 9.3892C15.9465 9.52557 15.8063 9.71686 15.7116 9.96307C15.617 10.2074 15.5696 10.4924 15.5696 10.8182ZM21.0696 13.1023C20.7931 13.1023 20.5421 13.0502 20.3168 12.946C20.0914 12.84 19.9124 12.6875 19.7798 12.4886C19.6473 12.2879 19.581 12.0455 19.581 11.7614C19.581 11.5114 19.6302 11.3087 19.7287 11.1534C19.8272 10.9962 19.9588 10.8731 20.1236 10.7841C20.2884 10.6951 20.4702 10.6288 20.669 10.5852C20.8698 10.5398 21.0715 10.5038 21.2741 10.4773C21.5393 10.4432 21.7543 10.4176 21.919 10.4006C22.0857 10.3816 22.2069 10.3504 22.2827 10.3068C22.3603 10.2633 22.3991 10.1875 22.3991 10.0795V10.0568C22.3991 9.77652 22.3224 9.55871 22.169 9.40341C22.0175 9.24811 21.7874 9.17045 21.4787 9.17045C21.1586 9.17045 20.9077 9.24053 20.7259 9.38068C20.544 9.52083 20.4162 9.67045 20.3423 9.82955L19.706 9.60227C19.8196 9.33712 19.9711 9.13068 20.1605 8.98295C20.3518 8.83333 20.5601 8.72917 20.7855 8.67045C21.0128 8.60985 21.2363 8.57955 21.456 8.57955C21.5961 8.57955 21.7571 8.59659 21.9389 8.63068C22.1226 8.66288 22.2997 8.73011 22.4702 8.83239C22.6425 8.93466 22.7855 9.08902 22.8991 9.29545C23.0128 9.50189 23.0696 9.77841 23.0696 10.125V13H22.3991V12.4091H22.3651C22.3196 12.5038 22.2438 12.6051 22.1378 12.7131C22.0317 12.821 21.8906 12.9129 21.7145 12.9886C21.5384 13.0644 21.3234 13.1023 21.0696 13.1023ZM21.1719 12.5C21.437 12.5 21.6605 12.4479 21.8423 12.3438C22.026 12.2396 22.1643 12.1051 22.2571 11.9403C22.3518 11.7756 22.3991 11.6023 22.3991 11.4205V10.8068C22.3707 10.8409 22.3082 10.8722 22.2116 10.9006C22.117 10.9271 22.0071 10.9508 21.8821 10.9716C21.759 10.9905 21.6387 11.0076 21.5213 11.0227C21.4058 11.036 21.312 11.0473 21.2401 11.0568C21.0658 11.0795 20.9029 11.1165 20.7514 11.1676C20.6018 11.2169 20.4806 11.2917 20.3878 11.392C20.2969 11.4905 20.2514 11.625 20.2514 11.7955C20.2514 12.0284 20.3376 12.2045 20.5099 12.3239C20.6842 12.4413 20.9048 12.5 21.1719 12.5ZM26.0661 13.0909C25.657 13.0909 25.3047 12.9943 25.0092 12.8011C24.7138 12.608 24.4865 12.3419 24.3274 12.0028C24.1683 11.6638 24.0888 11.2765 24.0888 10.8409C24.0888 10.3977 24.1702 10.0066 24.3331 9.66761C24.4979 9.3267 24.727 9.06061 25.0206 8.86932C25.3161 8.67614 25.6607 8.57955 26.0547 8.57955C26.3615 8.57955 26.638 8.63636 26.8842 8.75C27.1304 8.86364 27.3321 9.02273 27.4893 9.22727C27.6465 9.43182 27.7441 9.67045 27.782 9.94318H27.1115C27.0604 9.74432 26.9467 9.56818 26.7706 9.41477C26.5964 9.25947 26.3615 9.18182 26.0661 9.18182C25.8047 9.18182 25.5755 9.25 25.3786 9.38636C25.1835 9.52083 25.031 9.71117 24.9212 9.95739C24.8132 10.2017 24.7592 10.4886 24.7592 10.8182C24.7592 11.1553 24.8123 11.4489 24.9183 11.6989C25.0263 11.9489 25.1778 12.143 25.3729 12.2812C25.5698 12.4195 25.8009 12.4886 26.0661 12.4886C26.2403 12.4886 26.3984 12.4583 26.5405 12.3977C26.6825 12.3371 26.8028 12.25 26.9013 12.1364C26.9998 12.0227 27.0698 11.8864 27.1115 11.7273H27.782C27.7441 11.9848 27.6503 12.2169 27.5007 12.4233C27.353 12.6278 27.157 12.7907 26.9126 12.9119C26.6702 13.0312 26.388 13.0909 26.0661 13.0909ZM30.5916 13.0909C30.1712 13.0909 29.8085 12.9981 29.5036 12.8125C29.2005 12.625 28.9666 12.3636 28.8018 12.0284C28.639 11.6913 28.5575 11.2992 28.5575 10.8523C28.5575 10.4053 28.639 10.0114 28.8018 9.67045C28.9666 9.32765 29.1958 9.06061 29.4893 8.86932C29.7848 8.67614 30.1295 8.57955 30.5234 8.57955C30.7507 8.57955 30.9751 8.61742 31.1967 8.69318C31.4183 8.76894 31.62 8.89205 31.8018 9.0625C31.9837 9.23106 32.1286 9.45455 32.2365 9.73295C32.3445 10.0114 32.3984 10.3542 32.3984 10.7614V11.0455H29.0348V10.4659H31.7166C31.7166 10.2197 31.6674 10 31.5689 9.80682C31.4723 9.61364 31.334 9.46117 31.1541 9.34943C30.9761 9.23769 30.7659 9.18182 30.5234 9.18182C30.2564 9.18182 30.0253 9.24811 29.8303 9.38068C29.6371 9.51136 29.4884 9.68182 29.3842 9.89205C29.2801 10.1023 29.228 10.3277 29.228 10.5682V10.9545C29.228 11.2841 29.2848 11.5634 29.3984 11.7926C29.514 12.0199 29.674 12.1932 29.8786 12.3125C30.0831 12.4299 30.3208 12.4886 30.5916 12.4886C30.7678 12.4886 30.9268 12.464 31.0689 12.4148C31.2128 12.3636 31.3369 12.2879 31.4411 12.1875C31.5452 12.0852 31.6257 11.9583 31.6825 11.8068L32.3303 11.9886C32.2621 12.2083 32.1475 12.4015 31.9865 12.5682C31.8255 12.733 31.6267 12.8617 31.3899 12.9545C31.1532 13.0455 30.8871 13.0909 30.5916 13.0909Z" fill="black"/>
</svg>
