<?xml version="1.0" encoding="utf-8"?>
<!DOCTYPE svg PUBLIC "-//W3C//DTD SVG 1.0//EN" "http://www.w3.org/TR/2001/REC-SVG-20010904/DTD/svg10.dtd">
<svg version="1.0" xmlns="http://www.w3.org/2000/svg" width="512px" height="512px" viewBox="0 0 512 512" preserveAspectRatio="xMidYMid meet">
 <g fill="#000000">
  <path d="M375.8 284.9 c-8 -2.3 -11.7 -10.4 -10.5 -22.7 0.5 -4.6 1.2 -6.1 4.3 -9.3 9.6 -9.8 29 -6.2 32.4 6.1 2.7 9.7 -0.3 20.6 -6.8 24.3 -3.9 2.3 -14 3.1 -19.4 1.6z"/>
  <path d="M123.5 256.6 c-7.2 -3.2 -10.4 -11 -9.1 -21.9 0.6 -5.5 2.5 -8.8 7 -12.1 2.3 -1.8 4.2 -2.1 11.6 -2.1 7.4 0 9.3 0.3 11.6 2.1 5.9 4.3 6.9 6.8 6.9 16.4 0 9.6 -1 12.1 -6.9 16.4 -3.5 2.6 -16.4 3.4 -21.1 1.2z"/>
 </g>
 <g fill="#572600">
  <path d="M378 284 c0 -2.1 1 -2.4 4.8 -1.4 3.6 1 2.7 3.4 -1.3 3.4 -2.8 0 -3.5 -0.4 -3.5 -2z"/>
  <path d="M397.4 274.5 c2.4 -5.1 4.6 -5.9 4.6 -1.6 0 4.6 -1 6.1 -4 6.1 l-2.7 0 2.1 -4.5z"/>
  <path d="M365 270.5 c0 -4 2.4 -4.9 3.4 -1.2 1 3.7 0.7 4.7 -1.4 4.7 -1.6 0 -2 -0.7 -2 -3.5z"/>
  <path d="M137 255.8 c0.1 -0.7 1.6 -2 3.5 -2.9 l3.5 -1.6 0 2.8 c0 2.6 -0.3 2.9 -3.5 2.9 -2.2 0 -3.5 -0.5 -3.5 -1.2z"/>
  <path d="M31.7 18 l4.8 -5 219.5 0 c209.9 0 219.6 0.1 221.1 1.8 0.8 1 1.8 2.3 2.2 2.9 0.5 0.8 -4.8 1.1 -19 1.2 -10.9 0.1 -34.4 0.5 -52.3 1.1 -53.2 1.5 -232.5 2.2 -304.5 1.2 -57.1 -0.9 -67.2 -0.8 -68.6 0.4 -0.8 0.8 -3 1.4 -4.8 1.4 l-3.3 0 4.9 -5z"/>
 </g>
 <g fill="#8a0000">
  <path d="M66.1 411.8 c0 -2.4 0.4 -6.5 0.7 -9.2 0.6 -4.5 1 -5 4.2 -6.2 1.9 -0.7 5 -1.3 6.8 -1.3 l3.2 -0.1 0 10.5 0 10.5 -7.5 0 -7.5 0 0.1 -4.2z"/>
  <path d="M126 404.5 l0 -11.5 3.5 0 c3.3 0 3.5 0.2 3.5 3.3 0 2.6 0.6 3.6 2.5 4.5 1.4 0.7 3.6 1.2 4.9 1.2 1.5 0 2.7 0.9 3.4 2.5 1.1 2.4 1.4 2.5 11.7 2.5 6.3 0 10.5 0.4 10.5 1 0 0.6 2.5 1 5.5 1 3 0 5.5 -0.4 5.5 -1 0 -0.5 2 -1 4.5 -1 4.1 0 4.5 -0.2 4.5 -2.4 0 -2.1 0.6 -2.5 3.3 -2.8 2.2 -0.2 3.5 -1 4.2 -2.5 0.5 -1.3 1.3 -2.3 1.7 -2.3 0.5 0 0.8 -0.9 0.8 -2 0 -1.6 0.7 -2 3.5 -2 l3.5 0 0 11.5 0 11.5 -38.5 0 -38.5 0 0 -11.5z"/>
  <path d="M247.8 404.8 l-0.3 -11.3 -21.7 -0.3 -21.8 -0.2 0 -3.4 c0 -3.3 0 -3.4 5.5 -3.8 6.4 -0.5 7.4 -1.2 5.7 -3.8 -0.7 -1.1 -1.2 -3.3 -1.2 -4.9 l0 -2.9 17 -0.7 17 -0.7 0 -10.4 0 -10.4 69 0 69 0 0 10.4 0 10.3 5.5 0.6 c3 0.3 8 0.3 11 0 l5.5 -0.6 0 4.1 0 4.1 -5 0.7 c-2.7 0.4 -5 1 -5 1.5 0 0.5 -0.7 0.9 -1.5 0.9 -0.8 0 -1.5 0.6 -1.5 1.3 0 0.8 -1.8 2.1 -4 3 -5.3 2 -6.2 5.5 -2.6 9.4 1.4 1.5 2.9 3.6 3.2 4.6 0.3 0.9 1 1.7 1.5 1.7 0.5 0 0.9 0.7 0.9 1.5 0 0.8 0.7 1.5 1.5 1.5 0.8 0 1.5 0.5 1.5 1 0 0.6 0.7 1 1.5 1 1 0 1.5 1.1 1.5 3.5 l0 3.5 -15 0 -14.9 0 -0.3 -11.2 -0.3 -11.3 -22 0 -22 0 -0.3 11.3 -0.3 11.2 -38.4 0 -38.4 0 -0.3 -11.2z"/>
  <path d="M199 379 c0 -0.5 -1.1 -1 -2.5 -1 -1.4 0 -2.5 -0.4 -2.5 -1 0 -0.5 -1.6 -1 -3.5 -1 l-3.5 0 0 -12 0 -12 8 0 8 0 0 10.5 c0 8.7 0.3 10.5 1.5 10.5 1 0 1.5 1.1 1.5 3.5 0 3.3 -0.2 3.5 -3.5 3.5 -1.9 0 -3.5 -0.4 -3.5 -1z"/>
  <path d="M431 365 l0 -13 7.5 0 7.5 0 0 8.4 c0 12.7 -0.5 14.1 -5.4 16 -2.3 0.9 -5.4 1.6 -6.9 1.6 l-2.7 0 0 -13z"/>
  <path d="M134 369.3 c-0.8 -0.2 -2.4 -0.9 -3.5 -1.3 -1.6 -0.8 -25.2 -5 -27.7 -5 -0.5 0 -0.8 -0.6 -0.8 -1.4 0 -2 -8.8 -3 -19.2 -2.2 -4.6 0.4 -10.1 0.8 -12.3 0.9 l-4 0.2 0 -4 0 -4 37.8 -0.3 37.7 -0.2 0 9 0 9 -3.2 -0.1 c-1.8 0 -4 -0.3 -4.8 -0.6z"/>
 </g>
 <g fill="#6c2f00">
  <path d="M75 414 c0 -0.5 0.7 -1 1.5 -1 0.9 0 1.5 -0.9 1.5 -2.5 0 -1.8 0.5 -2.5 2 -2.5 1.6 0 2 0.7 2 3.5 0 3.3 -0.2 3.5 -3.5 3.5 -1.9 0 -3.5 -0.4 -3.5 -1z"/>
  <path d="M28.5 296 c-0.3 -0.5 -4 -1 -8.1 -1 l-7.4 0 0 -109 0 -109 8.5 0 8.5 0 0 110 c0 60.5 -0.2 110 -0.4 110 -0.3 0 -0.8 -0.4 -1.1 -1z"/>
  <path d="M13 37.3 c0 -0.7 15.8 -16.3 20.2 -20 1.5 -1.2 2.8 -1.8 3 -1.3 1.2 3.4 294.8 3.4 404.3 0 35.1 -1 37.1 -1 38.9 1.5 0.8 1.1 1.3 2.2 1 2.4 -0.2 0.2 -7.7 0.5 -16.6 0.7 -9 0.1 -28.7 0.7 -43.8 1.3 -120 4.4 -216.5 6.2 -330.5 6.3 l-49 0 -5.4 2.4 c-3 1.3 -7.1 2.7 -9.2 3 -2.1 0.4 -4.6 1.5 -5.5 2.5 -1.6 1.8 -7.4 2.7 -7.4 1.2z"/>
 </g>
 <g fill="#9e0000">
  <path d="M38.7 415.3 c-0.4 -0.3 -0.7 -2.1 -0.7 -4 0 -3.2 0.1 -3.3 4 -3.3 l4 0 0 4 c0 3.9 -0.1 4 -3.3 4 -1.9 0 -3.7 -0.3 -4 -0.7z"/>
  <path d="M389.8 415.3 c-6.9 -0.6 -5.9 -2.3 1.5 -2.5 4.2 -0.1 5.1 -0.3 2.7 -0.6 -2.9 -0.4 -3.2 -0.6 -1.5 -1.2 1.9 -0.8 1.8 -0.9 -0.4 -0.9 -1.6 -0.1 -2.1 -0.5 -1.7 -1.6 0.3 -0.8 0.1 -1.5 -0.4 -1.5 -0.5 0 -1.1 -0.8 -1.4 -1.7 -0.3 -1 -1.6 -2.9 -2.9 -4.3 -2.1 -2.2 -3.9 -6.4 -4.1 -9.5 -0.2 -1.7 4 -5.5 7.3 -6.6 1.7 -0.6 3.1 -1.7 3.1 -2.5 0 -0.8 0.7 -1.4 1.6 -1.4 0.8 0 1.3 -0.4 1 -0.9 -0.3 -0.5 1.3 -1.2 3.7 -1.5 2.3 -0.3 4.8 -0.7 5.5 -0.8 0.6 -0.1 1.2 -0.4 1.2 -0.8 0 -0.4 -2.2 -0.5 -4.9 -0.2 -6.5 0.6 -12.1 -0.5 -12.1 -2.3 0 -1.3 3.3 -1.5 21 -1.5 l21 0 0 -5.5 c0 -4.8 0.2 -5.5 2 -5.5 1.8 0 2 0.7 2 6.4 l0 6.4 3.9 -1.5 c3.2 -1.3 4 -2.1 4.6 -4.9 0.7 -4.2 3.5 -4.7 3.5 -0.6 0 1.5 0.3 5 0.6 7.7 l0.6 5 -6.3 3.6 c-3.5 2 -7.5 4 -8.9 4.4 -4.5 1.3 -11.1 6 -11.6 8.2 -0.8 3.1 2.6 10.2 4.9 10.3 2.8 0 4.7 2.5 4.7 5.9 l0 3.1 -17.7 -0.2 c-9.8 -0.1 -19.9 -0.3 -22.5 -0.5z"/>
  <path d="M136 414 c0 -0.6 11 -1 31 -1 20 0 31 0.4 31 1 0 0.6 -11 1 -31 1 -20 0 -31 -0.4 -31 -1z"/>
  <path d="M466 411.5 c0 -3.3 0.2 -3.5 3.5 -3.5 3.3 0 3.5 0.2 3.5 3.5 0 3.3 -0.2 3.5 -3.5 3.5 -3.3 0 -3.5 -0.2 -3.5 -3.5z"/>
  <path d="M66 404.1 c0 -13.1 1.5 -15.1 11.6 -15.1 3.1 0 3.4 0.3 3.4 2.8 0 1.6 0.3 6.3 0.6 10.5 0.7 7.4 0.6 7.7 -1.5 7.7 -1.9 0 -2.1 -0.5 -2.1 -5.9 l0 -6 -3.7 1.3 c-2.8 1 -3.9 1.9 -4.1 3.7 -0.7 6.8 -1.4 8.9 -2.7 8.9 -1.2 0 -1.5 -1.6 -1.5 -7.9z"/>
  <path d="M148 411 l9.5 -0.6 -7.8 -0.2 c-5.8 -0.2 -7.9 -0.6 -8.3 -1.7 -0.4 -0.9 -1.9 -1.5 -4.1 -1.5 -1.9 0 -3.2 -0.4 -2.8 -0.9 0.3 -0.6 -0.4 -1.5 -1.5 -2.1 -1.5 -0.8 -2 -0.8 -2.2 0.2 0 0.7 -0.4 -0.9 -0.8 -3.7 l-0.7 -5 -0.1 6.3 c-0.1 3.4 -0.6 6.2 -1.1 6.2 -0.4 0 -1.1 -2.9 -1.4 -6.5 -0.4 -3.6 -0.9 -7 -1.2 -7.5 -0.4 -0.6 -8.9 -1 -20.6 -1 l-19.9 0 0 -3.5 c0 -3 0.3 -3.5 2.4 -3.5 2.8 0 9.6 -2.7 9.6 -3.8 -0.3 -5.1 -12.3 -11.1 -22.7 -11.1 -3.7 -0.1 -6.5 -0.6 -6.9 -1.3 -0.4 -0.7 -1 -5 -1.2 -9.7 l-0.5 -8.4 5.4 0.6 c3 0.4 12.9 0.7 22.2 0.7 10.4 0 16.7 0.4 16.7 1 0 0.6 -7.3 1 -19.9 1 -18.4 0 -23.1 0.6 -20 2.6 0.7 0.4 0.9 0.3 0.6 -0.4 -0.5 -0.7 4.3 -1 15.4 -1.1 15.2 0 20.7 0.8 19.4 2.9 -0.6 0.9 5.1 2.1 10.6 2.2 1.9 0 3.9 0.4 4.4 0.9 0.6 0.4 3.1 0.9 5.5 1 2.5 0.1 5.8 0.9 7.3 1.8 2.3 1.3 2.9 1.4 3.6 0.2 0.7 -1.1 1 -1 1.4 0.5 0.3 1.2 0.5 0.6 0.6 -1.3 0 -1.8 0.5 -3.3 1.1 -3.3 0.8 0 1.6 2.9 2.2 9 l0.3 2.5 22.1 0.3 c21.5 0.2 22.2 0.2 22.7 -1.8 0.7 -2.5 2.7 -2.6 2.7 -0.1 0 1.5 0.6 1.9 2.6 1.6 1.4 -0.1 3.2 0.4 4 1.2 1.2 1.3 1.4 1.1 1.5 -0.9 0.1 -2.3 0.1 -2.3 0.9 0.2 0.7 2.2 0.8 2.1 0.9 -1.2 0.1 -3.8 2.1 -5.5 2.1 -1.8 0 2.9 2.5 3.2 26.9 2.8 20.5 -0.3 22.1 -0.2 22.1 1.5 0 0.9 -0.8 1.8 -1.7 1.8 -4.6 0.4 -16.6 0.8 -24.1 0.8 -5.3 0.1 -8.1 0.5 -7.7 1.1 0.3 0.5 2.3 1 4.3 1 l3.7 0 -3.4 1.7 c-3.2 1.6 -3.3 1.7 -1.2 2.6 1.1 0.6 2.1 1.6 2.1 2.3 0 1.6 -2.2 2.3 -10.2 3.3 l-6.3 0.8 8.9 0.2 c4.9 0 8.7 0.3 8.5 0.6 -0.3 0.2 -4.7 0.9 -9.9 1.5 -5.2 0.7 -9.8 1.5 -10.3 1.9 -0.4 0.4 -1 3.7 -1.4 7.4 -0.3 3.7 -1 6.7 -1.4 6.7 -0.5 0 -1 -2.8 -1.1 -6.2 l-0.1 -6.3 -0.7 5 c-0.5 3.6 -0.7 4.2 -0.9 2 -0.2 -2 -0.5 -2.5 -0.9 -1.5 -1.1 2.4 -4.6 7.4 -5.7 8.2 -0.5 0.4 -3.5 0.8 -6.5 0.9 l-5.5 0.2 5.5 0.7 c3 0.4 -6.2 0.7 -20.5 0.6 -16.5 0 -22.5 -0.2 -16.5 -0.6z"/>
  <path d="M383 374 c0 -1.3 0.7 -2 2 -2 1.3 0 2 0.7 2 2 0 1.3 -0.7 2 -2 2 -1.3 0 -2 -0.7 -2 -2z"/>
  <path d="M38 359.6 c0 -6.5 0.7 -7.6 4.6 -7.6 3.3 0 3.4 0.2 3.4 3.8 0 6.7 -0.9 8.2 -4.6 8.2 -3.4 0 -3.4 -0.1 -3.4 -4.4z"/>
  <path d="M466 358 l0 -6 4 0 4 0 0 4.4 c0 6.5 -0.7 7.6 -4.6 7.6 l-3.4 0 0 -6z"/>
 </g>
 <g fill="#703c00">
  <path d="M482 187.2 l0 -110.2 3.9 0 c2.1 0 5.9 -0.3 8.5 -0.6 l4.6 -0.7 0 109.7 0 109.6 -7.3 0 c-4.3 0 -7.8 0.5 -8.5 1.2 -0.9 0.9 -1.2 -23.3 -1.2 -109z"/>
  <path d="M389 283.1 c0 -0.5 1.6 -1.8 3.5 -3 l3.5 -2 0 2.9 c0 2.8 -0.3 3 -3.5 3 -1.9 0 -3.5 -0.4 -3.5 -0.9z"/>
  <path d="M122 254.1 l0 -2.8 3.5 1.6 c4.5 2.1 4.5 4.1 0 4.1 -3.2 0 -3.5 -0.3 -3.5 -2.9z"/>
  <path d="M386.8 251.3 c-3.3 -0.8 -2 -3.3 1.7 -3.3 2.8 0 3.5 0.4 3.5 2 0 2 -1.4 2.3 -5.2 1.3z"/>
  <path d="M114 242.5 c0 -4 2.4 -4.9 3.4 -1.2 1 3.7 0.7 4.7 -1.4 4.7 -1.6 0 -2 -0.7 -2 -3.5z"/>
  <path d="M148.6 236.8 c-1 -3.8 -0.7 -4.8 1.4 -4.8 1.6 0 2 0.7 2 3.5 0 4 -2.4 4.9 -3.4 1.3z"/>
  <path d="M165 163.8 l0 -3.4 11.4 -2.7 c6.2 -1.5 13.2 -2.7 15.5 -2.7 l4.1 0 0 4.3 0 4.3 -10.7 1.2 c-6 0.7 -12.9 1.6 -15.5 1.9 l-4.8 0.6 0 -3.5z"/>
  <path d="M332.3 160.7 l-12.3 -4.1 0 -3.3 c0 -3.1 0.2 -3.3 3.2 -3.3 1.8 0 8.8 1.8 15.5 4.1 l12.3 4.1 0 3.4 c0 3.2 -0.2 3.4 -3.2 3.3 -1.8 0 -8.8 -1.9 -15.5 -4.2z"/>
  <path d="M491.4 36 c-0.5 -0.5 -4.3 -2 -8.4 -3.2 -7.4 -2.2 -8.4 -2.2 -78 -2.4 -43.2 -0.1 -75 -0.6 -82 -1.3 -6.3 -0.6 -21.4 -1.1 -33.6 -1.1 -24.6 0 -31.4 -0.6 -31.4 -2.6 0 -1.9 -0.8 -1.8 35.5 -2.8 65.4 -1.7 74.5 -2 120.5 -3.6 17.3 -0.6 38.2 -1.3 46.4 -1.6 8.3 -0.3 15.2 -0.7 15.5 -0.9 0.9 -0.9 5.7 2.9 13.9 11.1 4.5 4.5 8.2 8.5 8.2 8.8 0 1 -5.5 0.7 -6.6 -0.4z"/>
 </g>
 <g fill="#b10000">
  <path d="M37 384 l0 -32 3.9 0 c4.5 0 5.1 1.1 5.1 9.6 0 2.8 0.3 6.6 0.6 8.3 l0.7 3.1 9.3 0 9.4 0 0 -6.5 c0 -5 0.3 -6.5 1.5 -6.5 0.8 0 1.7 1.4 2.1 3.5 0.7 3.7 2.2 5.4 3.3 3.7 0.8 -1.3 9.3 0.6 18.1 3.9 7.3 2.8 9.8 6.5 9.1 13.6 -0.1 1.5 -6.2 4.2 -10 4.5 -1.4 0.1 6.6 0.5 17.9 0.8 18.5 0.4 20.5 0.7 20.8 2.3 0.3 1.6 -1.3 1.7 -23.2 1.7 l-23.6 0 0 6 c0 4.4 -0.4 6 -1.4 6 -1.7 0 -2.6 -3.1 -2.6 -9.2 0 -3.9 -0.3 -4.6 -1.7 -4.3 -1 0.2 -2.6 0.4 -3.5 0.4 -1.1 0.1 -2.1 1.5 -2.9 4.1 -1.5 5.1 -3.9 5.3 -3.9 0.5 l0 -3.6 -9.7 0.3 -9.8 0.3 -0.3 8.5 c-0.3 12.6 -0.5 13 -5.2 13 l-4 0 0 -32z"/>
  <path d="M421.3 415.3 c-5 -0.6 -3.9 -2.3 1.5 -2.5 4.2 -0.1 4.3 -0.2 1.2 -0.6 -3.3 -0.5 -3.4 -0.5 -1 -1.2 2.3 -0.7 2.3 -0.8 -0.8 -0.9 -2.2 -0.1 -3.2 -0.5 -2.9 -1.3 0.2 -0.7 -0.5 -2.9 -1.5 -4.9 -1.5 -3 -1.7 -4.4 -0.9 -7.8 1 -4.4 2.2 -5.8 8.1 -8.8 1.9 -1 3.8 -2.2 4.1 -2.6 0.3 -0.4 1 -0.7 1.6 -0.5 1.4 0.4 13.5 -6.5 12.5 -7.1 -0.4 -0.3 -0.7 -1.2 -0.6 -1.8 0.1 -0.7 0.2 -2 0.3 -2.8 0.1 -1.6 3.1 -2.1 3.1 -0.5 0 0.6 3.8 1 9.4 1 l9.3 0 0.7 -5.3 c0.3 -2.8 0.6 -6.7 0.6 -8.4 0 -1.8 0.5 -3.3 1 -3.3 0.6 0 1 -0.7 1 -1.5 0 -1 1 -1.5 3.3 -1.5 l3.2 0 0 31.3 0 31.2 -4.2 0.3 -4.2 0.3 -0.3 -10.8 -0.3 -10.8 -9.7 -0.3 -9.8 -0.3 0 11.1 0 11 -10.7 -0.2 c-6 0 -12.3 -0.3 -14 -0.5z m49.7 -58.3 c0 -1.1 -0.4 -2 -1 -2 -0.5 0 -1 0.9 -1 2 0 1.1 0.5 2 1 2 0.6 0 1 -0.9 1 -2z"/>
  <path d="M369 404.4 l0 -10.6 -23.5 0.4 c-23.1 0.3 -23.6 0.3 -23.3 -1.7 0.3 -1.9 1.1 -2 25.3 -2 l25 0 0.3 11.3 c0.2 9 0.5 11.2 1.7 11.2 0.8 0 1.5 0.5 1.5 1 0 0.6 -1.6 1 -3.5 1 l-3.5 0 0 -10.6z"/>
  <path d="M200.2 400.3 l0.3 -9.8 25 0 c24.2 0 25 0.1 25.3 2 0.3 2 -0.2 2 -23.3 1.7 l-23.5 -0.4 0 8.1 c0 7.5 -0.2 8.1 -2 8.1 -2 0 -2.1 -0.5 -1.8 -9.7z"/>
  <path d="M139.7 375.3 c-0.4 -0.3 -0.7 -5.1 -0.7 -10.5 0 -8 -0.3 -9.8 -1.5 -9.8 -0.8 0 -1.5 -0.4 -1.5 -1 0 -0.5 1.6 -1 3.5 -1 l3.5 0 0 11.5 c0 8.9 -0.3 11.5 -1.3 11.5 -0.8 0 -1.7 -0.3 -2 -0.7z"/>
  <path d="M186 372.5 c0 -2.8 0.4 -3.5 2 -3.5 1.6 0 2 0.7 2 3.5 0 2.8 -0.4 3.5 -2 3.5 -1.6 0 -2 -0.7 -2 -3.5z"/>
  <path d="M200.7 375.3 c-0.4 -0.3 -0.7 -5.1 -0.7 -10.5 0 -8 -0.3 -9.8 -1.5 -9.8 -0.8 0 -1.5 -0.4 -1.5 -1 0 -0.5 1.6 -1 3.5 -1 l3.5 0 0 11.5 c0 8.9 -0.3 11.5 -1.3 11.5 -0.8 0 -1.7 -0.3 -2 -0.7z"/>
  <path d="M247 372.1 c0 -3.5 0.3 -4.1 2.1 -4.1 1.7 0 2 0.5 1.7 3.7 -0.2 2.7 -0.8 3.9 -2 4.1 -1.5 0.3 -1.8 -0.4 -1.8 -3.7z"/>
  <path d="M430 371.5 c0 -5.6 2.6 -6.4 3.6 -1.1 0.7 3.9 0 5.6 -2.2 5.6 -1 0 -1.4 -1.2 -1.4 -4.5z"/>
 </g>
 <g fill="#7e3c00">
  <path d="M76.8 412.9 c1.3 -0.5 2 -1.3 1.7 -1.9 -1 -1.7 0.5 -7 2.1 -7 1 0 1.4 1.3 1.4 5 l0 5 -3.7 -0.1 c-3.4 0 -3.5 -0.1 -1.5 -1z"/>
  <path d="M430 360.5 l0 -7.5 3.5 0 c1.9 0 3.5 0.5 3.5 1 0 0.6 -0.7 1 -1.5 1 -1.1 0 -1.5 1.1 -1.5 4.3 0 5.6 -0.9 8.7 -2.6 8.7 -1.1 0 -1.4 -1.8 -1.4 -7.5z"/>
  <path d="M468.2 357.8 c-0.2 -3.7 -0.1 -3.8 3.3 -3.8 3.3 0 3.5 0.2 3.5 3.5 0 2.9 -0.4 3.5 -2.1 3.5 -1.6 0 -2 -0.5 -1.7 -2.7 0.2 -1.4 -0.2 -2.8 -0.9 -3 -0.7 -0.3 -1.3 0.9 -1.6 2.9 l-0.4 3.3 -0.1 -3.7z"/>
  <path d="M72.6 208.9 c-1.6 -4.4 -4.6 -19.6 -4.6 -22.7 l0 -3.7 28.3 -6.3 c15.5 -3.4 29.7 -6.2 31.5 -6.2 3 0 3.2 0.2 3.2 3.8 l0 3.8 -12.7 4.3 c-7 2.4 -14.3 5.1 -16.2 6.1 -2 1 -5.3 2.6 -7.3 3.5 -8 3.7 -3 5.4 13 4.6 l5.2 -0.3 0 3.5 0 3.5 -13.7 3.3 c-16.1 3.8 -26 4.8 -26.7 2.8z"/>
  <path d="M342 186.9 c-3 -1 -11 -3.5 -17.7 -5.6 -12.2 -3.8 -12.3 -3.8 -12.3 -6.8 0 -1.6 1.5 -7.7 3.3 -13.5 3.1 -9.7 3.5 -10.5 6 -10.8 3.7 -0.4 31.7 8.9 31.7 10.5 0 0.7 0.7 1.3 1.5 1.3 1 0 1.5 1.1 1.5 3.5 l0 3.5 -6.7 0 c-3.8 0 -7.4 0.4 -8 0.8 -2.2 1.4 0.8 5.9 5.5 8.4 2.3 1.3 4.2 2.6 4.2 3 0 0.5 0.7 0.8 1.5 0.8 1 0 1.5 1.1 1.5 3.5 0 3.3 -0.2 3.5 -3.2 3.4 -1.8 0 -5.8 -0.9 -8.8 -2z"/>
  <path d="M27 81.5 c0 -1.2 -1.4 -1.5 -7 -1.5 l-7 0 0.1 -21.7 0 -21.8 3.3 -2.7 c1.9 -1.5 5 -3 7 -3.4 2 -0.3 6 -1.6 8.8 -2.9 l5.2 -2.4 70 -0.3 c99.6 -0.4 200.3 -0.1 212.6 0.7 20.3 1.4 27.6 1.7 33.8 1.6 5.6 -0.2 6.2 0 6.2 1.8 0 2 -0.5 2.1 -13.7 2.1 -25.7 -0.1 -123.8 2.3 -124.3 3 -0.3 0.4 -15.6 1 -34 1.3 -69.2 1.3 -143.5 3.9 -146 5.1 -1.8 0.8 -3 2.7 -4.3 6.6 -3.2 9.7 -5.7 23.7 -5 28.5 0.5 3.8 0.2 4.8 -1.3 6 -2.5 1.9 -4.4 1.9 -4.4 0z"/>
 </g>
 <g fill="#854600">
  <path d="M75 414.5 c0 -0.8 0.7 -1.5 1.6 -1.5 0.9 0 1.8 -0.9 2.1 -2 0.9 -3.5 3.3 -2.4 3.3 1.5 0 3.3 -0.2 3.5 -3.5 3.5 -2.4 0 -3.5 -0.5 -3.5 -1.5z"/>
  <path d="M471.1 363.5 c0.3 -7.4 0.5 -8.5 2.1 -8.5 1.6 0 1.8 1 1.8 8.5 0 7.9 -0.1 8.5 -2.1 8.5 -1.9 0 -2 -0.5 -1.8 -8.5z"/>
  <path d="M468.3 362 c0 -4.1 0.2 -5.8 0.4 -3.7 0.2 2 0.2 5.4 0 7.5 -0.2 2 -0.4 0.3 -0.4 -3.8z"/>
  <path d="M383 284.6 c0 -1.3 2.8 -2.6 5.8 -2.6 0.6 0 1.2 0.9 1.2 2 0 1.6 -0.7 2 -3.5 2 -2.3 0 -3.5 -0.5 -3.5 -1.4z"/>
  <path d="M374 282.6 c0 -2.3 0.2 -2.4 3.5 -1.3 1.9 0.6 3.5 1.6 3.5 2.4 0 0.8 -1.3 1.3 -3.5 1.3 -3 0 -3.5 -0.3 -3.5 -2.4z"/>
  <path d="M399.6 264.8 c-1 -3.8 -0.7 -4.8 1.4 -4.8 1.6 0 2 0.7 2 3.5 0 4 -2.4 4.9 -3.4 1.3z"/>
  <path d="M146.9 246.5 c2.1 -4.5 4.1 -4.5 4.1 0 0 3.2 -0.3 3.5 -2.9 3.5 l-2.8 0 1.6 -3.5z"/>
  <path d="M401 206 c-15.1 -4.9 -40.9 -13.1 -57.2 -18.2 -18.4 -5.7 -29.8 -9.8 -29.8 -10.5 0 -0.7 -0.4 -1.3 -1 -1.3 -0.5 0 -1 -1.2 -1 -2.7 0 -3.4 3.1 -13.3 4.2 -13.3 0.4 0 0.8 -1.2 0.8 -2.7 0 -5.8 1 -7.3 4.6 -7.3 3.7 0 4.8 2.4 1.6 3.2 -1.2 0.4 -2.6 3.2 -4.4 9.5 -1.5 4.9 -3 9.6 -3.3 10.4 -0.4 1.1 1.7 2.1 8.7 4.3 21 6.6 26.4 7.6 18.6 3.3 -1.9 -1.1 -4.2 -3.7 -5.6 -6.2 l-2.2 -4.5 2 -2 c1.6 -1.6 3.4 -2 9.3 -2.1 5.5 0 6.6 -0.3 4.9 -1 -1.3 -0.5 -2.1 -1.3 -1.8 -1.7 0.3 -0.5 -0.6 -1.4 -1.9 -2 -3.3 -1.5 -3.2 -3.2 0.2 -3.2 3.3 0 48.7 14.9 49.1 16.1 0.2 0.5 1.7 0.9 3.3 0.9 2.7 0 2.9 0.3 2.9 3.5 0 3.3 -0.2 3.5 -3.4 3.5 -1.9 0 -3.6 -0.4 -3.8 -1 -0.1 -0.5 -5.2 -1.4 -11.3 -2 -6 -0.5 -13.4 -1.3 -16.2 -1.6 -6.6 -0.8 -6.9 0.6 -1 4.2 2.3 1.5 4.4 3 4.7 3.3 1.2 1.6 15.1 7 34.5 13.3 15.8 5.3 22.3 7 26.3 6.9 l5.2 -0.1 0 3.4 c0 5.7 -0.8 6.6 -5.4 6.6 -2.3 -0.1 -15.7 -3.8 -31.6 -9z"/>
  <path d="M72.5 209.8 c-1.1 -3.2 -3.5 -15.2 -3.5 -17.4 0 -3.8 2.8 -3 3.6 1.1 0.3 1.9 0.9 3.3 1.3 3.1 0.3 -0.3 0.7 1.2 0.7 3.2 0 2 0.3 4.5 0.7 5.6 0.9 2.2 3.6 1.9 20.7 -2.4 10.3 -2.7 10.9 -2.9 5.5 -2.5 -4.1 0.3 -5.4 0.2 -4 -0.4 1.5 -0.7 0.8 -1 -3.2 -1 -5.5 -0.1 -9.3 -2.2 -9.3 -5.1 0 -1.3 5.9 -6 7.6 -6 0.3 0 2.8 -1.1 5.5 -2.5 2.7 -1.3 9.8 -4.1 15.9 -6.1 6.4 -2.2 10.7 -4.1 10.1 -4.7 -0.5 -0.5 -11.3 1.5 -25.8 4.7 -13.7 3.1 -25.3 5.6 -25.6 5.6 -0.4 0 -0.7 -0.8 -0.7 -1.8 0 -1.5 1.3 -2.2 5.8 -3.1 6.8 -1.5 19.3 -4.4 66.1 -15.1 22.3 -5.2 36.4 -8 38.2 -7.6 2.2 0.4 2.9 0.2 2.9 -0.9 0 -1 1.1 -1.5 3.5 -1.5 1.9 0 3.5 0.5 3.5 1 0 0.6 0.6 1 1.4 1 2.1 0 2.6 1.2 4.7 10.8 2.6 11.8 2.5 15 -0.3 15.7 -1.3 0.3 -22.8 5.3 -47.8 11.1 -79.1 18.3 -76.6 17.8 -77.5 15.2z m64.5 -23.5 c7.4 -0.9 13.7 -2.1 13.8 -2.5 0.2 -0.4 2.3 -0.8 4.7 -0.8 2.4 0 4.5 -0.4 4.7 -0.8 0.2 -0.4 4.6 -2.3 9.8 -4 l9.5 -3.3 -9 0.5 c-11.1 0.5 -40.1 6.8 -46.4 10.1 -5.7 3 -4.6 3 12.9 0.8z m50 -25.3 c2.4 -0.5 4.8 -0.6 5.2 -0.4 0.5 0.3 0.8 -0.2 0.8 -1.1 0 -1.9 -3 -1.6 -14.5 1.5 l-7 1.9 5.5 -0.6 c3 -0.3 7.5 -0.9 10 -1.3z"/>
  <path d="M483 79.5 l0 -3.5 8.1 0 c7.1 0 8 0.2 7.7 1.8 -0.4 1.9 -0.4 1.9 -8.3 2.1 -4.2 0.1 -5.5 0.5 -5.5 1.6 0 0.8 -0.4 1.5 -1 1.5 -0.5 0 -1 -1.6 -1 -3.5z"/>
  <path d="M27 80.2 c0 -0.7 0.7 -1.5 1.5 -1.8 1.1 -0.5 1.2 -1.1 0.4 -2.5 -1.9 -3.6 5.4 -35.3 8.7 -38 1.2 -1 6.8 -1.6 19.3 -2 31.6 -1.2 123.7 -3.7 146.6 -4 8.3 -0.1 15.2 -0.5 15.5 -0.9 0.3 -0.4 15.6 -1 34 -1.4 18.4 -0.4 53.3 -1.1 77.5 -1.6 24.2 -0.5 64.6 -0.9 89.7 -1 25.2 0 47.1 -0.3 48.7 -0.6 1.9 -0.4 6.1 0.4 11.6 2.1 4.7 1.5 8.8 2.5 9.2 2.2 0.3 -0.4 2.5 0.8 4.9 2.5 l4.4 3.1 0 18.4 0 18.3 -3 0 c-2.9 0 -3 -0.2 -3 -4.4 0 -2.5 -0.4 -4.7 -0.9 -5.1 -0.5 -0.3 -1.3 -2 -1.6 -3.7 -1.4 -6 -8.1 -17.2 -12.5 -20.6 l-4.2 -3.2 -19.6 0.5 c-91.3 2.7 -116.8 4.3 -162.2 10.5 -3.6 0.5 -10.1 1.4 -14.5 1.9 -15.1 2 -38 5.2 -47.5 6.7 -5.2 0.8 -12.6 1.9 -16.5 2.4 -3.8 0.5 -9.5 1.6 -12.5 2.5 -3.2 1 -12.5 2.1 -22 2.6 -31.8 1.8 -40.3 2.7 -41.2 4.4 -0.5 0.9 -2.3 1.5 -4.1 1.5 -1.8 0 -3.7 0.4 -4.2 0.9 -0.6 0.5 -1.9 1.1 -3 1.4 -1.1 0.3 0.4 0.5 3.3 0.6 l5.2 0.1 0 3.5 0 3.5 -4.9 0 c-2.7 0 -5.1 0.4 -5.3 0.9 -0.2 0.6 -20.5 1.1 -49.1 1.3 -39.1 0.2 -48.7 0 -48.7 -1z"/>
 </g>
 <g fill="#8e4f00">
  <path d="M38 413.6 c0 -2 0.5 -3.6 1 -3.6 0.6 0 1 0.7 1 1.5 0 0.8 0.7 1.5 1.5 1.5 1.1 0 1.5 -2.1 1.7 -10.7 0.3 -9.4 0.5 -10.8 2.1 -11.1 1.6 -0.3 1.7 0.6 1.5 12.5 l-0.3 12.8 -4.2 0.3 -4.3 0.3 0 -3.5z"/>
  <path d="M67 413.5 c0 -1.9 0.5 -3.5 1 -3.5 0.6 0 1 0.7 1 1.5 0 1 1 1.5 3 1.5 2.3 0 3 0.4 3 2 0 1.7 -0.7 2 -4 2 -3.9 0 -4 -0.1 -4 -3.5z"/>
  <path d="M126.3 416.3 c-1 -0.3 -1.3 -3.9 -1.3 -12.9 0 -11.7 0.1 -12.4 2 -12.4 1.9 0 2 0.7 2 11 l0 11 26 0 c25.3 0 26 0.1 26 2 0 2 -0.6 2 -26.7 1.9 -14.8 0 -27.4 -0.3 -28 -0.6z"/>
  <path d="M185 415 c0 -1.8 0.7 -2 7.5 -2 7.1 0 7.5 -0.1 7.5 -2.2 0 -3.9 1.2 -6.8 2.6 -6.8 1 0 1.4 1.5 1.4 5.9 0 7 -0.1 7.1 -11.1 7.1 -7.2 0 -7.9 -0.2 -7.9 -2z"/>
  <path d="M248.3 416.3 c-1 -0.3 -1.3 -3.9 -1.3 -13 0 -11.3 0.2 -12.4 1.8 -12.1 1.5 0.3 1.7 1.8 2 11.1 0.3 10.6 0.3 10.7 2.7 10.7 1.8 0 2.5 0.5 2.5 2 0 1.6 -0.6 2 -3.2 1.9 -1.8 0 -3.9 -0.3 -4.5 -0.6z"/>
  <path d="M264 415 c0 -1.9 0.7 -2 9 -2 8.3 0 9 0.1 9 2 0 1.9 -0.7 2 -9 2 -8.3 0 -9 -0.1 -9 -2z"/>
  <path d="M283 415 c0 -1.7 0.7 -2 4.5 -2 3.8 0 4.5 0.3 4.5 2 0 1.7 -0.7 2 -4.5 2 -3.8 0 -4.5 -0.3 -4.5 -2z"/>
  <path d="M304 415 c0 -1.6 0.7 -2 3.5 -2 2.8 0 3.5 0.4 3.5 2 0 1.6 -0.7 2 -3.5 2 -2.8 0 -3.5 -0.4 -3.5 -2z"/>
  <path d="M319 414.5 c0 -0.8 0.7 -1.5 1.5 -1.5 1.1 0 1.5 -2.1 1.7 -10.7 0.3 -9.3 0.5 -10.8 2.1 -11.1 1.5 -0.3 1.7 0.8 1.7 12.2 l0 12.6 -3.5 0 c-2.4 0 -3.5 -0.5 -3.5 -1.5z"/>
  <path d="M369 412.5 c0 -3.9 2.4 -5 3.3 -1.5 0.3 1.1 1.2 2 2.1 2 0.9 0 1.6 0.7 1.6 1.5 0 1 -1.1 1.5 -3.5 1.5 -3.3 0 -3.5 -0.2 -3.5 -3.5z"/>
  <path d="M465 403.4 c0 -11.4 0.2 -12.5 1.8 -12.2 1.5 0.3 1.7 1.8 2 11.1 0.2 7.9 0.6 10.7 1.5 10.4 1.7 -0.5 1.5 -56.9 -0.1 -57.5 -0.8 -0.2 -1.2 1.6 -1.2 6 0 7.7 -0.8 10.8 -2.6 10.8 -1.1 0 -1.4 -2.2 -1.4 -10 l0 -10 5 0 5 0 0 32 0 32 -5 0 -5 0 0 -12.6z"/>
  <path d="M383.7 375.3 c-0.4 -0.3 -0.7 -5.1 -0.7 -10.5 0 -8 -0.3 -9.8 -1.5 -9.8 -0.8 0 -1.5 -0.7 -1.5 -1.5 0 -1 1.1 -1.5 3.5 -1.5 l3.5 0 0 12 c0 9.3 -0.3 12 -1.3 12 -0.8 0 -1.7 -0.3 -2 -0.7z"/>
  <path d="M443 374 c0 -1.3 0.7 -2 2 -2 1.3 0 2 0.7 2 2 0 1.3 -0.7 2 -2 2 -1.3 0 -2 -0.7 -2 -2z"/>
  <path d="M43.6 372.8 c-0.3 -1.3 -0.6 -5.8 -0.6 -10 0 -6.3 -0.3 -7.8 -1.5 -7.8 -0.8 0 -1.5 -0.7 -1.5 -1.5 0 -1 1.1 -1.5 3.5 -1.5 l3.5 0 0 11.5 c0 9.1 -0.3 11.5 -1.4 11.5 -0.7 0 -1.6 -1 -2 -2.2z"/>
  <path d="M186 363.5 l0 -11.5 3.5 0 c2.4 0 3.5 0.5 3.5 1.5 0 0.8 -0.7 1.5 -1.5 1.5 -1.2 0 -1.5 1.5 -1.5 7.8 0 9 -0.7 12.2 -2.6 12.2 -1.1 0 -1.4 -2.4 -1.4 -11.5z"/>
  <path d="M247 363 l0 -11 3.5 0 c2.4 0 3.5 0.5 3.5 1.5 0 0.8 -0.7 1.5 -1.5 1.5 -1.2 0 -1.5 1.5 -1.5 7.3 0 8.5 -0.7 11.7 -2.6 11.7 -1.1 0 -1.4 -2.3 -1.4 -11z"/>
  <path d="M140 357.4 c0 -0.9 -0.9 -1.8 -2 -2.1 -3.5 -0.9 -2.4 -3.3 1.5 -3.3 3.3 0 3.5 0.2 3.5 3.5 0 2.4 -0.5 3.5 -1.5 3.5 -0.8 0 -1.5 -0.7 -1.5 -1.6z"/>
  <path d="M201 357.4 c0 -0.9 -0.9 -1.8 -2 -2.1 -3.5 -0.9 -2.4 -3.3 1.5 -3.3 3.3 0 3.5 0.2 3.5 3.5 0 2.4 -0.5 3.5 -1.5 3.5 -0.8 0 -1.5 -0.7 -1.5 -1.6z"/>
  <path d="M430 355.5 c0 -3.3 0.2 -3.5 3.5 -3.5 3.9 0 5 2.4 1.5 3.3 -1.1 0.3 -2 1.2 -2 2.1 0 0.9 -0.7 1.6 -1.5 1.6 -1 0 -1.5 -1.1 -1.5 -3.5z"/>
  <path d="M366 274.5 c0 -4.5 2 -4.5 4.1 0 l1.6 3.5 -2.8 0 c-2.6 0 -2.9 -0.3 -2.9 -3.5z"/>
  <path d="M364 267.6 c0 -5.4 1.2 -8.6 3.3 -8.6 1.7 0 1.9 0.5 1.3 3.1 -0.3 1.7 -0.6 4.2 -0.6 5.5 0 1.7 -0.6 2.4 -2 2.4 -1.4 0 -2 -0.7 -2 -2.4z"/>
  <path d="M115 246.5 c0 -4.5 2 -4.5 4.1 0 l1.6 3.5 -2.8 0 c-2.6 0 -2.9 -0.3 -2.9 -3.5z"/>
  <path d="M114 235.5 c0 -2.8 0.4 -3.5 2 -3.5 2.1 0 2.4 1 1.4 4.8 -1 3.6 -3.4 2.7 -3.4 -1.3z"/>
  <path d="M146.9 231.5 l-1.6 -3.5 2.8 0 c2.6 0 2.9 0.3 2.9 3.5 0 4.5 -2 4.5 -4.1 0z"/>
  <path d="M126 221.8 c0 -1.6 0.9 -1.8 7 -1.8 6.1 0 7 0.2 7 1.8 0 1.5 -0.9 1.8 -7 1.8 -6.1 0 -7 -0.3 -7 -1.8z"/>
  <path d="M388.5 202.9 c-22 -7.1 -48.4 -15.7 -58.7 -19 -16.8 -5.4 -18.8 -6.2 -18.8 -8.2 -0.1 -1.2 1.4 -7 3.2 -12.9 2.9 -9.5 3.6 -10.8 5.6 -10.8 1.2 0 2.2 -0.5 2.2 -1.1 0 -2.3 8.6 0.1 55.5 15.4 26.4 8.5 52.1 16.9 57 18.4 8.9 2.9 9 2.9 9.3 6.3 0.1 1.9 -1.3 8.2 -3.1 14 l-3.3 10.5 -4.4 0.2 c-3.4 0.2 -14.2 -2.9 -44.5 -12.8z m45.5 8.7 c0 -0.2 0.2 -1.1 0.5 -1.8 0.4 -1.1 -0.2 -1.3 -2.7 -1 -1.9 0.2 -8.2 -1.2 -14.7 -3.2 -6.3 -2 -11.7 -3.3 -11.9 -3.1 -0.6 0.6 -0.1 0.8 14.5 5.5 11.3 3.8 14.3 4.5 14.3 3.6z m-36.1 -11.9 c-0.2 -0.2 -4 -1.6 -8.4 -3.1 -8.8 -3.1 -19.7 -7.7 -20.5 -8.7 -0.3 -0.3 -2.3 -1.7 -4.5 -3.1 -4.3 -2.7 -7.8 -7.7 -6.7 -9.4 1.4 -2.2 4.6 -2.3 14.9 -0.9 8.5 1.2 10.8 1.2 11.5 0.3 0.5 -1 -7.3 -4 -30 -11.5 -16.9 -5.7 -31.1 -10.3 -31.7 -10.3 -1 0 -8 20.9 -7.2 21.7 0.4 0.3 13.5 4.5 71.7 22.8 9 2.8 12.6 3.5 10.9 2.2z"/>
  <path d="M69.7 199.3 c-2.5 -11 -3.3 -17.3 -2.2 -17.3 0.2 0 27.9 -6.3 61.4 -14 33.6 -7.7 62.2 -14 63.6 -14 1.8 0 2.5 0.5 2.5 1.9 0 1.1 0.4 2.1 0.9 2.3 1.2 0.4 5.6 22 4.9 23.9 -0.7 1.7 -117.8 29 -124.4 28.9 l-4 0 -2.7 -11.7z m33.8 2.3 c56.2 -13 92.8 -21.5 93.1 -21.8 0.9 -0.9 -4.2 -21.8 -5.3 -21.8 -0.7 0 -13.7 2.9 -29 6.4 -15.3 3.6 -38.8 9 -52.3 12.1 -13.5 3 -27.8 6.3 -31.7 7.2 -4 0.9 -7.3 2 -7.3 2.5 0 1.1 3.9 18.9 4.5 20.6 0.3 0.7 1.3 1.1 2.2 0.8 1 -0.3 12.6 -3 25.8 -6z"/>
  <path d="M114.9 190.4 c-1.8 -2.1 -0.3 -4.3 5 -7.3 5 -2.8 9.9 -4.1 29.2 -8.1 15.4 -3.2 34 -4.3 36.2 -2.1 0.8 0.8 0.8 1.1 0 1.1 -0.6 0 -0.9 0.8 -0.6 1.8 0.3 1.5 -1.1 2.2 -8.6 4.5 -9.6 2.9 -11.6 4.2 -5.3 3.2 6.2 -0.9 2.4 0.3 -11.8 3.5 -18.9 4.3 -18.8 4.2 -17 3 1.9 -1.3 1.5 -1.3 -11.5 0.5 -13.8 1.8 -14 1.8 -15.6 -0.1z"/>
  <path d="M27 99.6 l0 -20.3 4.6 -0.7 c2.6 -0.3 22.1 -0.7 43.3 -0.8 21.2 -0.1 34.6 -0.5 29.6 -0.8 -7.7 -0.5 -6.4 -0.7 9.5 -1 l18.5 -0.4 -17.5 -0.7 c-9.6 -0.3 -17.9 -0.8 -18.5 -0.9 -0.5 -0.2 1.7 -0.6 5 -1.1 9.6 -1.3 10 -1.4 10.6 -2.3 0.4 -0.5 2.4 -1 4.5 -1.1 4 -0.3 5.6 -0.7 11.2 -3.2 1.8 -0.8 4 -1.2 4.8 -0.9 0.8 0.3 1.7 -0.1 2 -0.9 0.4 -0.8 2.7 -1.6 6.2 -2 6.5 -0.8 9.7 -1.3 9.7 -1.5 0 -0.1 7.4 -0.3 16.4 -0.5 20.1 -0.4 25.3 -1.1 35.1 -4.1 2.5 -0.7 6.8 -1.6 9.5 -1.8 4.6 -0.4 16.1 -2 32.5 -4.6 9 -1.5 19.8 -2.9 25.5 -3.5 4.7 -0.5 14.4 -1.8 16 -2.2 1.1 -0.2 4.3 -0.6 7 -0.9 2.8 -0.2 7.7 -0.9 11 -1.4 3.3 -0.6 9 -1.2 12.7 -1.4 6.4 -0.4 15.6 -1.4 20.5 -2.1 1.2 -0.2 7.5 -0.6 14 -1 6.5 -0.3 13.8 -0.8 16.3 -1 4.7 -0.4 48.9 -2 87.1 -3 l22.5 -0.7 4.3 3.4 c4.5 3.4 11.2 14.5 12.6 20.6 0.3 1.7 1.1 3.4 1.6 3.7 0.5 0.4 0.9 2.7 0.9 5.3 0 5.3 1.6 4.7 2.3 -0.8 0.2 -1.9 0.5 0.4 0.5 5.3 l0.2 8.7 -6.6 0 c-5.4 0 -6.7 0.3 -7 1.8 -0.5 1.6 -12 1.7 -227.5 1.4 l-226.9 -0.2 0 19 c0 18.3 -0.1 19 -2 19 -1.9 0 -2 -0.7 -2 -20.4z"/>
 </g>
 <g fill="#799000">
  <path d="M37 496.5 l-2.3 -2.5 141.5 0 c77.8 0 156.4 0.3 174.6 0.7 31.3 0.6 33.2 0.7 33.2 2.5 0 1.7 -5.7 1.8 -172.3 1.8 l-172.4 0 -2.3 -2.5z"/>
  <path d="M66 413.5 c0 -3.9 2.4 -4.9 3.3 -1.4 0.4 1.5 1.1 2 2.2 1.5 0.9 -0.3 3 -0.6 4.6 -0.6 1.9 0 2.9 -0.5 2.9 -1.5 0 -0.8 0.5 -1.5 1 -1.5 0.6 0 1 1.6 1 3.5 l0 3.5 -7.5 0 -7.5 0 0 -3.5z"/>
  <path d="M126 413.5 c0 -1.9 0.5 -3.5 1 -3.5 0.6 0 1 0.7 1 1.5 0 1.7 -0.5 1.6 12 2 13 0.3 13 0.3 13 2 0 1.3 -2.2 1.5 -13.5 1.5 l-13.5 0 0 -3.5z"/>
  <path d="M154 415.5 c0 -1.9 -1.7 -1.7 24 -2.1 25.6 -0.3 23 -0.1 23 -1.9 0 -0.8 0.5 -1.5 1 -1.5 0.6 0 1 1.6 1 3.5 l0 3.5 -24.5 0 c-21.1 0 -24.5 -0.2 -24.5 -1.5z"/>
  <path d="M248 413.5 c0 -1.9 0.5 -3.5 1 -3.5 0.6 0 1 0.7 1 1.5 0 0.8 0.6 1.5 1.3 1.6 1.3 0 52.9 0 64.5 -0.1 5.7 0 7.2 -0.3 7.2 -1.5 0 -0.8 0.5 -1.5 1 -1.5 0.6 0 1 1.6 1 3.5 l0 3.5 -38.5 0 -38.5 0 0 -3.5z"/>
  <path d="M370 413.5 c0 -1.9 0.5 -3.5 1 -3.5 0.6 0 1 0.7 1 1.5 0 1.3 3.2 1.5 22.5 1.5 21.8 0 22.5 0.1 22.5 2 0 1.9 -0.7 2 -23.5 2 l-23.5 0 0 -3.5z"/>
  <path d="M466 413.5 c0 -1.9 0.5 -3.5 1 -3.5 0.6 0 1 0.7 1 1.5 0 0.8 0.9 1.5 2 1.5 1.1 0 2 -0.7 2 -1.5 0 -0.8 0.5 -1.5 1 -1.5 0.6 0 1 1.6 1 3.5 0 3.4 -0.1 3.5 -4 3.5 -3.9 0 -4 -0.1 -4 -3.5z"/>
  <path d="M38 354.5 c0 -3.4 0.1 -3.5 4 -3.5 3.9 0 4 0.1 4 3.5 0 1.9 -0.4 3.5 -1 3.5 -0.5 0 -1 -0.7 -1 -1.5 0 -0.8 -0.9 -1.5 -2 -1.5 -1.1 0 -2 0.7 -2 1.5 0 0.8 -0.4 1.5 -1 1.5 -0.5 0 -1 -1.6 -1 -3.5z"/>
  <path d="M140 356.5 c0 -1.3 -2.2 -1.5 -13.5 -1.5 -12.8 0 -13.5 -0.1 -13.5 -2 0 -1.9 0.7 -2 14.5 -2 l14.5 0 0 3.5 c0 1.9 -0.4 3.5 -1 3.5 -0.5 0 -1 -0.7 -1 -1.5z"/>
  <path d="M201 356.5 c0 -0.9 -0.9 -1.5 -2.5 -1.5 -1.8 0 -2.5 -0.5 -2.5 -2 0 -1.6 0.7 -2 3.5 -2 3.3 0 3.5 0.2 3.5 3.5 0 1.9 -0.4 3.5 -1 3.5 -0.5 0 -1 -0.7 -1 -1.5z"/>
  <path d="M255 353 c0 -2 0.7 -2 35.5 -2 34.8 0 35.5 0 35.5 2 0 2 -0.7 2 -35.5 2 -34.8 0 -35.5 0 -35.5 -2z"/>
  <path d="M28.2 296 c-1 -1.6 -1.2 -21.4 -1.2 -92.8 0.1 -49.9 0.3 -91.7 0.6 -92.9 0.4 -1.3 1.2 -2.3 2 -2.3 1.2 0 1.4 14.5 1.4 95 0 52.3 -0.3 95 -0.8 95 -0.4 0 -1.3 -0.9 -2 -2z"/>
  <path d="M481 188.4 c0 -103.8 0.1 -109.5 1.8 -109.2 1.6 0.3 1.7 6.3 2 107.3 0.2 106.8 0.1 111.5 -3 111.5 -0.4 0 -0.8 -49.3 -0.8 -109.6z"/>
  <path d="M328.9 288 c-4.7 -4.8 -7.9 -8.9 -7.9 -10.1 0 -1.1 -0.9 -5.7 -2.1 -10.2 -2.4 -9.5 -2.1 -14.5 1.6 -28.2 2.4 -8.6 2.7 -9.2 9.7 -16.2 6.1 -6.1 7.8 -7.3 10.5 -7.3 3 0 3.3 0.2 3.3 3.2 0 2.7 -1.3 4.6 -7.4 10.8 -7.1 7.2 -7.5 7.9 -9.9 16.4 l-2.5 8.9 2.6 9.6 c2.5 9.5 2.6 9.7 9.8 17.1 6.1 6.2 7.4 8.1 7.4 10.8 0 3 -0.2 3.2 -3.6 3.2 -3.1 0 -4.5 -1 -11.5 -8z"/>
  <path d="M370 197.3 c-31.6 -10.2 -57.9 -19.1 -58.3 -19.7 -1.3 -1.8 -0.2 -8.5 3 -18.6 3 -9.4 3.1 -9.5 6.4 -9.8 2.4 -0.3 21.9 5.6 63.2 18.9 l59.7 19.3 0 4 c0 6 -2 11.6 -4.2 11.6 -2.2 0 -2.3 -1.4 -0.3 -7.1 0.9 -2.3 1.2 -4.6 0.8 -5 -0.5 -0.3 -17.9 -6.1 -38.8 -12.9 -20.9 -6.7 -46.8 -15.1 -57.6 -18.6 -10.7 -3.5 -20.3 -6.4 -21.2 -6.4 -1 0 -2 1.3 -2.6 3.8 -0.6 2 -2.2 7 -3.5 10.9 l-2.5 7.2 20.7 6.7 c11.4 3.6 38 12.2 59.2 19 21.1 6.9 39 12.2 39.6 12 0.7 -0.3 1.5 -1.8 1.9 -3.5 0.8 -3.9 3.5 -4.2 3.5 -0.3 0 1.5 -0.3 3.7 -0.6 5 -1.3 4.7 -7 3.4 -68.4 -16.5z"/>
  <path d="M73 210.1 c0 -1.1 -0.4 -2.1 -0.8 -2.3 -1 -0.3 -5.2 -18.1 -5.2 -21.5 0 -1.3 0.5 -2.3 1 -2.3 0.6 0 1 -0.6 1 -1.3 0 -1.5 116.9 -28.7 123.2 -28.7 3.1 0 3.9 0.4 4.3 2.3 0.3 1.2 1.4 6 2.5 10.7 2 8.4 2.6 17 1.3 17 -0.3 0 -28 6.3 -61.4 14 -33.4 7.7 -61.9 14 -63.3 14 -1.9 0 -2.6 -0.5 -2.6 -1.9z m64.3 -15.7 c32.6 -7.5 59.5 -13.9 59.8 -14.3 0.7 -0.7 -3.8 -21.2 -4.9 -22.2 -0.5 -0.5 -121 26.6 -121.8 27.4 -0.1 0.1 1 5.3 2.4 11.5 1.7 7.6 3 11.2 3.9 11.2 0.8 0 28.1 -6.1 60.6 -13.6z"/>
  <path d="M27.7 104 c-0.7 -2.8 0.3 -6 1.9 -6 1 0 1.4 1.3 1.4 4 0 4.3 -2.3 5.7 -3.3 2z"/>
  <path d="M28 81 c0 -1.8 0.7 -2 6.5 -2 5.8 0 6.5 0.2 6.5 2 0 1.8 -0.7 2 -6.5 2 -5.8 0 -6.5 -0.2 -6.5 -2z"/>
 </g>
 <g fill="#88a000">
  <path d="M356.5 498 c-13.7 -0.4 -91.2 -0.8 -172.1 -0.9 l-147 -0.1 -2.7 -2.7 -2.6 -2.8 91.2 0.2 c108.9 0.2 330.4 2.1 343.5 2.9 9.1 0.6 9.3 0.6 7.6 2.5 -1.6 1.8 -3.6 1.9 -47.3 1.7 -25.1 -0.1 -56.8 -0.5 -70.6 -0.8z"/>
  <path d="M75 415.5 c0 -0.8 0.7 -1.5 1.6 -1.5 0.9 0 1.8 -0.9 2.1 -2 0.9 -3.5 3.3 -2.4 3.3 1.5 0 3.3 -0.2 3.5 -3.5 3.5 -2.4 0 -3.5 -0.5 -3.5 -1.5z"/>
  <path d="M68.1 354.8 l-0.1 -3.8 25.5 0 c21 0 25.5 0.2 25.5 1.4 0 2.2 -3.4 2.6 -27.2 2.6 -20.7 0 -22.7 0.1 -23.1 1.8 -0.3 0.9 -0.5 0 -0.6 -2z"/>
  <path d="M139.8 356.3 c-0.4 -1.5 -1.5 -1.8 -6.9 -1.6 -8.1 0.2 -11.9 -0.5 -11.9 -2.3 0 -1.1 2.2 -1.4 11 -1.4 l11 0 0 3.5 c0 3.7 -2.4 5 -3.2 1.8z"/>
  <path d="M200.8 356.3 c-0.3 -1.4 -1.2 -1.7 -4.6 -1.5 -3.7 0.3 -4.2 0.1 -4.2 -1.7 0 -1.8 0.6 -2.1 5 -2.1 l5 0 0 3.5 c0 3.7 -0.6 4.7 -1.2 1.8z"/>
  <path d="M247 354.5 l0 -3.5 10 0 c8.2 0 10 0.3 10 1.5 0 0.8 -0.8 1.6 -1.7 1.6 -4.5 0.4 -7.1 0.5 -11 0.7 -3.1 0.1 -4.3 0.6 -4.3 1.7 0 0.8 -0.7 1.5 -1.5 1.5 -1 0 -1.5 -1.1 -1.5 -3.5z"/>
  <path d="M384 356.5 c0 -1.3 -4.2 -1.5 -30.7 -1.7 -30.5 -0.2 -44.2 -0.4 -47.5 -0.7 -1 0 -1.8 -0.8 -1.8 -1.6 0 -1.3 5.2 -1.5 41 -1.5 l41 0 0 3.5 c0 1.9 -0.4 3.5 -1 3.5 -0.5 0 -1 -0.7 -1 -1.5z"/>
  <path d="M466 354.5 c0 -3.4 0.1 -3.5 4 -3.5 3.9 0 4 0.1 4 3.5 0 1.9 -0.4 3.5 -1 3.5 -0.5 0 -1 -0.7 -1 -1.5 0 -0.8 -0.9 -1.5 -2 -1.5 -1.1 0 -2 0.7 -2 1.5 0 0.8 -0.4 1.5 -1 1.5 -0.5 0 -1 -1.6 -1 -3.5z"/>
  <path d="M335.7 295.5 c-4.2 -2.4 -11.7 -9.4 -14.8 -13.7 -2.7 -3.7 -6.9 -19.1 -6.9 -25.2 0 -2.7 1.2 -9.4 2.7 -15 2.6 -9.6 2.9 -10.2 9.2 -16.8 6.6 -7.1 11.1 -9.8 16.2 -9.8 2.5 0 2.9 0.4 2.9 2.9 0 2.3 -1.5 4.4 -7.4 10 l-7.3 7.2 -2.7 10.3 -2.7 10.3 2.7 10.9 c3 11.8 5.7 15.8 14.4 21.9 3.3 2.3 4 3.3 4 6.1 0 3.2 -0.2 3.4 -3.2 3.3 -1.8 0 -5 -1.1 -7.1 -2.4z m-1.8 -10.2 l-7.6 -7.8 -2.8 -10.8 c-1.6 -5.9 -3 -10.5 -3.2 -10.3 -0.2 0.2 0.5 4 1.6 8.4 1.2 4.4 2.1 9 2.1 10.1 0 2 14.8 18.1 16.6 18.1 0.5 0 -2.6 -3.5 -6.7 -7.7z m0.1 -59 l7.5 -7.8 -7.7 7.5 c-4.3 4.1 -7.8 7.6 -7.8 7.7 0 0.8 1.1 -0.3 8 -7.4z"/>
  <path d="M428.3 216.3 c-1.5 -0.3 -2.3 -1.2 -2.3 -2.4 0 -1.8 0.5 -2 4.4 -1.4 l4.4 0.7 1.2 -5.1 c1.4 -6 4 -7.1 4 -1.6 0 2.4 -0.5 3.5 -1.5 3.5 -1 0 -1.5 1.1 -1.5 3.5 0 3.3 -0.2 3.5 -3.2 3.4 -1.8 -0.1 -4.3 -0.4 -5.5 -0.6z"/>
  <path d="M72 208.5 c0 -3.9 2.4 -5 3.3 -1.5 0.3 1.3 1 1.8 2.1 1.4 1.2 -0.4 1.6 0 1.6 1.5 0 1.7 -0.6 2.1 -3.5 2.1 -3.3 0 -3.5 -0.2 -3.5 -3.5z"/>
  <path d="M404.3 208.7 c-7.1 -2.4 -9.3 -3.5 -9.3 -4.9 0 -1 0.5 -1.8 1.2 -1.8 3.1 0 23.8 7.6 23.8 8.7 0 2.1 -5.8 1.4 -15.7 -2z"/>
  <path d="M83 208.6 c0 -0.8 1.9 -1.8 4.4 -2.5 6 -1.5 6.6 -1.4 6.6 0.8 0 1.3 -1 2 -3.1 2.5 -5.1 1 -7.9 0.7 -7.9 -0.8z"/>
  <path d="M96 205.6 c0 -0.8 1.9 -1.8 4.4 -2.5 6 -1.5 6.6 -1.4 6.6 0.8 0 1.3 -1 2 -3.1 2.5 -5.1 1 -7.9 0.7 -7.9 -0.8z"/>
  <path d="M113 201.6 c0 -1.3 2.8 -2.6 5.8 -2.6 0.6 0 1.2 0.9 1.2 2 0 1.6 -0.7 2 -3.5 2 -2.3 0 -3.5 -0.5 -3.5 -1.4z"/>
  <path d="M122 199.6 c0 -0.8 1.9 -1.8 4.4 -2.5 6 -1.5 6.6 -1.4 6.6 0.8 0 1.3 -1 2 -3.1 2.5 -5.1 1 -7.9 0.7 -7.9 -0.8z"/>
  <path d="M368.8 197.2 c-5.9 -2 -7.8 -3.1 -7.8 -4.4 0 -1 0.5 -1.8 1.2 -1.8 3.1 0 20.8 6.6 20.8 7.7 0 2 -5.6 1.4 -14.2 -1.5z"/>
  <path d="M139 195.6 c0 -1.3 2.8 -2.6 5.8 -2.6 0.6 0 1.2 0.9 1.2 2 0 1.6 -0.7 2 -3.5 2 -2.3 0 -3.5 -0.5 -3.5 -1.4z"/>
  <path d="M152 192.6 c0 -1.3 2.8 -2.6 5.8 -2.6 0.6 0 1.2 0.9 1.2 2 0 1.6 -0.7 2 -3.5 2 -2.3 0 -3.5 -0.5 -3.5 -1.4z"/>
  <path d="M161 190.6 c0 -1.3 2.8 -2.6 5.8 -2.6 0.6 0 1.2 0.9 1.2 2 0 1.6 -0.7 2 -3.5 2 -2.3 0 -3.5 -0.5 -3.5 -1.4z"/>
  <path d="M337.8 187.2 c-5.9 -2 -7.8 -3.1 -7.8 -4.4 0 -1 0.5 -1.8 1.2 -1.8 3.1 0 20.8 6.6 20.8 7.7 0 2 -5.6 1.4 -14.2 -1.5z"/>
  <path d="M174 187.6 c0 -1.3 2.8 -2.6 5.8 -2.6 0.6 0 1.2 0.9 1.2 2 0 1.6 -0.7 2 -3.5 2 -2.3 0 -3.5 -0.5 -3.5 -1.4z"/>
  <path d="M187 184.6 c0 -0.8 1.9 -1.8 4.4 -2.5 6 -1.5 6.6 -1.4 6.6 0.8 0 1.3 -1 2 -3.1 2.5 -5.1 1 -7.9 0.7 -7.9 -0.8z"/>
  <path d="M413.3 181.7 c-10.9 -3.6 -6.7 -6.5 4.4 -3 3.8 1.2 5.3 2.2 5.3 3.5 0 2.3 -1.8 2.2 -9.7 -0.5z"/>
  <path d="M81 180 c0 -1.6 0.7 -2 3.5 -2 4 0 4.9 2.4 1.3 3.4 -3.8 1 -4.8 0.7 -4.8 -1.4z"/>
  <path d="M196.1 170.3 c-3 -13.3 -3 -13.3 -4.7 -13.3 -0.8 0 -1.4 -0.4 -1.4 -1 0 -0.5 1.5 -1 3.3 -1 l3.4 0 2.1 10.3 c2.6 11.9 2.7 14.7 0.8 14.7 -0.9 0 -2.1 -3.2 -3.5 -9.7z"/>
  <path d="M308.8 176.6 c-1.2 -0.9 -1.8 -2.7 -1.8 -5.6 0 -4.7 3.6 -17.8 5.4 -19.8 0.7 -0.7 3.6 -1.5 6.4 -1.9 4.4 -0.5 5.2 -0.3 5.2 1.1 0 0.9 -0.7 1.6 -1.5 1.6 -0.9 0 -1.7 0.6 -2 1.3 -6.9 21.7 -6.7 21.1 -5.1 22.3 0.9 0.6 1.6 1.4 1.6 1.8 0 1.1 -6.5 0.6 -8.2 -0.8z"/>
  <path d="M116 172.1 c0 -1.9 3.4 -3.1 8.6 -3.1 4.1 0 2.7 2.7 -2 3.9 -6 1.5 -6.6 1.4 -6.6 -0.8z"/>
  <path d="M379.3 170.7 c-10.9 -3.6 -6.7 -6.5 4.4 -3 3.8 1.2 5.3 2.2 5.3 3.5 0 2.3 -1.8 2.2 -9.7 -0.5z"/>
  <path d="M133 168 c0 -1.6 0.7 -2 3.5 -2 4 0 4.9 2.4 1.3 3.4 -3.8 1 -4.8 0.7 -4.8 -1.4z"/>
  <path d="M142 166.1 c0 -1.9 3.4 -3.1 8.6 -3.1 4.1 0 2.7 2.7 -2 3.9 -6 1.5 -6.6 1.4 -6.6 -0.8z"/>
  <path d="M159 162 c0 -1.6 0.7 -2 3.5 -2 4 0 4.9 2.4 1.3 3.4 -3.8 1 -4.8 0.7 -4.8 -1.4z"/>
  <path d="M346.8 160.2 c-7.8 -2.6 -10.3 -5.2 -5.1 -5.2 1.5 0 5.7 1 9.5 2.2 5.1 1.6 6.8 2.7 6.8 4 0 2.4 -1.8 2.2 -11.2 -1z"/>
  <path d="M168 160.1 c0 -1.9 3.4 -3.1 8.6 -3.1 4.1 0 2.7 2.7 -2 3.9 -6 1.5 -6.6 1.4 -6.6 -0.8z"/>
  <path d="M181 157 c0 -1.6 0.7 -2 3.5 -2 4 0 4.9 2.4 1.3 3.4 -3.8 1 -4.8 0.7 -4.8 -1.4z"/>
  <path d="M480 81 c0 -1.3 0.7 -2 2 -2 1.3 0 2 0.7 2 2 0 1.3 -0.7 2 -2 2 -1.3 0 -2 -0.7 -2 -2z"/>
 </g>
 <g fill="#91af00">
  <path d="M405.5 496.9 c-29.7 -0.4 -74.7 -0.9 -100 -1.3 -25.3 -0.3 -50.2 -0.6 -55.2 -0.6 -8.8 0 -9.3 -0.1 -9.3 -2.1 l0 -2.1 119.5 0.3 119.4 0.4 -3.2 3.3 c-3 3.2 -3.4 3.3 -10.2 3 -3.8 -0.2 -31.3 -0.6 -61 -0.9z"/>
  <path d="M247 353.6 l0 -3.3 6.1 -0.7 c7.9 -0.8 37.7 -0.8 85.2 0.1 35.7 0.6 37.7 0.7 37.7 2.5 0 1.7 -2.5 1.8 -63 1.8 -55.3 0 -63 0.2 -63 1.5 0 0.8 -0.7 1.5 -1.5 1.5 -1 0 -1.5 -1 -1.5 -3.4z"/>
  <path d="M148 299.6 l0 -3.4 8.9 -2.2 8.9 -2.2 8 -8.1 c6.6 -6.9 8.2 -9.1 9.5 -13.7 4 -14.2 4 -13.3 1.2 -23.8 l-2.6 -9.7 -7.9 -8 c-6.7 -6.7 -8 -8.6 -8 -11.3 0 -2.8 0.3 -3.2 2.8 -3.2 4.7 0 10.3 3.5 17.4 10.7 6.2 6.4 6.8 7.3 9.2 15.8 1.7 5.8 2.6 11.3 2.6 16 0 6.9 -2.5 18.9 -4.9 23.3 -2 3.7 -15.7 16.9 -18.2 17.5 -1.3 0.3 -6.6 1.7 -11.8 3.1 -5.1 1.4 -10.6 2.6 -12.2 2.6 -2.6 0 -2.9 -0.3 -2.9 -3.4z"/>
  <path d="M355 302 c0 -0.5 -1.8 -1 -3.9 -1 -2.2 0 -4.6 -0.7 -5.5 -1.5 -0.8 -0.8 -2.5 -1.5 -3.9 -1.5 -1.3 0 -3.8 -0.5 -5.6 -1.1 -2.6 -0.9 -3.1 -1.6 -3.1 -4.5 l0 -3.3 5.3 3 5.2 3.1 -2.9 -3.1 c-1.7 -1.7 -2.7 -3.1 -2.4 -3.1 1.5 0 6.8 2.3 6.8 3 0 0.4 2.4 1 5.2 1.3 2.9 0.4 5.4 1.1 5.6 1.7 0.2 0.5 1.7 1 3.3 1 2.7 0 2.9 0.3 2.9 3.5 0 3.3 -0.2 3.5 -3.5 3.5 -1.9 0 -3.5 -0.4 -3.5 -1z"/>
  <path d="M318 277.4 c0 -4.5 2.2 -4.3 5.1 0.4 l2.1 3.2 -3.6 0 c-3.5 0 -3.6 -0.1 -3.6 -3.6z"/>
  <path d="M341 219.5 c1.1 -1.3 1 -1.4 -0.4 -0.9 -1.2 0.5 -1.6 0 -1.6 -1.9 0 -2.1 0.8 -2.7 7 -4.6 3.9 -1.3 9.5 -2.5 12.5 -2.8 l5.5 -0.6 0 3.5 0 3.5 -9.9 2.6 c-11.7 3.2 -15 3.5 -13.1 1.2z"/>
  <path d="M410.8 211.2 c-3.9 -1.2 -4.8 -2 -4.8 -3.8 0 -2.3 0.1 -2.3 4.1 -0.9 2.2 0.8 5.8 1.9 8 2.5 4.9 1.3 5.4 4 0.7 3.9 -1.8 0 -5.4 -0.8 -8 -1.7z"/>
  <path d="M195 182.5 c0 -0.8 0.7 -1.5 1.5 -1.5 2 0 1.9 -0.6 -0.7 -12.9 -1.7 -8 -2.6 -10.5 -4 -10.9 -1 -0.2 -1.8 -1.1 -1.8 -1.9 0 -1.3 1.1 -1.5 5.5 -1.1 3 0.3 5.8 0.7 6.1 1.1 1.3 1.3 4.4 16.3 4.4 21.2 0 4.5 -0.3 5.1 -2.7 6.3 -3.8 1.7 -8.3 1.6 -8.3 -0.3z"/>
 </g>
 <g fill="#9cab00">
  <path d="M32.3 491.7 l-3.7 -3.4 0 -10.4 c-0.1 -9.1 0.1 -10.4 1.7 -10.7 1.3 -0.3 1.7 0.3 1.7 2.7 0 1.7 0.3 3.1 0.8 3.1 0.4 0 1.3 2.4 2 5.2 0.7 3.3 2.3 6.3 4 8 l2.7 2.6 99 0.6 c54.5 0.4 101.8 0.9 105.3 1.2 6.4 0.6 8.5 2.6 4 3.7 -1.2 0.4 -49.8 0.7 -108 0.7 l-105.8 0 -3.7 -3.3z"/>
  <path d="M28.9 429.6 c-0.2 -0.2 -0.3 -7.1 -0.2 -15.3 0.1 -8.1 0.2 -28.2 0.2 -44.7 l0.1 -29.8 3.8 0.7 c2 0.3 5.4 2 7.4 3.6 2.8 2.2 4.7 2.9 7.9 2.9 2.3 0 6 0.8 8 1.8 3.3 1.4 3.9 2.2 3.9 5 0 3.2 0 3.2 -4.9 3.2 -2.7 0 -6.2 0.3 -7.8 0.6 -2.5 0.5 -3.1 0.2 -3.6 -1.6 -0.3 -1.2 -1.1 -2 -1.9 -1.8 -1.9 0.7 -1.9 58.9 0 59.6 0.7 0.2 1.6 -0.5 1.9 -1.7 0.9 -3.5 3.3 -2.5 3.3 1.4 0 2.4 -0.5 3.5 -1.5 3.5 -0.8 0 -1.5 0.5 -1.5 1 0 0.6 -0.6 1 -1.4 1 -0.7 0 -3.7 2.5 -6.5 5.5 -4.9 5.2 -6.2 6.1 -7.2 5.1z"/>
  <path d="M125 413.5 c0 -3.9 2.4 -5 3.3 -1.5 0.3 1.1 1.2 2 2.1 2 0.9 0 1.6 0.7 1.6 1.5 0 1 -1.1 1.5 -3.5 1.5 -3.3 0 -3.5 -0.2 -3.5 -3.5z"/>
  <path d="M197 415.5 c0 -0.8 0.7 -1.5 1.6 -1.5 0.9 0 1.8 -0.9 2.1 -2 0.9 -3.5 3.3 -2.4 3.3 1.5 0 3.3 -0.2 3.5 -3.5 3.5 -2.4 0 -3.5 -0.5 -3.5 -1.5z"/>
  <path d="M247 413.5 c0 -3.9 2.4 -5 3.3 -1.5 0.3 1.1 1.2 2 2.1 2 0.9 0 1.6 0.7 1.6 1.5 0 1 -1.1 1.5 -3.5 1.5 -3.3 0 -3.5 -0.2 -3.5 -3.5z"/>
  <path d="M319 415.5 c0 -0.8 0.7 -1.5 1.6 -1.5 0.9 0 1.8 -0.9 2.1 -2 0.9 -3.5 3.3 -2.4 3.3 1.5 0 3.3 -0.2 3.5 -3.5 3.5 -2.4 0 -3.5 -0.5 -3.5 -1.5z"/>
  <path d="M369 413.5 c0 -3.9 2.4 -5 3.3 -1.5 0.3 1.1 1.2 2 2.1 2 0.9 0 1.6 0.7 1.6 1.5 0 1 -1.1 1.5 -3.5 1.5 -3.3 0 -3.5 -0.2 -3.5 -3.5z"/>
  <path d="M411 415.6 c0 -2.1 3.3 -2.6 18.3 -2.6 11.5 0 13.7 -0.2 13.7 -1.5 0 -0.8 0.7 -1.5 1.5 -1.5 1 0 1.5 1.1 1.5 3.5 l0 3.5 -17.5 0 c-14.2 0 -17.5 -0.3 -17.5 -1.4z"/>
  <path d="M465 413.5 c0 -3.9 2.4 -5 3.3 -1.5 0.3 1.1 1 2 1.7 2 0.7 0 1.4 -0.9 1.7 -2 0.9 -3.5 3.3 -2.4 3.3 1.5 l0 3.5 -5 0 -5 0 0 -3.5z"/>
  <path d="M64.3 357.3 c-1.8 -0.4 -2.3 -1.1 -2.3 -3.8 0 -2.2 0.6 -3.5 1.8 -4.1 2.9 -1.3 80.2 -1.8 80.2 -0.5 0 0.6 1.1 1.1 2.5 1.1 2.2 0 2.5 0.4 2.5 3.5 0 3.5 0 3.5 -4.5 3.5 -3.4 0 -4.5 -0.4 -4.5 -1.6 0 -1.4 -3.6 -1.5 -34.2 -1.3 -18.9 0.1 -34.9 0.4 -35.5 0.7 -0.7 0.2 -1.3 1 -1.3 1.8 0 1.4 -0.6 1.5 -4.7 0.7z"/>
  <path d="M185.7 357.3 c-0.4 -0.3 -0.7 -2.1 -0.7 -4 l0 -3.3 9.5 0 9.5 0 0 4 c0 4.3 -2.3 5.7 -3.3 2.1 -0.4 -1.5 -1.2 -1.9 -3.3 -1.6 -1.6 0.2 -4.1 0.4 -5.6 0.4 -1.8 0.1 -2.8 0.6 -2.8 1.6 0 1.5 -2.1 2.1 -3.3 0.8z"/>
  <path d="M383.7 356 c-0.3 -1.2 -1.3 -1.9 -2.4 -1.8 -3.6 0.3 -5.3 -0.2 -5.3 -1.7 0 -1.2 1.3 -1.5 5.5 -1.5 l5.5 0 0 3.5 c0 3.9 -2.4 5 -3.3 1.5z"/>
  <path d="M430 354.5 l0 -3.5 8 0 8 0 0 3.5 c0 2.4 -0.5 3.5 -1.5 3.5 -0.8 0 -1.5 -0.7 -1.5 -1.5 0 -1.1 -1.2 -1.5 -5 -1.5 -3.8 0 -5 0.4 -5 1.5 0 0.8 -0.7 1.5 -1.5 1.5 -1 0 -1.5 -1.1 -1.5 -3.5z"/>
  <path d="M465 354.5 l0 -3.5 5 0 5 0 0 3.5 c0 3.9 -2.4 5 -3.3 1.5 -0.3 -1.1 -1 -2 -1.7 -2 -0.7 0 -1.4 0.9 -1.7 2 -0.9 3.5 -3.3 2.4 -3.3 -1.5z"/>
  <path d="M264 351 c0 -0.5 2.5 -1 5.5 -1 3 0 5.5 0.5 5.5 1 0 0.6 -2.5 1 -5.5 1 -3 0 -5.5 -0.4 -5.5 -1z"/>
  <path d="M277 351 c0 -0.5 1.6 -1 3.5 -1 1.9 0 3.5 0.5 3.5 1 0 0.6 -1.6 1 -3.5 1 -1.9 0 -3.5 -0.4 -3.5 -1z"/>
  <path d="M349 300.9 c-4.1 -1.1 -7.9 -2.4 -8.5 -2.8 -0.5 -0.5 -2.6 -1.4 -4.7 -2 -2.4 -0.8 -6.2 -3.8 -11 -8.9 -7.1 -7.5 -7.4 -7.9 -9.7 -17 -2.8 -11.1 -2.6 -20.9 0.9 -31.7 1.9 -6.1 3.2 -7.9 9.8 -14.8 4.2 -4.3 8.7 -8 10.2 -8.3 1.4 -0.3 3.3 -0.9 4.2 -1.5 2.3 -1.2 7.8 -1.2 7.8 0.1 0 0.5 -0.8 1.4 -1.7 2 -1.7 1.1 -1.7 1.1 0 0.6 1.4 -0.5 1.8 -0.1 1.5 1.5 -0.2 1.5 -1.7 2.7 -4.5 3.8 -5.3 2 -13.3 9.7 -13.3 12.7 0 5 -1.3 8.4 -3.1 8.4 -2.2 0 -2.3 -1.1 -0.9 -6 0.6 -2.2 3.9 -6.4 9.2 -11.7 7.7 -7.8 8 -8.1 4 -6.2 -2.2 1.1 -7 5.1 -10.5 8.8 -6.2 6.6 -6.4 7.1 -9.2 17.6 l-2.9 10.8 2.4 9.1 c1.3 5 2.4 9.9 2.4 10.8 0 0.9 0.3 1.6 0.6 1.5 0.9 -0.2 14.7 14.3 14.1 14.9 -0.3 0.3 0.3 0.2 1.3 -0.2 1.5 -0.6 1.7 -0.4 1.1 0.6 -0.6 1 -0.4 1.2 0.8 0.7 1 -0.3 1.7 -0.2 1.7 0.3 0 0.6 0.6 1 1.2 1 0.7 0 -2.4 -3.7 -7 -8.3 -5.3 -5.3 -8.6 -9.5 -9.2 -11.7 -1.4 -4.9 -1.3 -6 0.9 -6 1.8 0 3.1 3.4 3.1 8.4 0 3.1 7.6 10.1 14 12.9 3 1.3 8.8 3.2 12.8 4.2 7.2 1.7 7.2 1.7 7.2 5.1 0 3.3 -0.1 3.4 -3.7 3.3 -2.1 0 -7.2 -0.9 -11.3 -2z"/>
  <path d="M128.5 300.2 c-2.7 -0.9 -5.1 -2 -5.3 -2.4 -0.2 -0.4 -1.4 -0.8 -2.7 -0.8 -1.4 0 -4.5 -2.1 -8.1 -5.5 -3.2 -3 -6.1 -5.5 -6.4 -5.5 -2.1 -0.1 -9 -23.5 -9 -30.2 0 -1.8 1.6 -8.5 3.5 -14.8 3.3 -11.4 3.4 -11.5 9.9 -17.7 5.5 -5.3 7.2 -6.3 10.1 -6.3 3.3 0 3.5 0.2 3.5 3.4 0 2.9 -1 4.3 -6.9 9.7 -6.9 6.4 -6.9 6.4 -9.5 16.1 l-2.6 9.7 2.7 9.8 c2.6 9.5 2.9 10 9.7 17.1 3.8 4 7.3 7.6 7.6 8 0.3 0.4 4 1.6 8.3 2.6 l7.7 1.8 0 3.4 c0 3.3 -0.1 3.4 -3.7 3.3 -2.1 0 -6 -0.8 -8.8 -1.7z"/>
  <path d="M321.6 258.5 c-0.9 -3.6 1.3 -11.5 3.2 -11.5 1.2 0 1.4 0.9 0.8 5.3 -0.3 2.8 -0.6 6 -0.6 7 0 2.6 -2.7 2 -3.4 -0.8z"/>
  <path d="M422.8 214.8 c-5.2 -1.6 -6.8 -2.5 -6.8 -4 0 -1.5 0.5 -1.7 3.2 -1.3 1.7 0.3 3.4 0.7 3.7 0.9 0.3 0.2 3 1.1 5.9 2 5.2 1.5 5.3 1.5 6.2 -0.7 0.7 -1.9 0.9 -1.7 0.9 1.6 0.1 3.5 0 3.7 -3.1 3.6 -1.8 0 -6.3 -1 -10 -2.1z"/>
  <path d="M73 211.4 c-2.2 -0.6 -6.4 -20.9 -5.5 -26.3 0.4 -2.3 0.9 -4.1 1.2 -4.1 0.2 0 6.4 -1.6 13.6 -3.5 12.4 -3.2 42.9 -10.4 82.4 -19.5 18.3 -4.2 27.3 -5.1 27.3 -2.6 0 0.9 -1.9 1.8 -5.2 2.6 -13.6 2.8 -115.8 26.7 -116.3 27.2 -0.3 0.2 0.7 5.7 2.2 12.1 2.4 10.6 2.8 11.6 4.7 11.2 1.2 -0.3 28.6 -6.6 60.9 -14 32.3 -7.4 59.2 -13.5 59.7 -13.5 0.6 0 1 0.8 1 1.8 0 1.6 -2.9 2.6 -20.2 6.5 -11.2 2.6 -37.7 8.7 -59.1 13.7 -35.6 8.3 -42.5 9.5 -46.7 8.4z"/>
  <path d="M376 199.8 c-15.1 -5 -27.6 -9.4 -27.8 -9.9 -0.2 -0.5 -1.5 -0.9 -2.9 -0.9 -2.6 0 -34.8 -10.1 -38.4 -12.1 -1.5 -0.7 -1.9 -2.1 -1.9 -5.8 0 -5.6 4.3 -19.1 6.7 -20.8 4.7 -3.6 31.3 1.5 31.3 5.9 0 2.4 -1.2 2.3 -11.5 -1.2 -9 -3 -14.3 -3.2 -16.3 -0.6 -1.1 1.3 -5.2 14.8 -5.2 16.9 0 2.5 6.4 4.9 52.5 19.7 45.5 14.7 47.5 15.4 47.5 17 0 2.3 -8 0.3 -34 -8.2z"/>
  <path d="M437 205.7 c0 -0.8 0.9 -4 2 -7.2 1.1 -3.2 2 -6.3 2 -7 0 -0.6 -13.7 -5.6 -30.5 -11 -19.4 -6.3 -30.5 -10.4 -30.5 -11.2 0 -0.8 1.2 -1.3 2.7 -1.3 3.3 0 27.7 7.9 28.1 9.1 0.2 0.5 1.6 0.9 3 0.9 3.2 0 27.6 7.9 28 9.1 0.2 0.5 1 0.9 1.8 0.9 2 0 1.8 4.2 -0.8 12.2 -1.6 5.1 -2.7 6.8 -4 6.8 -1 0 -1.8 -0.6 -1.8 -1.3z"/>
  <path d="M359.8 164.2 c-8.1 -2.7 -13.8 -5.2 -13.8 -5.9 0 -2.2 5 -1.4 18.2 2.9 10 3.3 12.8 4.6 12.8 6 0 2.5 -1.7 2.2 -17.2 -3z"/>
  <path d="M28 82.2 c0 -1.8 0.8 -2.1 10.3 -2.7 5.6 -0.3 108.1 -0.5 227.7 -0.3 206.2 0.3 217.5 0.4 217.8 2.1 0.3 1.6 -10.8 1.7 -222.5 1.7 -122.5 0 -225.2 0.3 -228 0.6 -4.9 0.6 -5.3 0.5 -5.3 -1.4z"/>
 </g>
 <g fill="#a2bb00">
  <path d="M383 494.4 c-20.1 -0.2 -105.8 -0.8 -190.5 -1.4 -150.4 -1.2 -154 -1.2 -156 -3.2 -2 -1.9 -0.1 -1.9 216.5 -1.8 243.1 0.2 226.2 0.7 226.8 -6.4 0.3 -2.9 0.7 -3.6 2 -3.4 1.3 0.3 1.7 1.4 1.7 4.8 0 3.6 -0.6 5.2 -3.2 8 l-3.1 3.5 -28.9 0 c-15.8 0.1 -45.2 0 -65.3 -0.1z"/>
  <path d="M31.4 480.5 c-0.4 -0.8 -1 -1.2 -1.5 -0.9 -0.5 0.3 -0.9 -0.6 -0.9 -2 0 -2.1 0.5 -2.6 2.5 -2.6 2.2 0 2.5 0.4 2.5 3.5 0 3.5 -1.6 4.7 -2.6 2z"/>
  <path d="M476 423.5 c-2.4 -2.5 -5 -4.5 -5.7 -4.5 -0.7 0 -1.3 -1.1 -1.3 -2.5 0 -1.6 0.6 -2.5 1.5 -2.5 1.3 0 1.5 -4 1.5 -30 0 -29.3 0 -30 -2 -30 -1.1 0 -2 0.7 -2 1.5 0 1.3 -2.1 1.5 -12.5 1.5 -10.4 0 -12.5 -0.2 -12.5 -1.5 0 -1.1 -1.2 -1.5 -5 -1.5 -3.8 0 -5 0.4 -5 1.5 0 1.3 -3.4 1.5 -24.5 1.5 -20.3 0 -24.5 -0.2 -24.5 -1.4 0 -1.1 -2.6 -1.6 -11.2 -2 -12.8 -0.8 -113.3 -1.3 -119 -0.7 -3.3 0.4 -3.8 0.8 -3.8 2.9 0 2.2 -0.3 2.4 -3.1 1.8 -1.7 -0.3 -12.8 -0.6 -24.5 -0.6 -20.9 0 -21.4 0 -21.4 -2.1 0 -1.8 -0.5 -2 -6.3 -1.7 -5.5 0.3 -6.3 0.5 -5.9 2.1 0.4 1.6 -1.1 1.7 -21.9 1.7 -12.3 0 -23.4 -0.3 -24.6 -0.6 -3.3 -0.9 -2.8 -2.2 1 -2.7 l3.2 -0.4 -3.3 -0.1 c-2.1 -0.1 -3.1 -0.6 -2.7 -1.3 0.7 -1.1 -67.6 -0.7 -72.4 0.5 -3.2 0.7 -3.9 1.6 -1.3 1.6 1.3 0 2.2 0.6 2.2 1.5 0 1.2 -1.5 1.5 -7.2 1.5 -4 -0.1 -8.6 -0.7 -10.3 -1.5 l-3 -1.3 4.5 -0.1 4.4 -0.1 -3.9 -2 c-2.2 -1.1 -5.9 -2 -8.3 -2 -3.1 0 -5.2 -0.7 -7.5 -2.6 -1.8 -1.4 -3.6 -2.5 -4.2 -2.5 -2.1 -0.1 -4.5 -2 -4.5 -3.5 0 -1.1 0.9 -1.4 3.3 -1.2 2.4 0.2 3.3 0.8 3.5 2.5 0.3 1.8 1.1 2.2 7 2.7 3.7 0.4 101.2 0.8 216.7 0.9 l210 0.2 4.9 -2.7 c8.4 -4.8 8.6 -4.6 8.6 9 0 6.4 0.1 25.9 0.2 43.2 0.1 26.4 -0.1 31.5 -1.3 31.8 -0.8 0.1 -3.4 -1.8 -5.9 -4.3z"/>
  <path d="M34.5 420 c2.1 -2.2 4.5 -4 5.2 -4 0.7 0 1.3 -0.4 1.3 -1 0 -0.5 0.6 -1 1.4 -1 0.8 0 1.7 -0.8 1.9 -1.7 0.3 -1 0.5 -0.4 0.6 1.4 0.1 3.9 -0.7 6.3 -2.4 6.3 -0.6 0 -2 0.9 -3 2 -1.2 1.3 -3.1 2 -5.4 2 l-3.5 0 3.9 -4z"/>
  <path d="M196 416 c0 -1.5 0.7 -2 2.5 -2 1.6 0 2.5 -0.6 2.5 -1.5 0 -0.8 0.5 -1.5 1 -1.5 0.6 0 1 1.6 1 3.5 0 3.3 -0.2 3.5 -3.5 3.5 -2.8 0 -3.5 -0.4 -3.5 -2z"/>
  <path d="M246 414.5 c0 -2.8 0.4 -3.5 2 -3.5 1.1 0 2 0.7 2 1.5 0 0.8 0.7 1.5 1.5 1.5 0.8 0 1.5 0.9 1.5 2 0 1.6 -0.7 2 -3.5 2 -3.3 0 -3.5 -0.2 -3.5 -3.5z"/>
  <path d="M143 303.4 c-1.4 -0.3 -4.4 -0.7 -6.7 -1 -3.3 -0.4 -4.3 -0.9 -4.3 -2.4 0 -1 0.8 -2.1 1.8 -2.3 1.6 -0.4 1.6 -0.5 0 -0.6 -2.7 -0.2 -2.2 -2.1 0.5 -2.1 1.3 0 4.8 0.5 7.8 1 4.8 0.9 6.8 0.7 15 -1.5 5.2 -1.5 10.5 -2.9 11.9 -3.2 1.4 -0.4 5.3 -3.6 8.8 -7.2 3.4 -3.6 6.2 -6.1 6.2 -5.6 0 0.5 -3.4 4.4 -7.6 8.6 -6.6 6.6 -7.3 7.6 -4.9 7.1 2.9 -0.5 16.4 -13.2 18.6 -17.4 1.9 -3.6 4.9 -15.9 4.9 -20.3 0 -2.3 -1.2 -8.1 -2.6 -13 -2.4 -8.5 -3 -9.4 -9.2 -15.8 -3.7 -3.8 -8.5 -7.7 -10.7 -8.8 -3.7 -1.8 -3.3 -1.3 4.3 6.3 4.5 4.6 8.2 8.8 8.2 9.3 0 0.5 -2.8 -1.8 -6.2 -5.2 -7.2 -6.9 -9.6 -8.2 -22.5 -11.4 l-9.3 -2.4 0 -3.2 c0 -2.7 0.5 -3.4 2.6 -3.9 3.5 -0.9 10.4 0.2 20.2 3.2 7.6 2.3 9 3.1 15.8 9.6 8.7 8.3 9.9 10.2 13.1 21.8 2.9 10.6 2.9 15.1 -0.1 26.8 -2.7 10.5 -5.4 15 -13.2 22.1 -6 5.5 -11 8.1 -17.4 9.2 -2.5 0.5 -7.2 1.3 -10.5 1.9 -5.9 1 -9.7 1.1 -14.5 0.4z"/>
  <path d="M351.5 302.4 c-3.3 -0.7 -8.7 -1.9 -12 -2.5 -5.5 -1.1 -6.6 -1.8 -13.8 -8.8 -9 -8.7 -9.7 -9.8 -12.6 -20.4 -2.7 -10 -2.7 -18.2 0.2 -28.7 3.1 -11.2 4.4 -13.4 11.6 -20.3 9 -8.6 19.5 -12.7 32.9 -12.7 l7.2 0 0 3.5 c0 3.3 -0.2 3.5 -3.3 3.5 -1.9 0 -7.6 1.4 -12.8 3 -8.5 2.8 -10 3.7 -15.9 9.3 -4.9 4.6 -4.5 4.1 1.5 -2.1 5.6 -5.7 9.2 -8.6 11.8 -9.4 2 -0.6 3.5 -1.3 3.3 -1.5 -0.2 -0.3 -3.4 0.5 -7 1.7 -5.6 1.9 -7.5 3.3 -13.9 9.9 -6.5 6.7 -7.8 8.5 -9.7 14.6 -3.5 11.2 -3.6 15.7 -0.6 26.5 2.5 9.2 2.8 9.6 9.8 16.8 6.9 7 9.9 9 15.8 10.7 2.3 0.6 2.2 0.5 -0.5 -1.3 -1.6 -1.1 -6.1 -5.3 -10 -9.3 l-7 -7.4 6.5 6.2 c6.8 6.5 12.7 9.3 26.4 12.4 5.4 1.2 5.6 1.3 5.6 4.6 0 3.2 -0.1 3.3 -3.7 3.2 -2.1 0 -6.5 -0.7 -9.8 -1.5z m9.4 -2.8 c-0.7 -0.7 -13.1 -3.7 -13.6 -3.3 -0.2 0.3 2.2 1.1 5.4 2 5.9 1.5 9 2 8.2 1.3z m-4.9 -85.6 c2 -0.6 2.1 -0.8 0.5 -0.8 -1.1 0 -2.9 0.3 -4 0.8 -2.5 1.1 0.1 1.1 3.5 0z"/>
  <path d="M367 299.7 l0 -3.2 8.8 -2.3 c4.8 -1.2 9.5 -2.2 10.5 -2.2 1 0 1.7 -0.7 1.7 -1.8 0 -1 2.8 -4.6 6.3 -8 5.1 -5 6.9 -6.2 9.5 -6.2 3 0 3.2 0.3 3.2 3.3 0 2.7 -1.1 4.4 -6.3 9.5 -3.9 3.9 -7.1 6.2 -8.5 6.2 -1.4 0 -2.2 0.6 -2.2 1.8 0 1.3 -2 2.2 -9.3 4 -12.6 3.1 -13.7 3 -13.7 -1.1z"/>
  <path d="M117.5 296.3 c-4.4 -2.3 -8.6 -6.4 -10.1 -10 -0.8 -1.8 -2 -3.3 -2.8 -3.3 -1.8 0 -2.6 -2.2 -2.6 -6.9 0 -2.1 -0.7 -6 -1.5 -8.7 -1.4 -4.8 -2.1 -12.3 -0.9 -11.1 0.3 0.3 1.7 5 3.1 10.4 1.3 5.4 3.2 10.9 4.1 12.3 0.9 1.4 1.5 2.9 1.4 3.3 -0.1 0.5 0.1 0.6 0.6 0.3 0.5 -0.3 1.8 0.7 3 2.3 1.1 1.5 4 4.3 6.4 6.1 3.5 2.7 3 2 -2.7 -4 -3.8 -4.1 -7.3 -7.7 -7.6 -8 -0.3 -0.3 -1.5 -4.1 -2.7 -8.5 -1.2 -4.4 -2.6 -9.5 -3.1 -11.2 -0.9 -3 -0.8 -3.3 1.3 -3.3 1.9 0 2.5 1.1 4.6 9.6 l2.5 9.6 8.2 8.1 c7.2 7 8.2 8.4 8.1 11.4 -0.1 3 -0.4 3.3 -3.2 3.2 -1.7 -0.1 -4.4 -0.8 -6.1 -1.6z"/>
  <path d="M403 270.5 c0 -3.3 0.2 -3.5 3.5 -3.5 3.3 0 3.5 0.2 3.5 3.5 0 3.3 -0.2 3.5 -3.5 3.5 -3.3 0 -3.5 -0.2 -3.5 -3.5z"/>
  <path d="M406 259.5 c0 -3.3 0.2 -3.5 3.5 -3.5 3.3 0 3.5 0.2 3.5 3.5 0 3.3 -0.2 3.5 -3.5 3.5 -3.3 0 -3.5 -0.2 -3.5 -3.5z"/>
  <path d="M183.6 243.9 c-1 -5.1 -0.7 -7.9 0.8 -7.9 0.8 0 1.8 1.9 2.5 4.4 1.5 6 1.4 6.6 -0.8 6.6 -1.3 0 -2 -1 -2.5 -3.1z"/>
  <path d="M104 233.7 c0 -3.3 2.4 -6.7 4.8 -6.7 0.7 0 1.2 -0.7 1.2 -1.5 0 -0.8 0.9 -1.5 2 -1.5 1.5 0 2 -0.7 2 -2.6 0 -3.5 2.6 -5.3 7.3 -5.4 3.5 0 3.7 0.2 3.7 3.1 0 3.5 -2.3 5.8 -5.7 5.9 -1.9 0 -2.3 0.6 -2.3 3 0 2 -0.5 3 -1.5 3 -0.8 0 -1.5 0.6 -1.5 1.3 0 2.3 -3.5 4.7 -6.8 4.7 -3 0 -3.2 -0.3 -3.2 -3.3z m12.5 -9.1 c3 -2.9 3.8 -4 2 -2.8 -1.6 1.1 -5 4.2 -7.5 6.8 -5.3 5.7 -1.7 3.1 5.5 -4z"/>
  <path d="M126 215.6 c0 -3.2 0.2 -3.4 5.8 -5 3.2 -0.9 7.5 -1.6 9.5 -1.6 3.5 0 3.7 0.2 3.7 3.4 0 3.3 -0.1 3.4 -6.5 5 -3.5 0.9 -7.8 1.6 -9.5 1.6 -2.7 0 -3 -0.3 -3 -3.4z"/>
  <path d="M416 214.9 c-33.9 -10.5 -110.8 -36.4 -111.7 -37.7 -3 -3.8 0.5 -22.4 5.1 -27 0.8 -0.8 3.7 -1.7 6.5 -2 4.7 -0.4 5.1 -0.3 5.1 1.7 0 1.5 -0.6 2.1 -2.1 2.1 -4.2 0 -5.8 2 -8.5 10.4 -1.5 4.6 -2.5 9 -2.1 9.8 0.3 0.9 2.5 2.3 4.9 3.1 11.2 4.1 116.2 37.7 118.5 37.9 2.5 0.3 2.8 -0.2 5.2 -7.4 1.4 -4.4 3.1 -7.8 3.8 -7.8 1.9 0 1.6 4.4 -0.9 12.2 l-2.2 6.8 -7.5 -0.1 c-4.6 0 -10.2 -0.8 -14.1 -2z"/>
  <path d="M78 210.7 c0 -1.9 -1.6 -1.4 27.5 -8.1 60.4 -13.9 92.2 -21.6 94.7 -22.8 1.7 -0.8 2.8 -2.1 2.8 -3.3 0 -2.7 -3.6 -17.4 -4.4 -18.2 -0.4 -0.4 -3.5 -0.9 -6.9 -1.1 -6.1 -0.4 -20.3 2.4 -47.9 9.4 -11.6 2.9 -11.8 2.9 -11.8 0.5 0 -1.1 0.9 -2 2.3 -2.3 1.2 -0.3 13.2 -3.1 26.7 -6.3 21.9 -5.1 25.4 -5.7 32.7 -5.3 6.1 0.3 8.8 0.9 10.2 2.2 2.3 2.1 5.1 13.3 5.1 20.6 0 4.6 -0.3 5.2 -3.2 7 -1.8 1.1 -4.5 2 -5.9 2 -1.4 0 -7.3 1.3 -13 2.9 -5.7 1.6 -15.3 4.1 -21.4 5.5 -6 1.4 -20.2 4.8 -31.5 7.5 -11.3 2.7 -25.4 6.1 -31.5 7.6 -14.5 3.5 -24.5 4.4 -24.5 2.2z"/>
  <path d="M441 193.4 c1.1 -2.8 0.2 -3.4 -11.2 -7 -6 -1.8 -7.8 -4.4 -3.1 -4.4 1.4 0 5 0.8 8 1.7 3.8 1.2 5.3 2.2 5.3 3.5 0 1.3 0.8 1.8 2.5 1.8 2.2 0 2.5 0.4 2.5 3.5 0 3.1 -0.3 3.5 -2.5 3.5 -2.2 0 -2.4 -0.2 -1.5 -2.6z"/>
  <path d="M366.8 166.2 c-44.7 -14.6 -50.9 -17.2 -40 -17.2 4.7 0 34.3 9.3 44.6 13.9 2.7 1.3 6.4 2.5 8.3 2.8 1.9 0.3 3.7 1.2 4 1.9 0.3 0.8 1.7 1.4 3.1 1.4 1.4 0 8.4 1.9 15.4 4.2 10 3.3 12.8 4.6 12.8 6 0 1.1 -0.7 1.8 -1.7 1.7 -1 -0.1 -21.9 -6.7 -46.5 -14.7z"/>
 </g>
 <g fill="#b1c600">
  <path d="M201.9 491.2 l-164.6 -0.2 -2.1 -2.3 c-1.2 -1.2 -2.8 -4.7 -3.6 -7.7 -1 -3.9 -1.5 -4.8 -1.7 -3 -0.6 6.3 -1.4 -11.5 -1.4 -30.9 l0 -21.3 5 -4.4 c2.8 -2.4 5.3 -4.4 5.8 -4.4 1.4 0 4.7 -4 4.7 -5.6 0 -1.3 0.7 -1.5 3.1 -1 1.7 0.3 7.4 0.6 12.5 0.6 7.7 0 9.4 0.3 9.4 1.5 0 1.1 1.2 1.5 5 1.5 4.4 0 5 -0.2 5 -2.1 0 -1.9 0.4 -2.1 3.1 -1.5 1.7 0.3 12.8 0.6 24.5 0.6 18.4 0 21.4 0.2 21.4 1.5 0 1.3 4.6 1.5 35.5 1.5 19.5 0 35.8 0.1 36.3 0.3 0.4 0.1 0.9 -0.9 1 -2.2 0.3 -2 0.8 -2.2 3.4 -1.7 1.7 0.3 12.7 0.6 24.5 0.6 20 0 21.5 0.1 21.1 1.8 -0.5 1.6 1.7 1.7 36.4 1.4 36.6 -0.2 36.8 -0.3 36.8 -2.3 0 -1.9 0.4 -2.1 3.1 -1.5 1.7 0.3 12.8 0.6 24.5 0.6 18.4 0 21.4 0.2 21.4 1.5 0 1.3 4.6 1.5 35.5 1.5 l35.5 0 0 -2.1 c0 -1.9 0.4 -2.1 3.1 -1.5 1.7 0.3 7.4 0.6 12.5 0.6 7.7 0 9.4 0.3 9.4 1.5 0 0.8 0.9 1.5 2 1.5 1.1 0 2 0.5 2 1.1 0 0.5 0.4 0.8 0.8 0.5 0.5 -0.3 3.1 1.7 5.8 4.5 l4.9 4.9 0 31.1 c0 28.4 -0.1 31.2 -1.7 32.6 -1 0.9 -1.8 1.3 -1.8 1 0 -0.4 -1.2 -0.1 -2.7 0.6 -3.1 1.3 -7.4 1.4 -275.4 0.9z"/>
  <path d="M472.2 387.5 c0 -24.7 0 -24.9 1.4 -17 1.2 6.6 1.3 10.7 0.3 23.5 -0.6 8.5 -1.2 16.2 -1.4 17 -0.1 0.8 -0.3 -9.7 -0.3 -23.5z"/>
  <path d="M44.2 356.3 c0.2 -1.4 1.5 -1.9 6.1 -2.1 5.2 -0.3 5.7 -0.1 5.7 1.8 0 1.8 -0.6 2 -6.1 2 -5.2 0 -6 -0.2 -5.7 -1.7z"/>
  <path d="M65 356 c0 -1.3 0.7 -2 2 -2 1.3 0 2 0.7 2 2 0 1.3 -0.7 2 -2 2 -1.3 0 -2 -0.7 -2 -2z"/>
  <path d="M140 356 c0 -1.9 0.7 -2 9 -2 8.3 0 9 0.1 9 2 0 1.9 -0.7 2 -9 2 -8.3 0 -9 -0.1 -9 -2z"/>
  <path d="M185 356 c0 -1.3 0.7 -2 2 -2 1.3 0 2 0.7 2 2 0 1.3 -0.7 2 -2 2 -1.3 0 -2 -0.7 -2 -2z"/>
  <path d="M201 356 c0 -1.9 0.7 -2 9.5 -2 8.8 0 9.5 0.1 9.5 2 0 1.9 -0.7 2 -9.5 2 -8.8 0 -9.5 -0.1 -9.5 -2z"/>
  <path d="M384 356 c0 -1.9 0.7 -2 9.5 -2 8.8 0 9.5 0.1 9.5 2 0 1.9 -0.7 2 -9.5 2 -8.8 0 -9.5 -0.1 -9.5 -2z"/>
  <path d="M429 356 c0 -1.3 0.7 -2 2 -2 1.3 0 2 0.7 2 2 0 1.3 -0.7 2 -2 2 -1.3 0 -2 -0.7 -2 -2z"/>
  <path d="M443 356 c0 -1.7 0.7 -2 4 -2 3.3 0 4 0.3 4 2 0 1.7 -0.7 2 -4 2 -3.3 0 -4 -0.3 -4 -2z"/>
  <path d="M464 356 c0 -1.3 0.7 -2 2 -2 1.3 0 2 0.7 2 2 0 1.3 -0.7 2 -2 2 -1.3 0 -2 -0.7 -2 -2z"/>
  <path d="M389 350 c-9.1 -0.3 -91 -0.6 -182.1 -0.6 l-165.6 0 -5 -3.2 c-2.7 -1.8 -5.4 -3.2 -6 -3.2 -1.5 0 -2.3 -57.7 -2.3 -166.1 l0 -95.6 3.1 -0.7 c1.7 -0.3 104.3 -0.6 228 -0.6 l224.9 0 0 95.8 c0 52.7 -0.3 112.1 -0.7 132 l-0.6 36.1 -5 2.7 c-4.7 2.5 -6 2.7 -19.6 3.1 -29.4 0.7 -53 0.8 -69.1 0.3z m-228.7 -51.2 c2.1 -0.5 5.1 -1.1 6.7 -1.3 4.6 -0.6 9.8 -3.5 15.5 -8.7 8 -7.3 10.7 -12.1 13.4 -23.4 l2.3 -9.9 -2.2 -8.5 c-3.2 -11.9 -4.8 -14.6 -13.4 -22.7 -6.9 -6.6 -8.2 -7.4 -15.8 -9.7 -10.8 -3.2 -14 -3.8 -15.5 -2.8 -0.8 0.5 2.5 1.8 8.3 3.2 5.2 1.4 10 3 10.5 3.6 0.5 0.7 -2.5 0.1 -6.8 -1.2 -12.6 -3.9 -22.3 -3 -35.8 3.1 -5.9 2.7 -17.5 13.9 -17.5 16.9 0 1.1 -1.2 6.4 -2.7 11.8 l-2.6 9.9 1.8 8 c1.2 5.3 2.7 9 4.4 10.9 1.4 1.6 3.9 4.6 5.5 6.5 3.5 4.4 6.4 5.9 17.9 9.6 9.8 3.2 16.1 3.6 24.6 1.5 10.4 -2.6 11.6 -2.8 10.6 -1.8 -0.5 0.6 -5.5 2.2 -10.9 3.6 -5.5 1.5 -10.2 2.9 -10.5 3.2 -0.7 0.6 7.1 -0.5 12.2 -1.8z m201.3 1.3 c-0.3 -0.5 -3.8 -1.7 -7.8 -2.6 -4 -1 -8.4 -2.4 -9.8 -3.1 -2.4 -1.3 -2.4 -1.3 1 -0.8 1.9 0.4 5.7 1.2 8.4 2 6.9 1.9 10.7 1.8 21.5 -0.8 9.3 -2.3 9.4 -2.3 17.8 -10.3 l8.4 -8 2.7 -10 2.8 -10 -2.6 -9.8 -2.6 -9.7 -8.3 -8.4 -8.3 -8.4 -10.6 -2.7 c-12 -3.1 -17.9 -3 -27.5 0.3 -3.1 1.1 -5.5 1.6 -5.2 1.1 0.5 -0.8 7.2 -3 17.5 -5.8 l3.5 -0.9 -4.5 -0.1 c-10.2 -0.2 -21.8 4.7 -30.1 12.6 -7.2 6.9 -8.5 9.1 -11.6 20.3 -2.8 10.4 -2.9 12.9 -0.2 22.7 2.9 10.6 3.6 11.7 12.6 20.4 7.2 7 8.3 7.7 13.8 8.8 3.3 0.6 8.7 1.8 12 2.5 7.5 1.8 7.7 1.8 7.1 0.7z m-225.1 -2.1 c-1.1 -0.5 -2.7 -0.9 -3.5 -0.9 -0.9 0 -0.8 0.4 0.5 0.9 1.1 0.5 2.7 0.9 3.5 0.9 0.9 0 0.8 -0.4 -0.5 -0.9z m-20.6 -11.7 l-8.6 -8.8 -2.8 -10 c-3 -10.8 -3.2 -12.5 -2.2 -17 0.5 -1.8 0.1 -1.4 -0.8 1.1 -1.5 4 -1.5 4.7 1.4 16 1.8 7.2 3.6 12.1 4.6 12.6 0.8 0.5 1.2 1.4 0.9 2 -0.4 0.7 -0.2 0.8 0.4 0.4 0.7 -0.4 1.2 -0.3 1.2 0.3 0 2.7 10.5 11.7 14 12.1 0.2 0 -3.4 -3.9 -8.1 -8.7z m282.1 -0.8 c3.5 -3.6 6.2 -6.5 5.9 -6.5 -0.2 0 -3.4 2.9 -6.9 6.5 -3.5 3.6 -6.2 6.5 -5.9 6.5 0.2 0 3.4 -2.9 6.9 -6.5z m-292.6 -45.5 c0.4 -2.4 0.3 -2.9 -0.3 -1.5 -0.4 1.1 -1.1 3.6 -1.5 5.5 -0.4 2.4 -0.3 2.9 0.3 1.5 0.4 -1.1 1.1 -3.6 1.5 -5.5z m16.1 -20.8 c-0.7 -0.7 -4.2 2.3 -9.7 8.4 -8.6 9.4 -7 9.4 2.1 0 4.4 -4.4 7.8 -8.2 7.6 -8.4z m19 -6.3 c1.4 -0.6 0.9 -0.7 -1.5 -0.3 -1.9 0.4 -4.4 1.1 -5.5 1.5 -1.4 0.6 -0.9 0.7 1.5 0.3 1.9 -0.4 4.4 -1.1 5.5 -1.5z m297.4 -9.1 c1.8 -5.7 3.5 -10.8 3.7 -11.5 0.8 -1.8 -1.7 -2.8 -31.4 -12.4 -15.2 -4.9 -28.6 -9.4 -29.7 -9.9 -1.1 -0.4 -3.3 -1.1 -5 -1.5 -1.6 -0.4 -5.2 -1.7 -8 -2.9 -2.7 -1.3 -12.6 -4.8 -22 -7.9 -13.5 -4.5 -18.5 -5.7 -24.4 -5.9 -8.8 -0.3 -9.8 0.6 -13.3 11.3 -3.9 12.1 -7.2 10 44.7 27.2 63.6 20.9 72.4 23.6 77.6 23.7 l4.6 0 3.2 -10.2z m-338.4 1.7 c6.1 -1.5 20.2 -4.9 31.5 -7.6 11.3 -2.7 25.5 -6.1 31.5 -7.5 6.1 -1.4 11.7 -2.8 12.5 -3.1 0.8 -0.3 2.2 -0.7 3 -0.8 0.8 -0.2 5.3 -1.2 10 -2.4 4.7 -1.2 9.7 -2.3 11.1 -2.6 1.5 -0.3 3.7 -1.3 5 -2.4 l2.4 -1.9 -1.7 -8.3 c-1.1 -5.2 -2.5 -9 -3.8 -10.3 -3.4 -3.5 -14 -2.6 -38.5 3.3 -11.5 2.7 -31.6 7.5 -44.5 10.6 -30.5 7.3 -46.3 11.4 -47.4 12.5 -0.8 0.8 2 16.5 4 22.8 0.6 1.9 11.4 0.9 24.9 -2.3z"/>
 </g>
 <g fill="#dfd4a6">
  <path d="M44.7 413.3 c-0.4 -0.3 -0.7 -5.5 -0.7 -11.5 l0 -10.8 12.5 0 12.5 0 0 2.6 c0 2.4 -0.3 2.6 -2.8 2.1 -5 -1 -7.2 2.6 -7.2 11.8 l0 6.5 -6.8 0 c-3.8 0 -7.2 -0.3 -7.5 -0.7z"/>
  <path d="M65 405.5 c0 -7.8 0.2 -8.5 2 -8.5 1.8 0 2 0.7 2 8.5 0 7.8 -0.2 8.5 -2 8.5 -1.8 0 -2 -0.7 -2 -8.5z"/>
  <path d="M79.7 413.3 c-0.4 -0.3 -0.7 -5.5 -0.7 -11.5 l0 -10.8 17.5 0 c16.5 0 17.5 0.1 17.5 1.9 0 1.4 -1 2 -4.2 2.5 -2.7 0.5 -4.9 1.5 -5.9 2.9 -2.2 3 -3.3 6.7 -2 6.7 1.8 0 1.3 7.7 -0.5 8.4 -2.1 0.8 -20.9 0.8 -21.7 -0.1z"/>
  <path d="M124 412 c0 -1.3 0.7 -2 2 -2 1.3 0 2 0.7 2 2 0 1.3 -0.7 2 -2 2 -1.3 0 -2 -0.7 -2 -2z"/>
  <path d="M201.7 413.4 c-0.4 -0.4 -0.7 -5.6 -0.7 -11.6 l0 -10.8 15 0 c14 0 15 0.1 15 1.9 0 1.4 -1 2 -3.7 2.5 -2.9 0.4 -4.2 1.3 -5.5 3.7 -2 3.5 -2.3 5.9 -0.7 5.9 0.6 0 0.9 1.7 0.7 4.3 l-0.3 4.2 -9.5 0.3 c-5.3 0.1 -9.9 0 -10.3 -0.4z"/>
  <path d="M246 412 c0 -1.3 0.7 -2 2 -2 1.3 0 2 0.7 2 2 0 1.3 -0.7 2 -2 2 -1.3 0 -2 -0.7 -2 -2z"/>
  <path d="M323.7 413.4 c-0.4 -0.4 -0.7 -5.6 -0.7 -11.6 l0 -10.8 12.5 0 c11.8 0 12.5 0.1 12.5 2 0 1.1 -0.6 2 -1.2 2 -3.5 0.1 -4.3 1.9 -4.3 10.2 l0 8.3 -9 0.3 c-5 0.1 -9.4 0 -9.8 -0.4z"/>
  <path d="M368 412 c0 -1.3 0.7 -2 2 -2 1.3 0 2 0.7 2 2 0 1.3 -0.7 2 -2 2 -1.3 0 -2 -0.7 -2 -2z"/>
  <path d="M443.7 413.3 c-0.4 -0.3 -0.7 -5.5 -0.7 -11.5 l0 -10.8 6.5 0 c5.8 0 6.5 0.2 6.5 2 0 1.2 -0.7 2 -1.6 2 -0.9 0 -1.8 0.9 -2.1 2 -0.3 1.1 -1 2 -1.6 2 -0.9 0 -0.6 4.3 0.9 11.8 0.6 3.2 0.6 3.2 -3.3 3.2 -2.2 0 -4.3 -0.3 -4.6 -0.7z"/>
  <path d="M44 365.6 l0 -10.4 9.3 -0.7 c5 -0.4 10.6 -0.5 12.2 -0.3 l3 0.3 0.3 10.8 0.3 10.7 -12.6 0 -12.5 0 0 -10.4z m21 -0.6 c0 -6.8 -0.1 -7 -2.5 -7 -1.9 0 -2.5 0.5 -2.5 2.3 0 1.3 0.4 2.7 0.9 3.3 0.5 0.5 1.4 2.6 2.1 4.7 0.6 2 1.3 3.7 1.6 3.7 0.2 0 0.4 -3.1 0.4 -7z"/>
  <path d="M140 365.6 l0 -10.4 15.3 -0.7 c8.3 -0.3 19.2 -0.5 24.2 -0.3 7.6 0.3 9 0.6 9.3 2.1 0.3 1.5 -0.8 1.7 -12.7 1.7 -13.1 0 -13.1 0 -13.1 2.4 0 1.2 1.1 3.5 2.5 5 1.4 1.5 2.5 2.9 2.5 3.2 0 0.3 0.6 1.2 1.4 2 1.1 1 4 1.4 10.5 1.4 8.4 0 9.1 0.1 9.1 2 0 1.9 -0.7 2 -24.5 2 l-24.5 0 0 -10.4z"/>
  <path d="M201 365.6 l0 -10.4 16.3 -0.7 c23.1 -0.9 32.1 -0.5 32.5 1.8 0.3 1.5 -0.8 1.7 -13.2 1.7 -14.8 0 -14.2 -0.3 -13 5.9 0.4 1.7 1.3 3.1 2 3.1 0.8 0 1.4 0.5 1.4 1.1 0 3 3 3.9 12.9 3.9 9.4 0 10.1 0.1 10.1 2 0 1.9 -0.7 2 -24.5 2 l-24.5 0 0 -10.4z"/>
  <path d="M384 365.6 l0 -10.4 16.3 -0.7 c23.1 -0.9 32.1 -0.5 32.5 1.8 0.3 1.6 -0.9 1.7 -14.7 1.7 -9 0 -15.1 0.4 -15.1 1 0 2 3.3 10.4 4.5 11.7 1 0.9 4.7 1.3 13.4 1.3 11.4 0 12.1 0.1 12.1 2 0 1.9 -0.7 2 -24.5 2 l-24.5 0 0 -10.4z"/>
  <path d="M443.7 375.3 c-0.4 -0.3 -0.7 -5 -0.7 -10.4 l0 -9.8 5.3 -0.6 c2.8 -0.3 8.3 -0.5 12.2 -0.3 5.7 0.2 7 0.6 7.3 2.1 0.3 1.5 -0.6 1.7 -7.7 1.7 l-8.1 0 0.6 4.3 c0.4 2.3 1 4.4 1.4 4.7 0.4 0.3 1 1.5 1.4 2.8 0.7 2 1.4 2.2 6.7 2.2 5.2 0 5.9 0.2 5.9 2 0 1.9 -0.7 2 -11.8 2 -6.5 0 -12.2 -0.3 -12.5 -0.7z"/>
  <path d="M355.4 297.9 c-10.8 -2.9 -13.3 -3.9 -15.4 -6.3 -1.1 -1.4 -0.8 -1.6 2.4 -1.6 2 0 3.6 0.4 3.6 0.9 0 0.4 2.7 1.4 6 2.1 3.3 0.7 6 1.7 6 2.1 0 0.5 1.1 0.9 2.4 0.9 4.3 0 8.6 1.2 8.6 2.5 0 2.3 -3.4 2.2 -13.6 -0.6z"/>
  <path d="M133.3 297.2 c-6.4 -1.7 -9.3 -3 -9.3 -4 0 -1.2 1 -1.4 5.2 -0.9 2.9 0.4 5.4 1.1 5.6 1.7 0.2 0.5 1.4 1 2.7 1 5.1 0 8.5 1.2 8.5 3.1 0 2.4 -1.3 2.3 -12.7 -0.9z"/>
  <path d="M147 298 c0 -1.6 0.7 -2 3.5 -2 4 0 4.9 2.4 1.3 3.4 -3.8 1 -4.8 0.7 -4.8 -1.4z"/>
  <path d="M370 297.1 c0 -1.9 3.4 -3.1 8.6 -3.1 1.3 0 2.4 -0.4 2.4 -1 0 -0.5 1.6 -1 3.5 -1 6.3 0 4.1 2.5 -4.4 4.8 -9.6 2.7 -10.1 2.7 -10.1 0.3z"/>
  <path d="M158 295 c0 -1.2 0.7 -2 1.8 -2 0.9 0 3 -0.7 4.6 -1.5 1.5 -0.8 4.2 -1.5 5.9 -1.5 l3 0 -2.2 2.4 c-1.2 1.3 -4.2 2.9 -6.6 3.5 -5.9 1.5 -6.5 1.4 -6.5 -0.9z"/>
  <path d="M176 283.9 c0 -3.9 3.5 -7.9 7 -7.9 3 0 2.4 1.7 -2.5 6.8 l-4.5 4.7 0 -3.6z"/>
  <path d="M328.8 280.3 c-2.9 -3.4 -3 -5.3 -0.3 -5.3 2.2 0 2.5 0.4 2.5 3.5 0 4 -0.1 4.1 -2.2 1.8z"/>
  <path d="M108.9 279.3 c-0.9 -1 -2.9 -6.6 -4.4 -12.5 l-2.8 -10.7 2.8 -10.8 c2.9 -11.1 6.5 -17.8 6.5 -12 0 3.7 -2.1 12 -3.2 12.8 -1.9 1.3 -0.8 23.9 1.3 23.9 0.9 0 2.3 8.2 1.7 10 -0.2 0.7 -0.9 0.5 -1.9 -0.7z"/>
  <path d="M401 277.7 c0 -3 0.4 -3.7 2 -3.7 1.3 0 2 0.7 2 1.8 0 1.1 -0.9 2.7 -2 3.7 -2 1.8 -2 1.7 -2 -1.8z"/>
  <path d="M184.3 266.8 c0.4 -2.9 1.1 -5.4 1.7 -5.6 0.5 -0.2 1 -1.9 1 -3.8 0 -3.3 2 -4.8 3.4 -2.5 1.1 1.7 -3.6 17.1 -5.2 17.1 -1.2 0 -1.4 -1 -0.9 -5.2z"/>
  <path d="M324.1 267.6 c-1.5 -6 -1.4 -6.6 0.8 -6.6 1.9 0 3.1 3.4 3.1 8.6 0 4.1 -2.7 2.7 -3.9 -2z"/>
  <path d="M404 267.6 c0 -5.2 1.2 -8.6 3.1 -8.6 2.2 0 2.3 0.6 0.8 6.6 -1.2 4.7 -3.9 6.1 -3.9 2z"/>
  <path d="M321.6 257.1 c-1.1 -1.7 3.6 -17.1 5.2 -17.1 1.2 0 1.4 1 0.9 5.2 -0.4 2.9 -1.1 5.4 -1.7 5.6 -0.5 0.2 -1 1.9 -1 3.8 0 3.3 -2 4.8 -3.4 2.5z"/>
  <path d="M405 249.5 c0 -4 2.4 -4.9 3.4 -1.2 1 3.7 0.7 4.7 -1.4 4.7 -1.6 0 -2 -0.7 -2 -3.5z"/>
  <path d="M185 247.5 c0 -4 2.4 -4.9 3.4 -1.2 1 3.7 0.7 4.7 -1.4 4.7 -1.6 0 -2 -0.7 -2 -3.5z"/>
  <path d="M401.6 238.9 c-0.3 -1.7 -0.6 -4.3 -0.6 -5.7 0 -2.6 0 -2.6 1.9 -0.7 1.1 1.1 2.3 3.7 2.6 5.8 0.6 3.3 0.5 3.7 -1.3 3.7 -1.4 0 -2.1 -0.9 -2.6 -3.1z"/>
  <path d="M180.7 236.3 c-0.4 -0.3 -0.7 -2.2 -0.7 -4.1 l0 -3.5 2.4 2.2 c3.5 3.3 4 6.1 1.2 6.1 -1.3 0 -2.6 -0.3 -2.9 -0.7z"/>
  <path d="M326.7 235.1 c0.3 -1 1.6 -3 3 -4.3 l2.4 -2.3 -0.3 4 c-0.3 3.5 -0.6 4 -3 4.3 -2.2 0.3 -2.6 0 -2.1 -1.7z"/>
  <path d="M341.3 219.5 c3.6 -3.2 4.7 -3.1 4.7 0 0 2.2 -0.4 2.5 -3.7 2.5 l-3.8 -0.1 2.8 -2.4z"/>
  <path d="M122.5 219.1 c1.6 -1.6 19.2 -7.1 22.6 -7.1 0.5 0 0.9 0.9 0.9 2 0 1.6 -0.7 2 -3.5 2 -1.9 0 -3.5 0.4 -3.5 0.8 0 0.9 -12.5 4.2 -16 4.2 -2.4 0 -2.4 0 -0.5 -1.9z"/>
  <path d="M165 219 c0 -1.3 0.7 -2 1.8 -2 1.1 0 2.7 0.9 3.7 2 1.8 2 1.7 2 -1.8 2 -3 0 -3.7 -0.4 -3.7 -2z"/>
  <path d="M379.3 219.3 c-1.5 -0.3 -2.3 -1.2 -2.3 -2.4 0 -2.2 0.6 -2.3 6.6 -0.8 8.2 2.1 4.4 4.9 -4.3 3.2z"/>
  <path d="M347 217.6 c0 -0.8 2.4 -2 6.5 -3 8.1 -2 8.5 -2 8.5 0.2 0 1.4 -1.3 2.1 -5.1 3 -6.7 1.6 -9.9 1.5 -9.9 -0.2z"/>
  <path d="M152.3 217.3 c-1.5 -0.3 -2.3 -1.2 -2.3 -2.4 0 -2.2 0.6 -2.3 6.6 -0.8 8.2 2.1 4.4 4.9 -4.3 3.2z"/>
  <path d="M366 214 c0 -2.1 1 -2.4 4.8 -1.4 3.6 1 2.7 3.4 -1.3 3.4 -2.8 0 -3.5 -0.4 -3.5 -2z"/>
 </g>
 <g fill="#dfdcc3">
  <path d="M53.6 413.1 c-2 -0.8 -2 -0.8 0 -1.3 1.7 -0.4 2 -1.4 2.1 -7.3 0.1 -3.7 0.6 -7.2 1.2 -7.8 0.5 -0.5 0.7 -1.5 0.5 -2.1 -0.5 -1.3 4.9 -3.6 8.4 -3.6 1.4 0 2.3 0.8 2.7 2.3 0.4 1.8 0.1 17.2 -0.4 20 -0.1 0.9 -12 0.8 -14.5 -0.2z"/>
  <path d="M95.5 413 c-2.5 -0.6 -2.6 -0.8 -0.7 -0.9 2.8 -0.1 6 -3 4.5 -3.9 -0.6 -0.4 -1.2 -1.4 -1.4 -2.2 -0.5 -2.6 1.1 -8.7 2.6 -10 0.8 -0.7 1.3 -1.6 1 -1.9 -0.7 -1.2 11.5 -3.1 19.4 -3.1 l7.2 0 -0.3 11.3 -0.3 11.2 -14.5 0.1 c-8 0.1 -15.8 -0.2 -17.5 -0.6z"/>
  <path d="M214.5 413 c-2.9 -0.7 -2.9 -0.8 -0.4 -0.9 3.3 -0.1 5.9 -2.8 4 -4 -2 -1.2 -1.7 -7.5 0.4 -11.5 1.6 -2.9 2.7 -3.7 6.8 -4.6 2.6 -0.5 9.3 -1 14.8 -1 l10 0 -0.3 11.3 -0.3 11.2 -16 0.1 c-8.8 0.1 -17.3 -0.2 -19 -0.6z"/>
  <path d="M335.5 413 c-2.1 -0.5 -2.4 -0.8 -0.9 -0.9 1.1 0 2.9 -0.7 3.9 -1.5 1.5 -1.1 1.7 -1.7 0.7 -2.8 -1.2 -1.5 -1.1 -10.5 0.1 -12.5 0.5 -0.7 0.5 -1.3 0 -1.4 -0.4 0 0.8 -0.7 2.7 -1.4 2.3 -0.9 8.2 -1.4 16.8 -1.4 l13.3 -0.1 -0.3 11.3 -0.3 11.2 -16.5 0.1 c-9.1 0.1 -17.8 -0.2 -19.5 -0.6z"/>
  <path d="M447 413 c-1.5 -0.5 -1.8 -0.8 -0.8 -0.9 1.4 -0.1 1.5 -1.1 1.1 -8.1 -0.4 -5.5 -0.2 -8 0.5 -8 0.6 0 0.9 -0.6 0.6 -1.4 -0.8 -2 4.8 -3.6 12.7 -3.6 l6.9 0 0 11.5 0 11.5 -9.2 -0.1 c-5.1 -0.1 -10.4 -0.5 -11.8 -0.9z"/>
  <path d="M60.5 374 c0.3 -0.5 0.2 -1 -0.4 -1 -0.6 0 -0.8 -0.7 -0.5 -1.5 0.4 -0.8 0.1 -1.5 -0.6 -1.5 -0.7 0 -1 -0.7 -0.7 -1.5 0.4 -0.8 0.2 -1.7 -0.3 -2 -0.6 -0.4 -1 -1.8 -1 -3.3 0 -1.5 -0.7 -3.6 -1.5 -4.6 -0.8 -1 -1.2 -2.3 -0.9 -2.7 0.9 -1.5 13.4 -1.1 13.5 0.4 0.1 0.6 0.2 5.1 0.3 10 l0.1 8.7 -4.3 0 c-2.6 0 -4.1 -0.4 -3.7 -1z"/>
  <path d="M166.5 374 c0.3 -0.5 -0.1 -1 -1 -1 -0.9 0 -1.4 -0.4 -1 -0.9 0.3 -0.5 -0.6 -2.2 -2 -3.7 -1.4 -1.5 -2.5 -3.8 -2.5 -5.1 0 -1.3 -1.1 -3.4 -2.5 -4.7 l-2.5 -2.4 2.2 -0.6 c1.3 -0.3 8.9 -0.6 17.1 -0.6 l14.7 0 0 10 0 10 -11.6 0 c-7.4 0 -11.3 -0.4 -10.9 -1z"/>
  <path d="M225.5 374 c0.3 -0.5 -0.1 -1 -0.9 -1 -1 0 -1.3 -0.6 -1 -1.5 0.4 -0.9 0 -1.5 -1 -1.5 -0.9 0 -1.6 -0.8 -1.6 -1.9 0 -1.1 -0.5 -2.3 -1 -2.6 -0.6 -0.3 -0.8 -1.7 -0.6 -3.1 0.3 -1.3 0.1 -2.4 -0.4 -2.4 -1.4 0 -4.1 -3.1 -3.5 -4.1 0.4 -0.5 8.2 -0.9 17.6 -0.9 l16.9 0 0 10 0 10 -12.6 0 c-8.1 0 -12.3 -0.4 -11.9 -1z"/>
  <path d="M404.5 374 c0.3 -0.5 0.2 -1 -0.3 -1 -0.8 0 -4.2 -9 -4.2 -11.2 0 -0.5 -1.1 -1.9 -2.5 -3.2 -3.6 -3.3 -2.3 -3.6 18.1 -3.6 l17.4 0 0 10 0 10 -14.6 0 c-9.4 0 -14.3 -0.4 -13.9 -1z"/>
  <path d="M452.3 372.8 c-0.1 -1.1 -0.6 -2.4 -1.1 -2.7 -0.5 -0.3 -1.2 -2.7 -1.6 -5.3 -0.4 -2.6 -1.1 -5 -1.7 -5.3 -0.5 -0.4 -0.7 -1 -0.4 -1.5 0.3 -0.5 -0.3 -1.3 -1.2 -1.9 -1.3 -0.8 1.4 -1 10 -1.1 l11.7 0 0 10 0 10 -7.8 0 c-7.2 0 -7.8 -0.1 -7.9 -2.2z"/>
  <path d="M133.8 297.2 c-10.3 -2.9 -15.9 -6.2 -10.3 -6.2 1.5 0 7.3 1.2 12.8 2.7 l10 2.7 8.6 -2.2 c4.7 -1.3 9.4 -2.2 10.4 -2.2 0.9 0 1.7 -0.5 1.7 -1.2 0 -1.9 8.2 -9.8 10.2 -9.8 1.1 0 1.8 -0.7 1.8 -2 0 -1.1 0.6 -2 1.3 -2 0.8 0 1.8 -2.4 2.6 -6.2 0.7 -3.5 1.7 -6.6 2.3 -6.9 0.5 -0.4 1 -4.1 1 -8.3 -0.1 -5.6 0.3 -7.6 1.2 -7.6 0.8 0 1.8 1.8 2.4 4 0.8 3.3 0.5 5.7 -1.9 14.6 -3.2 11.9 -2.8 11.2 -12.4 21 -6.9 7 -7.1 7 -17.1 9.7 -5.5 1.5 -11.2 2.7 -12.5 2.6 -1.3 0 -6.8 -1.3 -12.1 -2.7z"/>
  <path d="M353 297.2 c-9 -2.5 -9.8 -2.9 -16.8 -9.6 -4 -3.8 -7.8 -7.9 -8.4 -8.9 -0.5 -1.1 -2.3 -6.6 -3.8 -12.3 l-2.8 -10.4 2.8 -10.5 c3.2 -11.9 4.4 -13.8 13.3 -22.2 6.1 -5.6 6.8 -6 16.8 -8.6 12.4 -3.2 11.9 -3.2 11.9 -0.7 0 1.6 -0.7 2 -3.4 2 -1.9 0 -3.6 0.4 -3.8 1 -0.1 0.5 -3.3 1.5 -7 2.2 -3.8 0.7 -6.8 1.7 -6.8 2.3 0 1.5 -12.3 13.5 -13.8 13.5 -0.6 0 -1.2 1 -1.2 2.3 0 1.2 -0.9 5.4 -2.1 9.2 -2.1 7.1 -2.6 16.4 -1.1 17.4 0.5 0.3 1.5 3 2.2 5.8 1 4.6 2.2 6.3 8.6 12.5 4.1 3.9 7.4 7.7 7.4 8.5 0 0.7 1 1.3 2.2 1.3 1.2 0 5.7 1 10.1 2.1 7.7 2.1 8.2 2.1 15.1 0.5 3.9 -0.9 8.1 -1.6 9.4 -1.6 1.2 0 2.2 -0.4 2.2 -1 0 -0.5 1.7 -1 3.7 -1 3.7 0 3.7 0 1.8 1.9 -2.2 2 -19.9 7.2 -24.2 7 -1.6 0 -7.1 -1.3 -12.3 -2.7z"/>
  <path d="M402 274.6 c0 -5.2 1.2 -8.6 3.1 -8.6 2.2 0 2.3 0.6 0.8 6.6 -1.2 4.7 -3.9 6.1 -3.9 2z"/>
  <path d="M104.1 264.3 l-2.1 -8.8 3 -11 c2.1 -7.7 3.7 -11.7 5.5 -13.4 l2.5 -2.6 0 3.6 c0 1.9 -0.4 3.9 -1 4.5 -0.5 0.5 -2.1 5.2 -3.4 10.4 -2.4 9 -2.5 9.8 -1.1 15 1.9 7 1.9 11 0.1 11 -0.9 0 -2.1 -3 -3.5 -8.7z"/>
  <path d="M406 253.5 c0 -4 2.4 -4.9 3.4 -1.2 1 3.7 0.7 4.7 -1.4 4.7 -1.6 0 -2 -0.7 -2 -3.5z"/>
  <path d="M403 242.5 c0 -4 2.4 -4.9 3.4 -1.2 1 3.7 0.7 4.7 -1.4 4.7 -1.6 0 -2 -0.7 -2 -3.5z"/>
  <path d="M182.4 239.5 c-0.3 -2.5 -1.2 -4.5 -1.8 -4.5 -0.7 0 -4.5 -3.3 -8.4 -7.4 -6.6 -6.7 -7.6 -7.4 -13.2 -8.6 -3.3 -0.7 -6 -1.7 -6 -2.1 0 -1.5 -7.8 -1 -15.2 1.1 -8.5 2.3 -12.8 2.6 -12.8 0.7 0 -1.3 17.7 -6.7 21.7 -6.7 1 0.1 6.5 1.4 12.2 2.9 10 2.8 10.5 3.1 16.8 9.2 7.5 7.5 9.9 11 10.8 16.2 0.6 3.3 0.5 3.7 -1.3 3.7 -1.7 0 -2.2 -0.8 -2.8 -4.5z"/>
  <path d="M382.3 220.3 c-1.3 -0.2 -2.3 -0.9 -2.3 -1.4 0 -0.5 -1.1 -0.9 -2.4 -0.9 -5.2 0 -8.6 -1.2 -8.6 -3.1 0 -1.1 0.5 -1.9 1.1 -1.9 3.3 0 17.7 4.6 19.4 6.2 1.9 1.8 1.9 1.8 -1.5 1.7 -1.9 -0.1 -4.5 -0.4 -5.7 -0.6z"/>
 </g>
 <g fill="#e3dee8">
  <path d="M464.5 413 c-0.3 -0.5 0.3 -1 1.5 -1 1.2 0 1.8 0.5 1.5 1 -0.3 0.6 -1 1 -1.5 1 -0.5 0 -1.2 -0.4 -1.5 -1z"/>
  <path d="M134 297 l-10.4 -2.9 -7.8 -7.9 -7.8 -7.8 -2.9 -10.9 -2.9 -11 2.9 -10.9 c3.3 -12.1 4.1 -13.5 12.6 -21.9 5.7 -5.6 6.2 -5.8 17.3 -8.8 l11.4 -3 10.8 2.8 10.8 2.8 8.5 8.5 8.4 8.5 2.9 10.9 2.8 10.8 -2.9 10.7 -2.9 10.6 -8.4 8.5 -8.4 8.5 -10.4 2.8 c-5.7 1.5 -11 2.7 -11.8 2.6 -0.7 0 -6 -1.4 -11.8 -2.9z m10.4 -47 c4 -4 4.1 -4.2 4.1 -11.1 0 -7 0 -7.1 -4.1 -10.9 -6.7 -6.3 -15.4 -6.6 -21.9 -0.9 -6.9 6.1 -7.3 16.8 -0.7 23.1 4.4 4.3 6 4.8 13.1 4.3 4.8 -0.3 6 -0.9 9.5 -4.5z"/>
  <path d="M353.7 297.1 l-9.7 -2.7 -8.4 -8.3 -8.3 -8.3 -2.9 -10.6 -2.8 -10.6 2.9 -11.3 2.9 -11.2 8.5 -8.4 8.6 -8.4 11 -2.8 11 -2.7 11 3.1 10.9 3.1 7.8 7.8 7.8 7.8 3.1 11.3 3.1 11.4 -3.1 11.1 -3.1 11.1 -7.9 7.9 -7.8 7.8 -10.4 2.9 c-5.7 1.5 -11.3 2.8 -12.4 2.8 -1.1 -0.1 -6.4 -1.3 -11.8 -2.8z m35.5 -15.3 c11.1 -3.3 14.2 -18.2 5.5 -26.5 -6.6 -6.3 -15.6 -6.1 -22 0.5 -6.3 6.6 -6.5 15.5 -0.3 22 4.5 4.8 9.9 6.1 16.8 4z"/>
 </g>
</svg>