<svg width="1634" height="547" viewBox="0 0 1634 547" fill="none" xmlns="http://www.w3.org/2000/svg">
<g filter="url(#filter0_d_178_508)">
<path d="M573 126C561.489 131.294 557.169 110.5 544.5 110.5C516 110.5 553.319 179.877 555.5 220.5C557.155 251.347 546.5 318.5 563.5 318.5C573.117 318.5 580.418 310.082 588 316C593.746 320.486 588.468 329.405 594.5 333.5C604.791 340.487 603.561 309.915 616 310C621.372 310.037 623.714 315.462 629 314.5C636.941 313.055 636.617 304.329 640 297C654.947 264.619 622.33 223.618 620.5 188C618.803 154.987 618.547 130.499 620.5 97.5001C622.452 64.5008 605.977 124.843 594 119C586.533 115.358 591.648 102.119 583.5 100.5C572.937 98.4013 582.784 121.5 573 126Z" fill="url(#paint0_linear_178_508)"/>
<path d="M588.499 15C575.081 14.377 567.564 22.7566 559.499 33.5C547.156 49.9445 539.416 73.1895 555.499 86C572.072 99.1996 597.143 86.5084 606.499 67.5C616.072 48.0542 610.15 16.0052 588.499 15Z" fill="url(#paint1_linear_178_508)"/>
<path d="M668.5 52C656.995 44.542 648.392 61.6587 640 72.5C619.698 98.7259 660.311 154.907 662.5 188C665.194 228.733 636.58 314.532 676.5 306C685.555 304.065 689.231 293.024 698 296C704.7 298.274 702.762 320.162 709 323.5C724.256 331.664 718.588 293.621 727 278.5C736.183 261.991 711.729 237.276 723.5 222.5C741.025 200.5 785.5 278.5 791.5 297C796.128 311.268 833.823 307.5 852 285.5C879.735 251.932 830.152 217.539 829.5 174C828.707 121.061 897.891 -17.7549 852.5 9.50007C837.208 18.6823 836.726 53.5659 822 43.5001C810.943 35.9419 829.452 15.5452 817.5 9.50007C803.401 2.3686 799 15 791.5 40.5001C782.385 71.4908 795.757 131.164 768.5 148.5C735.826 169.281 733.847 35.1152 699 52C688.302 57.1832 687.152 77.7751 676.5 72.5C668.798 68.6863 675.711 56.6748 668.5 52Z" fill="url(#paint2_linear_178_508)"/>
<path d="M986 52C1003.58 53.865 1026.66 88.0189 1024 105.5C1022.11 117.945 1010.06 127.578 991.5 126C960 93 945.421 111.231 941 119C932.492 133.951 957.686 163.957 972.5 179.5C998.5 206.78 999.719 223.988 998.5 237.5C993.13 297 970.466 342.391 935.5 339C923.301 337.817 904.922 318.174 903.5 306C902.326 295.943 876 338 861 318.5C846 299 885.336 285.946 874.5 266C861.375 241.842 930.299 264.497 935.5 237.5C938.514 221.857 926.009 192.868 903.5 174C869.5 145.5 869.5 117.783 869.5 105.5C869.5 67.3916 883.5 52 914 49C926.087 47.8111 933.153 64.8254 945 67.5C956.162 70.0197 974.621 50.7931 986 52Z" fill="url(#paint3_linear_178_508)"/>
<path d="M1280 321C1272 304.5 1277.07 65.2874 1296.5 85.5C1311.66 101.273 1301.5 137 1312.5 137C1329.91 137 1326.35 96.919 1343 102C1356.13 106.009 1355.56 119.687 1360.5 132.5C1376.63 174.347 1304.29 233.495 1338.5 262.5C1350.04 272.284 1358.98 276.214 1374 278C1425.89 284.17 1335.91 121.853 1383 144.5C1401.68 153.483 1400.99 193.765 1419 183.5C1431.34 176.467 1416.49 151.351 1430.5 149C1444.33 146.678 1450.69 163.163 1453 177C1456.5 198 1440.5 299 1445 372C1445.62 382.134 1443.32 390.185 1435 396C1419.52 406.811 1422.33 352.302 1404.5 358.5C1392.42 362.7 1400.2 384.929 1387.5 386.5C1371.69 388.457 1388.99 353.393 1374 348C1361.97 343.673 1355.75 357.614 1343 358.5C1314.44 360.485 1292.49 346.763 1280 321Z" fill="url(#paint4_linear_178_508)"/>
<path d="M1551 173.5C1518.66 181.982 1486.94 112.903 1476 144.5C1467 170.5 1461 211 1464.5 233.5C1466.75 247.962 1495.3 228.139 1500 242C1510 271.5 1467.5 393.5 1485.5 426C1496.81 446.422 1507.31 432.005 1523.5 482.5C1544.5 548 1551 482.5 1551 464.5C1551 376.02 1535 303 1556.5 258C1567.04 235.949 1625.07 265.069 1617 242C1610.8 224.268 1563.92 241.962 1572 225C1577.84 212.735 1595.04 223.237 1605 214C1623.65 196.707 1624.32 159.143 1601 149C1581.06 140.328 1572.03 167.984 1551 173.5Z" fill="url(#paint5_linear_178_508)"/>
<path fill-rule="evenodd" clip-rule="evenodd" d="M195.604 133.736C204.133 141.385 212.872 149.224 219 146C224.347 143.187 226.019 138.096 227.72 132.915C229.3 128.105 230.905 123.216 235.5 120C264.5 99.7026 333 115 343.5 153.5C347.59 168.496 341.924 180.184 335.896 192.621C330.826 203.08 325.5 214.069 325.5 228C325.5 244.182 331.13 253.326 337.759 264.096C343.625 273.625 350.275 284.426 354.5 302.5C363.5 341 338.254 357.5 314 357.5C305.618 357.5 304.311 350.67 301.728 337.179C300.614 331.356 299.261 324.291 297 316C290.067 290.58 277.409 272.783 255 283.5C243.903 288.808 245.233 309.212 246.562 329.6C247.987 351.467 249.412 373.316 235.5 376.5C214.404 381.329 216.371 387.765 219.365 397.561C222.261 407.035 226.118 419.652 211 437C185.537 466.219 187.953 361.276 189.445 296.43C189.741 283.601 190 272.341 190 264C190 244.823 183.874 220.181 178.037 196.704C169.824 163.666 162.185 132.938 173 123C178.253 118.173 186.817 125.854 195.604 133.736ZM277 186C273.953 175.828 264.491 169.863 254 171.5C238.175 173.969 239.074 210.806 255 212.5C268.375 213.923 280.86 198.885 277 186Z" fill="url(#paint6_linear_178_508)"/>
<path fill-rule="evenodd" clip-rule="evenodd" d="M173 208.5C170.631 180.725 147.008 169.554 121 159.5C113.297 156.523 107.386 158.6 101.402 160.702C94.1483 163.251 86.7879 165.837 75.9998 159.5C71.1516 156.653 67.172 162.183 62.9339 168.072C59.1092 173.386 55.0739 178.994 49.9998 179C43.7438 179.008 40.5257 174.282 37.2495 169.47C34.1193 164.873 30.9362 160.198 24.9999 159.5C-3.93048 156.098 5.78719 187.398 15.8183 219.708C19.4384 231.369 23.0994 243.161 24.9993 253.5C29.096 275.795 27.6611 296.227 26.1185 318.193C25.7218 323.841 25.318 329.591 24.9993 335.5C24.1973 350.371 20.907 373.414 17.366 398.212C8.04562 463.485 -3.01145 540.919 25.0011 513.5C33.8354 504.853 35.3406 479.39 36.5748 458.512C37.8078 437.652 38.7704 421.368 46.5014 431C48.2781 433.214 49.9918 436.273 51.7771 439.46C54.8951 445.027 58.2311 450.982 62.5014 453.5C68.6824 457.145 71.0824 448.442 73.7558 438.747C75.7706 431.441 77.9406 423.571 82.0014 420C92.5918 410.686 105.102 408.125 117.4 405.607C130.541 402.917 143.44 400.276 153.5 389.5C154.212 388.737 154.898 388.005 155.559 387.301C165.244 376.974 169.529 372.406 173 357.5C176.011 344.568 172.225 326.38 168.999 313.5C167.203 306.328 162.212 298.349 157.174 290.297C151.532 281.28 145.833 272.171 144.5 264C142.6 252.357 150.308 244.604 158.196 236.669C166.03 228.789 174.043 220.729 173 208.5ZM86.5002 208.5C92.6389 211.374 94.3965 215.057 96.5002 221.5C99.624 231.068 94.6685 247.619 86.5002 253.5C74.5636 262.094 73.1795 202.264 86.5002 208.5ZM113.5 335.5C112.447 326.619 99.6368 311.212 91.4998 307.5C76.3997 300.611 76.3997 375.389 91.4998 368.5C101.283 364.037 114.766 346.179 113.5 335.5Z" fill="url(#paint7_linear_178_508)"/>
<path fill-rule="evenodd" clip-rule="evenodd" d="M412 76.5C372.927 37.1446 362.5 208.5 362.5 208.5V270.5C362.5 309.569 362.627 353 387.5 342C392.498 339.79 393.767 334.242 394.945 329.091C396.252 323.375 397.448 318.147 403.5 318.5C410.275 318.895 411.957 322.992 413.716 327.275C415.399 331.372 417.151 335.64 423.5 337C432.662 338.963 430.822 331.501 428.063 320.306C424.497 305.842 419.395 285.147 434.5 270.5C445.844 259.5 474 260.948 483.5 268C490.212 272.983 489.627 287.727 489.062 301.971C488.44 317.635 487.843 332.694 497 333.5C504.036 334.119 506.1 329.693 508.327 324.92C510.388 320.501 512.588 315.785 518.999 314.5C525.69 313.159 527.226 316.983 528.758 320.793C530.29 324.607 531.817 328.406 538.5 327C560.909 322.285 539.868 263.886 526.581 227.007C523.35 218.038 520.577 210.341 518.999 205C511.968 181.193 514.857 163.791 517.141 150.035C520.56 129.439 522.623 117.015 488 103.5C481.485 100.957 475.936 102.003 471.01 102.931C464.517 104.155 459.107 105.174 454 97.5001C452.074 94.6066 451.182 91.0585 450.311 87.5939C448.994 82.3538 447.724 77.3047 443 75C438.545 72.827 436.045 77.5363 433.449 82.4277C430.885 87.2577 428.227 92.2653 423.5 91C419.307 89.878 417.839 86.7241 416.233 83.2727C415.164 80.9767 414.034 78.549 412 76.5ZM439.5 218C427.41 209.02 433.651 183.015 448.5 180.5C464.199 177.842 477.282 208.507 464.5 218C456.662 223.822 447.338 223.822 439.5 218Z" fill="url(#paint8_linear_178_508)"/>
<path fill-rule="evenodd" clip-rule="evenodd" d="M1078 220C1078.02 167.853 1101.86 66.9863 1140.5 102C1160 119.667 1163.55 111.461 1168.77 99.3887C1172.85 89.9506 1177.95 78.1493 1192.5 74.5C1226.56 65.9543 1239.66 105.663 1251.24 140.785C1252.67 145.127 1254.08 149.398 1255.5 153.5C1283.36 233.861 1232.49 349.638 1150.5 327C1093.78 311.338 1077.98 278.844 1078 220ZM1185.5 170.5C1170.32 165.709 1158.15 174.231 1148 186.5C1137.85 198.769 1133 250 1163.5 253.5C1194 257 1205.02 231.343 1204.5 213.5C1203.96 195.149 1203.01 176.025 1185.5 170.5Z" fill="url(#paint9_linear_178_508)"/>
<path d="M362.5 208.5C362.5 208.5 372.927 37.1446 412 76.5C414.034 78.549 415.164 80.9767 416.233 83.2727C417.839 86.7241 419.307 89.878 423.5 91C428.227 92.2653 430.885 87.2577 433.449 82.4277C436.045 77.5363 438.545 72.827 443 75C447.724 77.3047 448.994 82.3538 450.311 87.5939C451.182 91.0585 452.074 94.6066 454 97.5001C459.107 105.174 464.517 104.155 471.01 102.931C475.936 102.003 481.485 100.957 488 103.5C522.623 117.015 520.56 129.439 517.141 150.035C514.857 163.791 511.968 181.193 518.999 205C520.577 210.341 523.35 218.038 526.581 227.007C539.868 263.886 560.909 322.285 538.5 327C531.817 328.406 530.29 324.607 528.758 320.793C527.226 316.983 525.69 313.159 518.999 314.5C512.588 315.785 510.388 320.501 508.327 324.92C506.1 329.693 504.036 334.119 497 333.5C487.843 332.694 488.44 317.635 489.062 301.971C489.627 287.727 490.212 272.983 483.5 268C474 260.948 445.844 259.5 434.5 270.5C419.395 285.147 424.497 305.842 428.063 320.306C430.822 331.501 432.662 338.963 423.5 337C417.151 335.64 415.399 331.372 413.716 327.275C411.957 322.992 410.275 318.895 403.5 318.5C397.448 318.147 396.252 323.375 394.945 329.091C393.767 334.242 392.498 339.79 387.5 342C362.627 353 362.5 309.569 362.5 270.5M362.5 208.5C362.5 208.5 362.5 239.5 362.5 270.5M362.5 208.5V270.5M24.9999 159.5C-3.93048 156.098 5.78719 187.398 15.8183 219.708C19.4384 231.369 23.0994 243.161 24.9993 253.5C29.096 275.795 27.6611 296.227 26.1185 318.193C25.7218 323.841 25.318 329.591 24.9993 335.5C24.1973 350.371 20.907 373.414 17.366 398.212C8.04562 463.485 -3.01145 540.919 25.0011 513.5C33.8354 504.853 35.3406 479.39 36.5748 458.512C37.8078 437.652 38.7704 421.368 46.5014 431C48.2781 433.214 49.9918 436.273 51.7771 439.46C54.8951 445.027 58.2311 450.982 62.5014 453.5C68.6824 457.145 71.0824 448.442 73.7558 438.747C75.7706 431.441 77.9406 423.571 82.0014 420C92.5918 410.686 105.102 408.125 117.4 405.607C130.541 402.917 143.44 400.276 153.5 389.5C154.212 388.737 154.898 388.005 155.559 387.301C165.244 376.974 169.529 372.406 173 357.5C176.011 344.568 172.225 326.38 168.999 313.5C167.203 306.328 162.212 298.349 157.174 290.297C151.532 281.28 145.833 272.171 144.5 264C142.6 252.357 150.308 244.604 158.196 236.669C166.03 228.789 174.043 220.729 173 208.5C170.631 180.725 147.008 169.554 121 159.5C113.297 156.523 107.386 158.6 101.402 160.702C94.1483 163.251 86.7879 165.837 75.9998 159.5C71.1516 156.653 67.172 162.183 62.9339 168.072C59.1092 173.386 55.0739 178.994 49.9998 179C43.7438 179.008 40.5257 174.282 37.2495 169.47C34.1193 164.873 30.9362 160.198 24.9999 159.5ZM86.5002 208.5C92.6389 211.374 94.3965 215.057 96.5002 221.5C99.624 231.068 94.6685 247.619 86.5002 253.5C74.5636 262.094 73.1795 202.264 86.5002 208.5ZM91.4998 307.5C99.6368 311.212 112.447 326.619 113.5 335.5C114.766 346.179 101.283 364.037 91.4998 368.5C76.3997 375.389 76.3997 300.611 91.4998 307.5ZM173 123C162.185 132.938 169.824 163.666 178.037 196.704C183.874 220.181 190 244.823 190 264C190 272.341 189.741 283.601 189.445 296.43C187.953 361.276 185.537 466.219 211 437C226.118 419.652 222.261 407.035 219.365 397.561C216.371 387.765 214.404 381.329 235.5 376.5C249.412 373.316 247.987 351.467 246.562 329.6C245.233 309.212 243.903 288.808 255 283.5C277.409 272.783 290.067 290.58 297 316C299.261 324.291 300.614 331.356 301.728 337.179C304.311 350.67 305.618 357.5 314 357.5C338.254 357.5 363.5 341 354.5 302.5C350.275 284.426 343.625 273.625 337.759 264.096C331.13 253.326 325.5 244.182 325.5 228C325.5 214.069 330.826 203.08 335.896 192.621C341.924 180.184 347.59 168.496 343.5 153.5C333 115 264.5 99.7026 235.5 120C230.905 123.216 229.3 128.105 227.72 132.915C226.019 138.096 224.347 143.187 219 146C212.872 149.224 204.133 141.385 195.604 133.736C186.817 125.854 178.253 118.173 173 123ZM254 171.5C264.491 169.863 273.953 175.828 277 186C280.86 198.885 268.375 213.923 255 212.5C239.074 210.806 238.175 173.969 254 171.5ZM448.5 180.5C433.651 183.015 427.41 209.02 439.5 218C447.338 223.822 456.662 223.822 464.5 218C477.282 208.507 464.199 177.842 448.5 180.5ZM544.5 110.5C557.169 110.5 561.489 131.294 573 126C582.784 121.5 572.937 98.4013 583.5 100.5C591.648 102.119 586.533 115.358 594 119C605.977 124.843 622.452 64.5008 620.5 97.5001C618.547 130.499 618.803 154.987 620.5 188C622.33 223.618 654.947 264.619 640 297C636.617 304.329 636.941 313.055 629 314.5C623.714 315.462 621.372 310.037 616 310C603.561 309.915 604.791 340.487 594.5 333.5C588.468 329.405 593.746 320.486 588 316C580.418 310.082 573.117 318.5 563.5 318.5C546.5 318.5 557.155 251.347 555.5 220.5C553.319 179.877 516 110.5 544.5 110.5ZM559.499 33.5C567.564 22.7566 575.08 14.377 588.499 15C610.15 16.0052 616.072 48.0542 606.499 67.5C597.142 86.5084 572.072 99.1996 555.499 86C539.416 73.1895 547.156 49.9445 559.499 33.5ZM640 72.5C648.392 61.6587 656.995 44.542 668.5 52C675.711 56.6748 668.798 68.6863 676.5 72.5C687.152 77.7751 688.302 57.1832 699 52C733.847 35.1152 735.826 169.281 768.5 148.5C795.757 131.164 782.385 71.4908 791.5 40.5001C799 15 803.401 2.3686 817.5 9.50007C829.452 15.5452 810.943 35.9419 822 43.5001C836.726 53.5659 837.208 18.6823 852.5 9.50007C897.891 -17.7549 828.707 121.061 829.5 174C830.152 217.539 879.735 251.932 852 285.5C833.823 307.5 796.128 311.268 791.5 297C785.5 278.5 741.025 200.5 723.5 222.5C711.729 237.276 736.183 261.991 727 278.5C718.588 293.621 724.256 331.664 709 323.5C702.762 320.162 704.7 298.274 698 296C689.231 293.024 685.555 304.065 676.5 306C636.58 314.532 665.194 228.733 662.5 188C660.311 154.907 619.698 98.7259 640 72.5ZM1024 105.5C1026.66 88.0189 1003.58 53.865 986 52C974.621 50.7931 956.162 70.0197 945 67.5C933.153 64.8254 926.087 47.8111 914 49C883.5 52 869.5 67.3916 869.5 105.5C869.5 117.783 869.5 145.5 903.5 174C926.009 192.868 938.514 221.857 935.5 237.5C930.299 264.497 861.375 241.842 874.5 266C885.336 285.946 846 299 861 318.5C876 338 902.325 295.943 903.5 306C904.922 318.174 923.301 337.817 935.5 339C970.466 342.391 993.13 297 998.5 237.5C999.719 223.988 998.5 206.78 972.5 179.5C957.686 163.957 932.492 133.951 941 119C945.421 111.231 960 93 991.5 126C1010.06 127.578 1022.11 117.945 1024 105.5ZM1078 220C1078.02 167.853 1101.86 66.9863 1140.5 102C1160 119.667 1163.55 111.461 1168.77 99.3887C1172.85 89.9506 1177.95 78.1493 1192.5 74.5C1226.56 65.9543 1239.66 105.663 1251.24 140.785C1252.67 145.127 1254.08 149.398 1255.5 153.5C1283.36 233.861 1232.49 349.638 1150.5 327C1093.78 311.338 1077.98 278.844 1078 220ZM1148 186.5C1158.15 174.231 1170.32 165.709 1185.5 170.5C1203.01 176.025 1203.96 195.149 1204.5 213.5C1205.02 231.343 1194 257 1163.5 253.5C1133 250 1137.85 198.769 1148 186.5ZM1296.5 85.5C1277.07 65.2874 1272 304.5 1280 321C1292.49 346.763 1314.44 360.485 1343 358.5C1355.75 357.614 1361.97 343.673 1374 348C1388.99 353.393 1371.69 388.457 1387.5 386.5C1400.2 384.929 1392.42 362.7 1404.5 358.5C1422.33 352.302 1419.52 406.811 1435 396C1443.32 390.185 1445.62 382.134 1445 372C1440.5 299 1456.5 198 1453 177C1450.69 163.163 1444.33 146.678 1430.5 149C1416.49 151.351 1431.34 176.467 1419 183.5C1400.99 193.765 1401.68 153.483 1383 144.5C1335.91 121.853 1425.89 284.17 1374 278C1358.98 276.214 1350.04 272.283 1338.5 262.5C1304.29 233.495 1376.63 174.347 1360.5 132.5C1355.56 119.687 1356.13 106.009 1343 102C1326.35 96.919 1329.91 137 1312.5 137C1301.5 137 1311.66 101.273 1296.5 85.5ZM1476 144.5C1486.94 112.903 1518.66 181.982 1551 173.5C1572.03 167.984 1581.06 140.328 1601 149C1624.32 159.143 1623.65 196.707 1605 214C1595.04 223.237 1577.84 212.735 1572 225C1563.92 241.962 1610.8 224.268 1617 242C1625.07 265.069 1567.04 235.949 1556.5 258C1535 303 1551 376.02 1551 464.5C1551 482.5 1544.5 548 1523.5 482.5C1507.31 432.005 1496.81 446.422 1485.5 426C1467.5 393.5 1510 271.5 1500 242C1495.3 228.139 1466.75 247.962 1464.5 233.5C1461 211 1467 170.5 1476 144.5Z" stroke="#1E1F21" stroke-width="10"/>
</g>
<defs>
<filter id="filter0_d_178_508" x="0.797852" y="0.991699" width="1632.97" height="545.181" filterUnits="userSpaceOnUse" color-interpolation-filters="sRGB">
<feFlood flood-opacity="0" result="BackgroundImageFix"/>
<feColorMatrix in="SourceAlpha" type="matrix" values="0 0 0 0 0 0 0 0 0 0 0 0 0 0 0 0 0 0 127 0" result="hardAlpha"/>
<feOffset dx="10" dy="22"/>
<feComposite in2="hardAlpha" operator="out"/>
<feColorMatrix type="matrix" values="0 0 0 0 0.117647 0 0 0 0 0.121569 0 0 0 0 0.129412 0 0 0 1 0"/>
<feBlend mode="normal" in2="BackgroundImageFix" result="effect1_dropShadow_178_508"/>
<feBlend mode="normal" in="SourceGraphic" in2="effect1_dropShadow_178_508" result="shape"/>
</filter>
<linearGradient id="paint0_linear_178_508" x1="812.28" y1="5.99121" x2="812.28" y2="676.5" gradientUnits="userSpaceOnUse">
<stop stop-color="#01A894"/>
<stop offset="0.473958" stop-color="#13F300"/>
<stop offset="1" stop-color="#7F8A00"/>
</linearGradient>
<linearGradient id="paint1_linear_178_508" x1="812.28" y1="5.99121" x2="812.28" y2="676.5" gradientUnits="userSpaceOnUse">
<stop stop-color="#01A894"/>
<stop offset="0.473958" stop-color="#13F300"/>
<stop offset="1" stop-color="#7F8A00"/>
</linearGradient>
<linearGradient id="paint2_linear_178_508" x1="812.28" y1="5.99121" x2="812.28" y2="676.5" gradientUnits="userSpaceOnUse">
<stop stop-color="#01A894"/>
<stop offset="0.473958" stop-color="#13F300"/>
<stop offset="1" stop-color="#7F8A00"/>
</linearGradient>
<linearGradient id="paint3_linear_178_508" x1="812.28" y1="5.99121" x2="812.28" y2="676.5" gradientUnits="userSpaceOnUse">
<stop stop-color="#01A894"/>
<stop offset="0.473958" stop-color="#13F300"/>
<stop offset="1" stop-color="#7F8A00"/>
</linearGradient>
<linearGradient id="paint4_linear_178_508" x1="812.28" y1="5.99121" x2="812.28" y2="676.5" gradientUnits="userSpaceOnUse">
<stop stop-color="#01A894"/>
<stop offset="0.473958" stop-color="#13F300"/>
<stop offset="1" stop-color="#7F8A00"/>
</linearGradient>
<linearGradient id="paint5_linear_178_508" x1="812.28" y1="5.99121" x2="812.28" y2="676.5" gradientUnits="userSpaceOnUse">
<stop stop-color="#01A894"/>
<stop offset="0.473958" stop-color="#13F300"/>
<stop offset="1" stop-color="#7F8A00"/>
</linearGradient>
<linearGradient id="paint6_linear_178_508" x1="812.28" y1="5.99121" x2="812.28" y2="676.5" gradientUnits="userSpaceOnUse">
<stop stop-color="#01A894"/>
<stop offset="0.473958" stop-color="#13F300"/>
<stop offset="1" stop-color="#7F8A00"/>
</linearGradient>
<linearGradient id="paint7_linear_178_508" x1="812.28" y1="5.99121" x2="812.28" y2="676.5" gradientUnits="userSpaceOnUse">
<stop stop-color="#01A894"/>
<stop offset="0.473958" stop-color="#13F300"/>
<stop offset="1" stop-color="#7F8A00"/>
</linearGradient>
<linearGradient id="paint8_linear_178_508" x1="812.28" y1="5.99121" x2="812.28" y2="676.5" gradientUnits="userSpaceOnUse">
<stop stop-color="#01A894"/>
<stop offset="0.473958" stop-color="#13F300"/>
<stop offset="1" stop-color="#7F8A00"/>
</linearGradient>
<linearGradient id="paint9_linear_178_508" x1="812.28" y1="5.99121" x2="812.28" y2="676.5" gradientUnits="userSpaceOnUse">
<stop stop-color="#01A894"/>
<stop offset="0.473958" stop-color="#13F300"/>
<stop offset="1" stop-color="#7F8A00"/>
</linearGradient>
</defs>
</svg>
